<?xml version="1.0" encoding="utf-8"?>
<!-- Generator: Adobe Illustrator 17.0.0, SVG Export Plug-In . SVG Version: 6.00 Build 0)  -->
<!DOCTYPE svg PUBLIC "-//W3C//DTD SVG 1.1//EN" "http://www.w3.org/Graphics/SVG/1.1/DTD/svg11.dtd">
<svg version="1.1" id="Capa_1" xmlns="http://www.w3.org/2000/svg" xmlns:xlink="http://www.w3.org/1999/xlink" x="0px" y="0px"
	 width="1464px" height="1464px" viewBox="-143.84 193.002 1464 1464" enable-background="new -143.84 193.002 1464 1464"
	 xml:space="preserve">
<g>
	<path fill="#F2B336" stroke="#F2B336" stroke-miterlimit="10" d="M588.16,853.002c70.2,0,126-55.8,126-126c0-70.2-55.8-126-126-126
		s-126,55.8-126,126C462.16,797.202,517.96,853.002,588.16,853.002z M588.16,637.002c50.4,0,90,39.6,90,90s-39.6,90-90,90
		s-90-39.6-90-90S537.76,637.002,588.16,637.002z"/>
	<path fill="#F2B336" stroke="#F2B336" stroke-miterlimit="10" d="M584.56,1371.402l275.4-399.6c104.4-138.6,88.2-365.4-32.4-486
		c-63-64.8-151.2-100.8-243-100.8s-178.2,36-244.8,100.8c-120.6,120.6-135,347.4-32.4,486L584.56,1371.402z M366.76,511.002
		c57.6-57.6,136.8-90,217.8-90s160.2,32.4,219.6,90c108,108,122.4,313.2,28.8,439.2l-248.4,356.4l-246.6-356.4
		C244.36,826.002,256.96,620.802,366.76,511.002z"/>
	<path fill="#51AACC" stroke="#51AACC" stroke-miterlimit="10" d="M805.96,1159.002c-9-1.8-18,5.4-19.8,16.2
		c-1.8,10.8,5.4,18,16.2,19.8c189,21.6,289.8,82.8,289.8,117c0,48.6-192.6,117-504,117s-504-68.4-504-117
		c0-34.2,100.8-95.4,289.8-117c9-1.8,16.2-10.8,16.2-19.8c-1.8-9-10.8-16.2-19.8-16.2c-189,21.6-322.2,84.6-322.2,153
		c0,75.6,185.4,153,540,153s540-77.4,540-153C1128.16,1243.602,994.96,1180.602,805.96,1159.002z"/>
</g>
</svg>
