<?xml version="1.0" encoding="utf-8"?>
<!-- Generator: Adobe Illustrator 22.1.0, SVG Export Plug-In . SVG Version: 6.00 Build 0)  -->
<svg version="1.1" id="Capa_1" xmlns="http://www.w3.org/2000/svg" xmlns:xlink="http://www.w3.org/1999/xlink" x="0px" y="0px"
	 viewBox="0 0 512 512" style="enable-background:new 0 0 512 512;" xml:space="preserve">
<style type="text/css">
	.st0{fill:#51AACC;}
	.st1{fill:#F2B336;}
</style>
<g>
	<g>
		<path class="st0" d="M117.8,174.3c-3.9-3.9-10.2-3.9-14.1,0s-3.9,10.2,0,14.1c3.9,3.9,10.2,3.9,14.1,0
			C121.7,184.6,121.7,178.3,117.8,174.3z"/>
	</g>
</g>
<g>
	<g>
		<path class="st1" d="M253.2,447.7c4.4-6,6.8-13.2,6.8-20.7c0-19.3-15.7-35-35-35H55c-9.4,0-18.1,3.6-24.7,10.2
			C23.6,408.8,20,417.6,20,427c0,7.7,2.5,14.9,6.8,20.7C10.9,456.1,0,472.8,0,492v10c0,5.5,4.5,10,10,10h260c5.5,0,10-4.5,10-10v-10
			C280,472.8,269.1,456.1,253.2,447.7z M44.4,416.4c2.8-2.8,6.6-4.4,10.6-4.4h170c8.3,0,15,6.7,15,15c0,4-1.6,7.8-4.4,10.6
			c-2.8,2.8-6.6,4.4-10.6,4.4H55c-8.3,0-15-6.7-15-15C40,423,41.6,419.2,44.4,416.4z M20,492c0-16.5,13.5-30,30-30h5h170h5
			c16.5,0,30,13.5,30,30H20z"/>
	</g>
</g>
<path class="st0" d="M502.7,420.1c-3.4-5.3-7.4-9.9-12-13.8L444,365.5c-0.4-0.5-0.8-1.1-1.3-1.6c-0.8-0.8-1.7-1.4-2.7-1.9
	l-28.3-24.6L280.9,223.3c5.4-5.6,8.3-12.9,8.3-20.7c0-8-3.1-15.6-8.8-21.2c-2.5-2.5-5.3-4.4-8.3-5.8l12.1-12.1
	c3.4,0.9,6.9,1.4,10.3,1.4c10.2,0,20.5-3.9,28.3-11.7c7.6-7.6,11.7-17.6,11.7-28.3s-4.2-20.7-11.7-28.3L238,11.7
	C230.4,4.2,220.4,0,209.7,0S189,4.2,181.4,11.7C171,22.2,167.5,37,171.1,50.3L50.4,171.1c-3.3-0.9-6.8-1.4-10.4-1.4
	c-10.7,0-20.7,4.2-28.3,11.7c-15.6,15.6-15.6,41,0,56.6l84.8,84.8c7.8,7.8,18,11.7,28.3,11.7c10.2,0,20.5-3.9,28.3-11.7
	c10.4-10.4,13.9-25.3,10.3-38.6l12.1-12.1c1.5,3,3.4,5.8,5.9,8.3c5.7,5.7,13.2,8.8,21.2,8.8c7.8,0,15.1-2.9,20.7-8.3L362.6,441
	c0.4,0.6,0.8,1.2,1.4,1.7c0.2,0.2,0.4,0.3,0.6,0.5l41.5,47.7c1,1.2,2.1,2.4,3.3,3.6c11.4,11.4,26.5,17.6,42.3,17.6
	c2.8,0,5.6-0.2,8.4-0.6c18.8-2.6,35.1-13.9,44.6-30.9C515.1,461.8,514.3,438.1,502.7,420.1z M195.6,25.9c3.8-3.8,8.8-5.9,14.1-5.9
	s10.4,2.1,14.1,5.9l84.8,84.8c3.8,3.8,5.9,8.8,5.9,14.1c0,5.3-2.1,10.4-5.9,14.1c-7.8,7.8-20.5,7.8-28.3,0L195.4,54l0,0
	C187.8,46.3,187.8,33.7,195.6,25.9z M139,308.7c-7.8,7.8-20.5,7.8-28.3,0l-84.8-84.8c-7.8-7.8-7.8-20.5,0-28.3
	c3.8-3.8,8.8-5.9,14.1-5.9s10.4,2.1,14.1,5.8l84.9,84.9C146.8,288.2,146.8,300.9,139,308.7z M181.1,238.3l-28,28l-84.9-84.9
	L181.4,68.3l84.9,84.9l-28,28c-0.1,0.1-0.2,0.2-0.3,0.3L181.4,238C181.3,238.1,181.2,238.2,181.1,238.3z M216.8,259.2L216.8,259.2
	l-7.1,7.1c-1.9,1.9-4.4,2.9-7.1,2.9c-2.7,0-5.2-1-7.1-2.9c-1.9-1.9-2.9-4.4-2.9-7.1c0-2.6,1-5.1,2.8-6.9l56.8-56.8
	c3.9-3.8,10.2-3.7,14,0.1c1.9,1.9,2.9,4.4,2.9,7.1c0,2.7-1,5.2-2.9,7.1l-7,7l-0.1,0.1L216.8,259.2z M237.5,266.7l29.2-29.2
	l123.7,107.9l-45.2,45.2L237.5,266.7z M358.5,405.7l47.1-47.1l15.1,13.2l-49,49L358.5,405.7z M487.2,470.7
	c-6.5,11.5-17.4,19.1-29.9,20.9c-12.5,1.7-24.9-2.4-33.8-11.3c-0.8-0.8-1.5-1.6-2.2-2.4l-0.1-0.1L384.8,436l51-51l41.8,36.4l0.1,0.1
	c3.1,2.7,5.9,5.8,8.3,9.5C493.5,442.7,494,458.6,487.2,470.7z"/>
<g>
	<g>
		<path class="st0" d="M188.5,103.6c-3.9-3.9-10.2-3.9-14.1,0L132,146c-3.9,3.9-3.9,10.2,0,14.1c2,2,4.5,2.9,7.1,2.9s5.1-1,7.1-2.9
			l42.4-42.4C192.4,113.9,192.4,107.5,188.5,103.6z"/>
	</g>
</g>
</svg>
