<?xml version="1.0" encoding="utf-8"?>
<!-- Generator: Adobe Illustrator 17.0.0, SVG Export Plug-In . SVG Version: 6.00 Build 0)  -->
<!DOCTYPE svg PUBLIC "-//W3C//DTD SVG 1.1//EN" "http://www.w3.org/Graphics/SVG/1.1/DTD/svg11.dtd">
<svg version="1.1" id="Í_xBC__xB2_ã_x5F_1" xmlns="http://www.w3.org/2000/svg" xmlns:xlink="http://www.w3.org/1999/xlink"
	 x="0px" y="0px" width="1464px" height="1464px" viewBox="-697.216 -692.856 1464 1464"
	 enable-background="new -697.216 -692.856 1464 1464" xml:space="preserve">
<g>
	<path fill="none" stroke="#51AACC" stroke-width="28" stroke-miterlimit="10" d="M373.97-162.489
		c-5.126-10.253-8.544-23.923-8.544-37.592c0-15.379,5.126-30.757,13.67-42.719L109.114-394.879
		c-6.835,15.379-17.088,27.34-29.049,35.884c-13.67,8.544-27.34,13.67-44.428,13.67S4.88-350.451-8.79-358.995
		c-13.67-8.544-23.923-20.505-29.049-35.884L-307.821-242.8c8.544,11.961,13.67,27.34,13.67,42.719
		c0,13.67-3.418,25.631-8.544,37.592c-13.67,25.631-41.01,44.428-71.767,44.428v319.536c13.67,0,29.049,3.417,39.301,10.253
		c11.961,6.835,22.214,17.088,29.049,29.049c6.835,11.961,11.961,25.631,11.961,41.01h661.286c0-15.379,3.418-29.049,11.961-41.01
		c6.835-11.961,17.088-22.214,29.049-29.049c11.961-6.835,25.631-10.253,39.301-10.253V-119.77
		C414.98-118.061,387.64-136.857,373.97-162.489z M33.929,119.455c-29.049,0-54.68-15.379-70.059-39.301
		c-6.835-11.961-11.961-25.631-11.961-41.01s3.418-29.049,11.961-41.01c13.67-23.923,39.301-39.301,70.059-39.301
		c29.049,0,54.68,15.379,70.059,39.301c6.835,11.961,11.961,25.631,11.961,41.01s-3.418,29.049-11.961,41.01
		C90.318,104.076,64.687,119.455,33.929,119.455z"/>
	<path fill="none" stroke="#51AACC" stroke-width="28" stroke-miterlimit="10" d="M237.27-80.469L78.357-358.995
		c-13.67,8.544-27.34,13.67-44.428,13.67s-30.758-5.126-44.428-13.67L-169.412-80.469L-336.87,213.436
		c11.961,6.835,22.214,17.088,29.049,29.049c6.835,11.961,11.961,25.631,11.961,41.01h661.286c0-15.379,3.418-29.049,11.961-41.01
		c6.835-11.961,17.088-22.214,29.049-29.049L237.27-80.469z M33.929,119.455c-29.049,0-54.68-15.379-70.059-39.301
		c-6.835-11.961-11.961-25.631-11.961-41.01s3.418-29.049,11.961-41.01c13.67-23.923,39.301-39.301,70.059-39.301
		c29.049,0,54.68,15.379,70.059,39.301c6.835,11.961,11.961,25.631,11.961,41.01s-3.418,29.049-11.961,41.01
		C90.318,104.076,64.687,119.455,33.929,119.455z"/>
	<path fill="none" stroke="#51AACC" stroke-width="28" stroke-miterlimit="10" d="M365.427,281.786
		c0,13.67,3.418,27.34,10.253,39.301l-266.565,150.37c-11.961-27.34-41.01-47.845-73.476-47.845s-61.515,20.505-73.476,47.845
		l-268.274-150.37c6.835-11.961,10.253-25.631,10.253-39.301c0-15.379-3.418-29.049-11.961-41.01l273.4-160.622
		c13.67,23.922,39.301,39.301,70.059,39.301c29.049,0,54.68-15.379,70.059-39.301l271.691,160.622
		C368.844,252.738,365.427,268.116,365.427,281.786z"/>
	<path fill="none" stroke="#51AACC" stroke-width="28" stroke-miterlimit="10" d="M365.427-198.372
		c0,13.67,3.418,25.631,8.544,37.592l-136.7,80.311L103.988-1.866c-13.67-23.923-39.301-39.301-70.059-39.301
		c-29.049,0-54.68,15.379-70.059,39.301l-133.283-78.602l-136.7-80.311c5.126-10.253,8.544-23.923,8.544-37.592
		c0-15.379-5.126-30.757-13.67-42.719L-41.256-393.17c6.835,15.379,17.087,27.34,29.049,35.884
		c13.67,8.544,27.34,13.67,44.428,13.67s32.466-5.126,44.427-13.67c13.67-8.544,23.922-20.505,29.049-35.884l269.983,152.079
		C370.553-230.839,365.427-215.46,365.427-198.372z"/>
	<polyline fill="none" stroke="#51AACC" stroke-width="28" stroke-miterlimit="10" points="33.929,425.321 33.929,281.786 
		33.929,119.455 	"/>
	
		<line fill="none" stroke="#51AACC" stroke-width="28" stroke-miterlimit="10" x1="33.929" y1="-41.167" x2="33.929" y2="-347.034"/>
	<path fill="none" stroke="#51AACC" stroke-width="28" stroke-miterlimit="10" d="M115.949-427.345
		c0,11.961-1.709,22.214-6.835,32.466c-6.835,15.379-17.088,27.34-29.049,35.884c-13.67,8.544-27.34,13.67-44.428,13.67
		S4.88-350.451-8.79-358.995c-13.67-8.544-23.923-20.505-29.049-35.884c-3.418-10.253-6.835-20.505-6.835-32.466
		c0-44.428,35.884-80.311,80.311-80.311C78.357-507.656,115.949-471.772,115.949-427.345z"/>
	<path fill="#F2B336" stroke="#F2B336" stroke-width="28" stroke-miterlimit="10" d="M115.949,39.144
		c0,15.379-3.418,29.049-11.961,41.01c-13.67,23.922-39.301,39.301-70.059,39.301c-29.049,0-54.68-15.379-70.059-39.301
		c-6.835-11.961-11.961-25.631-11.961-41.01s3.418-29.049,11.961-41.01c13.67-23.923,39.301-39.301,70.059-39.301
		c29.049,0,54.68,15.379,70.059,39.301C110.823,10.095,115.949,23.765,115.949,39.144z"/>
	<path fill="none" stroke="#51AACC" stroke-width="28" stroke-miterlimit="10" d="M115.949,505.633
		c0,44.427-35.884,80.311-80.311,80.311s-80.311-35.884-80.311-80.311c0-11.961,3.418-22.214,6.835-32.466
		c11.961-27.34,41.01-47.845,73.476-47.845s61.515,20.505,73.476,47.845C112.532,481.71,115.949,493.671,115.949,505.633z"/>
	<path fill="none" stroke="#51AACC" stroke-width="28" stroke-miterlimit="10" d="M526.049-198.372
		c0,44.428-35.884,80.311-80.311,80.311c-30.758,0-58.098-17.087-71.767-44.428c-5.126-10.253-8.544-23.923-8.544-37.592
		c0-15.379,5.126-30.757,13.67-42.719c13.67-22.214,39.301-37.592,68.35-37.592C490.165-280.392,526.049-242.8,526.049-198.372z"/>
	<path fill="none" stroke="#51AACC" stroke-width="28" stroke-miterlimit="10" d="M-295.86-198.372
		c0,13.67-3.418,25.631-8.544,37.592c-13.67,25.631-41.01,44.427-71.767,44.427c-44.428,0-80.311-35.884-80.311-80.311
		s35.884-80.311,80.311-80.311c29.049,0,52.971,15.379,68.35,37.592C-300.986-230.839-295.86-215.46-295.86-198.372z"/>
	<path fill="none" stroke="#51AACC" stroke-width="28" stroke-miterlimit="10" d="M526.049,281.786
		c0,44.427-35.884,80.311-80.311,80.311c-30.758,0-56.389-17.088-70.059-41.01c-6.835-11.961-10.253-25.631-10.253-39.301
		c0-15.379,3.418-29.049,11.961-41.01c6.835-11.961,17.088-22.214,29.049-29.049c11.961-6.835,25.631-10.253,39.301-10.253
		C490.165,201.475,526.049,237.359,526.049,281.786z"/>
	<path fill="none" stroke="#51AACC" stroke-width="28" stroke-miterlimit="10" d="M-295.86,281.786
		c0,13.67-3.418,27.34-10.253,39.301c-13.67,23.922-39.301,41.01-70.059,41.01c-44.428,0-80.311-35.884-80.311-80.311
		s35.884-80.311,80.311-80.311c13.67,0,29.049,3.417,39.301,10.253c11.961,6.835,22.214,17.088,29.049,29.049
		C-300.986,252.738-295.86,268.116-295.86,281.786z"/>
</g>
</svg>
