<?xml version="1.0" encoding="utf-8"?>
<!-- Generator: Adobe Illustrator 17.0.0, SVG Export Plug-In . SVG Version: 6.00 Build 0)  -->
<!DOCTYPE svg PUBLIC "-//W3C//DTD SVG 1.1//EN" "http://www.w3.org/Graphics/SVG/1.1/DTD/svg11.dtd">
<svg version="1.1" id="Capa_1" xmlns="http://www.w3.org/2000/svg" xmlns:xlink="http://www.w3.org/1999/xlink" x="0px" y="0px"
	 width="1464px" height="1464px" viewBox="92.234 0 1464 1464" enable-background="new 92.234 0 1464 1464" xml:space="preserve">
<g>
	<g>
		<path fill="#51AACC" d="M1527.233,845.156l-288.409-288.409c-17.666-17.666-46.146-17.666-63.811,0
			c-17.666,17.666-17.666,46.146,0,63.811l211.621,211.621H616.579c-24.875,0-45.064,20.189-45.064,45.064
			s20.189,45.064,45.064,45.064h770.415l-211.621,211.62c-17.666,17.666-17.666,46.146,0,63.811
			c8.652,8.652,20.189,13.339,31.725,13.339c11.536,0,23.073-4.327,31.725-13.339l288.41-288.41
			C1544.898,891.302,1544.898,862.461,1527.233,845.156z"/>
	</g>
	<g>
		<path fill="#F2B336" d="M121.235,618.394l288.41,288.41c8.652,8.652,20.189,13.339,31.725,13.339s23.073-4.326,31.725-13.339
			c17.665-17.666,17.665-46.146,0-63.811L261.835,631.733h770.415c24.875,0,45.064-20.189,45.064-45.064
			c0-24.875-20.189-45.064-45.064-45.064H261.835l211.621-211.621c17.665-17.666,17.665-46.146,0-63.811
			c-17.665-17.666-46.146-17.666-63.811,0l-288.41,288.41C103.57,572.248,103.57,601.089,121.235,618.394z"/>
	</g>
</g>
</svg>
