<?xml version="1.0" encoding="utf-8"?>
<!-- Generator: Adobe Illustrator 17.0.0, SVG Export Plug-In . SVG Version: 6.00 Build 0)  -->
<!DOCTYPE svg PUBLIC "-//W3C//DTD SVG 1.1//EN" "http://www.w3.org/Graphics/SVG/1.1/DTD/svg11.dtd">
<svg version="1.1" id="Capa_1" xmlns="http://www.w3.org/2000/svg" xmlns:xlink="http://www.w3.org/1999/xlink" x="0px" y="0px"
	 width="1464px" height="1464px" viewBox="-303.5 138.277 1464 1464" enable-background="new -303.5 138.277 1464 1464"
	 xml:space="preserve">
<g>
	<g>
		<g>
			<path fill="#51AACC" d="M863.031,330.276H-6.031c-58.219,0-105.469,47.25-105.469,105.469v586.406v42.188
				c0,58.219,47.25,105.469,105.469,105.469h320.625v97.031h-34.172c-60.328,0-109.266,48.938-109.266,109.266v13.078
				c0,11.602,9.492,21.094,21.094,21.094h472.5c11.602,0,21.094-9.492,21.094-21.094v-13.078
				c0-60.328-48.938-109.266-109.266-109.266h-34.172v-97.031h320.625c58.219,0,105.469-47.25,105.469-105.469v-42.188V435.745
				C968.5,377.526,921.25,330.276,863.031,330.276z M576.578,1309.026c34.383,0,62.648,25.734,66.656,59.063H213.766
				c4.008-33.328,32.273-59.063,66.656-59.063h55.266h185.625H576.578z M356.781,1266.839v-97.031h143.438v97.031H356.781z
				 M926.313,1064.339c0,34.805-28.477,63.281-63.281,63.281H521.313H335.688H-6.031c-34.805,0-63.281-28.477-63.281-63.281v-21.094
				h995.625V1064.339z M926.313,1001.057H-69.312V435.745c0-34.805,28.477-63.281,63.281-63.281h869.063
				c34.805,0,63.281,28.477,63.281,63.281V1001.057z"/>
		</g>
	</g>
	<g>
		<g>
			<path fill="#F2B336" d="M878.641,451.354c8.227-8.227,8.227-21.516,0-29.742s-21.516-8.227-29.742,0l-30.375,30.375
				c-29.531-23.414-66.867-37.336-107.367-37.336c-88.172,0-161.156,66.445-171.703,151.875H475.54
				c-11.602,0-21.094,9.492-21.094,21.094s9.492,21.094,21.094,21.094h63.914c2.742,21.938,9.492,42.609,19.617,61.172
				l-66.656,47.461c-27-28.266-64.758-45.773-106.734-45.773c-38.18,0-73.195,14.555-99.352,38.602l-69.398-56.953
				c11.18-19.406,17.719-41.766,17.719-65.602c0-28.477-9.07-54.844-24.68-76.359l57.586-57.586c8.227-8.227,8.227-21.516,0-29.742
				c-8.227-8.227-21.516-8.227-29.742,0l-57.586,57.586c-21.727-15.609-48.094-24.68-76.57-24.68
				c-72.141,0-130.781,58.641-130.781,130.781c0,64.969,47.672,118.969,109.688,129.094v116.859
				c0,11.602,9.492,21.094,21.094,21.094s21.094-9.492,21.094-21.094v-116.86c24.68-4.008,47.039-14.977,65.18-30.797l69.398,56.953
				c-13.5,22.359-21.305,48.516-21.305,76.57c0,81.422,66.234,147.656,147.656,147.656s147.656-66.234,147.656-147.656
				c0-24.258-5.906-47.25-16.453-67.5l66.656-47.461c27.211,29.742,64.547,49.781,106.523,55.055v74.25
				c0,11.602,9.492,21.094,21.094,21.094s21.094-9.492,21.094-21.094v-74.25c85.43-10.547,151.875-83.32,151.875-171.703
				c0-39.656-13.5-76.359-36.07-105.469L878.641,451.354z M103.656,676.214c-21.727,0-41.555-7.805-56.953-20.672
				c0.633-5.484,4.852-10.125,10.547-11.18l9.703-1.898c9.914,8.016,22.781,13.078,36.703,13.078s26.578-4.852,36.703-13.078
				l9.703,1.898c5.695,1.055,9.703,5.695,10.547,11.18C145.211,668.409,125.383,676.214,103.656,676.214z M87.625,597.112v-24.258
				c0-8.859,7.172-16.031,16.031-16.031s16.031,7.172,16.031,16.031v24.258c0,8.859-7.172,16.031-16.031,16.031
				C94.797,613.354,87.625,605.971,87.625,597.112z M186.766,618.206c-6.75-6.961-15.398-12.023-25.313-14.555
				c0.211-2.109,0.422-4.43,0.422-6.539v-24.258c0-32.063-26.156-58.219-58.219-58.219s-58.219,26.156-58.219,58.219v24.258
				c0,2.109,0.211,4.43,0.422,6.539c-9.703,2.531-18.352,7.594-25.313,14.555c-3.586-9.492-5.484-19.828-5.484-30.586
				c0-48.938,39.656-88.594,88.594-88.594s88.594,39.656,88.594,88.594C192.25,598.378,190.352,608.714,186.766,618.206z
				 M385.68,924.698c-26.367,0-50.414-9.703-68.977-25.734c0.211-8.648,6.328-15.82,14.977-17.508l12.867-2.32
				c11.18,9.492,25.523,15.188,41.344,15.188c15.82,0,30.164-5.695,41.344-15.188l12.867,2.32
				c8.438,1.688,14.766,8.859,14.977,17.508C436.094,914.995,412.047,924.698,385.68,924.698z M363.742,830.409v-27.844
				c0-12.023,9.703-21.727,21.727-21.727c12.023,0,21.727,9.703,21.727,21.727v27.844c0,12.023-9.703,21.727-21.727,21.727
				S363.742,842.432,363.742,830.409z M482.711,860.573c-8.438-10.125-20.25-17.508-33.75-20.25
				c0.422-3.164,0.844-6.539,0.844-9.914v-27.844c0-35.227-28.688-63.914-63.914-63.914s-63.914,28.688-63.914,63.914v27.844
				c0,3.375,0.211,6.75,0.844,9.914c-13.5,2.953-25.313,10.125-33.75,20.25c-5.484-12.656-8.438-26.578-8.438-41.344
				c0-58.219,47.25-105.469,105.469-105.469s105.469,47.25,105.469,105.469C491.148,833.995,487.984,847.917,482.711,860.573z
				 M798.273,685.073c-23.203,20.672-53.578,33.328-87.117,33.328c-33.328,0-63.914-12.656-87.117-33.328v-1.266
				c0-12.656,9.07-23.414,21.305-25.734l17.297-3.164c12.867,11.602,29.742,18.563,48.305,18.563
				c18.562,0,35.648-6.961,48.305-18.563l17.297,3.164c12.445,2.32,21.305,13.078,21.305,25.734v1.266H798.273z M680.781,600.909
				V567.37c0-16.664,13.711-30.375,30.375-30.375s30.375,13.711,30.375,30.375v33.539c0,16.664-13.711,30.375-30.375,30.375
				C694.281,631.284,680.781,617.573,680.781,600.909z M828.438,645.206c-9.914-14.555-25.523-25.313-43.875-28.688l-2.531-0.422
				c1.055-4.852,1.688-10.125,1.688-15.398v-33.539c0-40.078-32.484-72.563-72.563-72.563s-72.563,32.484-72.563,72.563v33.539
				c0,5.273,0.633,10.336,1.688,15.398l-2.531,0.422c-18.352,3.375-33.961,14.133-43.875,28.688
				c-8.648-17.508-13.5-36.914-13.5-57.586c0-72.141,58.641-130.781,130.781-130.781S841.938,515.48,841.938,587.62
				C841.938,608.292,837.086,627.909,828.438,645.206z"/>
		</g>
	</g>
	<g>
		<g>
			<path fill="#F2B336" d="M118.633,905.081c-4.008-4.008-9.281-6.117-14.977-6.117c-5.484,0-10.969,2.32-14.977,6.117
				c-4.008,4.008-6.117,9.281-6.117,14.977c0,5.695,2.32,10.969,6.117,14.977c4.008,4.008,9.281,6.117,14.977,6.117
				c5.484,0,10.969-2.32,14.977-6.117c4.008-4.008,6.117-9.281,6.117-14.977C124.75,914.362,122.43,908.878,118.633,905.081z"/>
		</g>
	</g>
	<g>
		<g>
			<path fill="#F2B336" d="M450.016,1081.214c0-11.602-9.492-21.094-21.094-21.094h-0.844c-11.602,0-21.094,9.492-21.094,21.094
				c0,1.477,0.211,2.742,0.422,4.219c0,0,0,0,0,0.211c0,5.484,2.32,10.969,6.117,14.977c4.008,4.008,9.281,6.117,14.977,6.117
				c5.484,0,10.969-2.32,14.977-6.117c4.008-4.008,6.117-9.281,6.117-14.977c0,0,0,0,0-0.211
				C449.805,1083.957,450.016,1082.69,450.016,1081.214z"/>
		</g>
	</g>
</g>
</svg>
