<svg xmlns="http://www.w3.org/2000/svg" viewBox="0 0 67.98 48.82"><defs><style>.cls-1{fill:#ccc;fill-rule:evenodd;}.cls-2{fill:#0066a6;}.cls-3{fill:none;stroke:#0066a6;stroke-linejoin:bevel;stroke-width:0.5px;}</style></defs><title>icon_digital</title><g id="Camada_2" data-name="Camada 2"><g id="Camada_1-2" data-name="Camada 1"><path id="path17" class="cls-1" d="M.1,45.74l.12-.12,0-.1,0-.15.21-.06.13-.08,0-.08H.74l0-.08.06,0L1.1,45V44.6l.15-.05-.06-.14.16-.14-.05-.08,0-.13L1.26,44l.13-.2-.08,0v-.12l-.1,0v0l.07-.14,0-.11v-.14l.12-.1-.08-.15.14-.09,0-.34.07-.13v0l0-.06.1-.19-.17-.2.17-.1v-.23l.09,0,.08-.07h0l.28.08.1-.08.07,0,0-.08.13-.1h0l0-.14.14-.28,0,0,.37-.2,0,0,.13-.09.12.09h.07l.08,0,.14.08h0l.24-.34.25.18.34-.24v0l.06-.11v0l.11-.05.38-.35.11,0,.42-.18.36.19L6,39.76H6l0-.07.22-.22.24-.07.24-.25L6.82,39H7l.08.1,0,.09-.08.19.08,0v.12l.09,0,.07.17.29-.12.11-.07.12-.07L8,39.21l.08-.08.15-.06H8.4l0,.11.17,0,.08.11H8.9l.83-.37.1,0,0,.16h0l0-.06.05-.1.36-.23.17,0,.07.14.2-.09,0,0,.14-.47.27,0,0,0,0-.1v-.13l-.09,0-.15,0,0-.11-.06,0v-.2l.12-.2.2,0-.05-.12.25-.29.44,0,.06-.14h-.06l0-.15.12,0,.2,0,.12-.1.06-.1,0-.17.13-.08L12.5,36l.09-.07-.1-.15-.13-.23-.28-.2h0l.11-.18L12.07,35h-.13l-.09-.08V34.7h-.12l-.13.07-.14-.26-.1.09-.26,0-.11.1-.3-.21-.2.06-.05.11-.17-.14v-.08h-.17L10,34.33l-.1,0-.14-.16-.24,0-.06,0-.07,0,0,.13-.06,0,0,.07,0,.19-.12.09-.09,0v-.35L9,34.3,9,34.23l.17-.16L9.08,34,9,34l-.22-.12H8.6l-.07.15-.24.13.08.06v.16l.1,0-.11.08h0l-.17-.11-.23-.07-.21.11-.08.12-.13,0-.17.12-.23-.06L7,34.49l-.07,0v0l.05.07-.34.47-.06.09L6.47,35H6.18l0,0,0,.13-.06,0,0-.1.19-.24-.12-.07-.06,0-.21-.21-.24.09-.18-.17-.19.44-.12,0L5,34.61l-.08,0,0,.12-.09,0-.21-.21-.19.07h0l-.17-.12,0-.34L4.27,34v-.34l-.11-.12,0,.08-.2-.12-.26.2h0l0-.31.09-.09v0L3.61,33l0,0L3.47,33l-.13-.07-.09-.13L3,32.8l.09-.26,0-.13-.14,0-.05-.15,0-.18L2.94,32v-.1l-.17-.45-.18-.27-.26-.21H2.05l-.15-.13-.52-.05.09-.22.18-.13.11,0,.12-.1.07,0,.24-.15H2.5L2.73,30l.12,0,.32.25.24-.06.23.08.21,0,.1.12,0-.09L4.2,30l.06-.21.25-.15,0-.19.16-.07L5,29.26l.22-.07.11.12.17-.07.13.16.31-.17.05.15.17,0,0-.12.22-.15L6.49,29l.27-.11.06-.05.46-.4.11,0,0-.1.07-.08,0-.08.1-.18.16,0,0,0,.07-.06,0,.06.08-.1h0L8,28l.17,0,.33.09.07.18.06.07.06-.09h.12l0-.11.26-.17.15.08.2-.07.06.09.21-.07.05.12.13-.12.22,0,.18-.2,0,.09.09-.08h.15l.13,0v.07l0-.07.08.45.16-.15.07.12.13-.07.07,0,.19-.13v-.11l.19-.13.08.09.09,0,0,.05.22-.2.14-.14v-.1l.12,0,.11-.05v.09h0l.09-.13.09,0,.08-.25.14.13.13-.2.11,0,0-.06h.08l-.06-.16.06-.09,0-.14.07,0,0,.06.22-.1V26.5l.08-.09.17.05,0,.15.05-.15H14l.07-.2.11,0,.44,0,0-.11L15,26l.33.21.13-.12.07,0,.09-.15h.19l0-.06L16,25.8h0l.13,0,.21-.18.75-.25.08-.08h.21v-.24l.15.05V25h.15l.08-.08.24.07.28-.14.19-.09h.1l0-.05,0,0h.17l.4-.3.15,0,.05-.08,0,.18.13.08-.07.07.25.14v.09l.09,0h0l.1,0,.24-.29h.18l0-.08.14,0,.14-.13h.18l.12.3,0,0,.07-.05v0l0-.21.16,0,.07-.12.14,0,.11.05.16.15.13,0,0,.15H22l.06,0,0-.19h.13l.07-.25.07,0,.06-.06.1-.09,0,.35.17.14h.09v0l.05.16h.07L23,24.7l.53-.18.1-.2.1-.05.14.14,0,.15.26,0h.05l.24-.07.23.05.44-.24.15-.09.16,0,.54-.38.33-.24,0-.17.24-.05.08-.1h0l.12.12h.15l.16-.08h0l.06.17.28.07.35-.16.19,0,.12-.07.13.06.14-.09.18.11v.18l0,0,.11.08.09.06.16,0,.18-.09,0,.19.05,0,.56-.27h.09l0,.11.13.07.13,0,.07.05.22-.07,0,.1,0,.18v0l-.11.23-.27.24-.07.12.16.42.15.17.16-.09.08-.26.27-.13.3.07.2-.07.06.18.37-.21.34-.31v-.11L32,24.16V24l.22-.11.36-.14h0l.18.05.47-.39h.12l.21-.17.66-.29.45-.44v-.14l.63-.21.95-.33.41-.19.21-.1.63-.35.7-.33.17-.08.38-.15.45-.14.21-.13.06.05.14,0,.28-.14,0-.15.82-.37,1.22-.58.06,0,1.2-.47.15-.13.1-.09.35-.12.36.08.41-.2.08-.11.7-.29h-.09l.1-.11-.1-.09v0l.09-.14-.07-.25-.07-.09-.14.08L45,17l.07,0-.13-.12-.2-.17-.12.08-.13-.08-.07.11-.07-.08-.12.09h-.16l0-.1-.07-.23-.14.07h-.18l-.06-.12.23-.26-.06-.08-.1.05,0,0,0,0v0l.26-.49.12-.17.35-.25,0-.14-.06,0,.34-.15h0v-.09l.13-.14-.06-.19.16-.1.18.06,0,0,0,0,.17-.36.23-.14.12-.06V13.6l-.33-.26,0-.13L44.88,13l.15-.25,0-.08.11-.13,0-.05.09-.08-.06-.33.2-.2.12.19.25-.08.12-.08,0-.17-.21,0,0-.07.2-.16,0-.09.21-.12,0-.23L46,11l-.11-.14.21-.11L46,10.58l-.13-.06,0-.12.14-.2V9.75l0-.07.07-.06,0,0,.16-.07.15-.19.17-.16.08-.06-.09-.2.1-.18,0-.11-.1,0-.09-.09,0-.22.11-.15-.23-.44.15-.09,0-.11.08-.06,0-.08.09-.23.19-.13.07-.15L47,6.83V6.57l.11-.25.42,0,0-.06,0-.11,0-.24.22-.1V5.72l.33-.37,0-.07.06-.12,0-.09.12,0,.24,0v0l0-.08-.06-.13-.3-.16h-.11L48,4.6l0-.14-.16,0-.26-.19V4.18l-.16-.13V3.94l.22-.26.23-.09,0,.07H48V3.49l.11-.05.26-.21.12,0h.37l.34-.09.13-.11h.18l.08,0,.32.12L50,3l.39.17L50.3,3l.12-.12h.09l.05-.19-.05-.13,0-.13.08-.19.17-.16-.07-.16.08-.14.24-.07.07-.12,0-.05.06-.13-.16-.18L51.23.7l0-.12.22,0,.16.07h.1l.07-.13.19-.08L52,.27V.19l.09-.07,0-.07h0l0,0L52.47,0l.1.2.19.13.2.13L52.91.6l.2.09.17-.07-.12.15h.22L53.5.65l.32,0,.14,0L54,.8h.13l.1.19,0-.05h0l.11.07,0,.14.06,0,0,.05.07.12-.15.3.09.25,0,.13L54.63,2l0-.09.25.12-.11.07-.14.33,0,.08h.1L54.73,3l-.22.07,0,.06,0,.26.28.2,0,.4.07.09,0,.16v0h-.09l-.1.2v.16l.12.1v.12l-.13,0,0,.09.07.27.08,0-.07.15-.06,0-.08-.11,0,.06,0,.22v0h.07l.08,0,0,.1-.23.47h0v.06l.11.08.09,0,.11,0,.17,0,0,.07-.22.1v.14l.23.06,0-.11.2-.1h0l.07.12.11,0,.08.09v.14l.1-.12.15,0,0,.15.19.08V7.1l.13,0,.13,0,.18,0,.27.22.1,0,.34-.11.09.31h0l.2.09v.15l.07.06.13-.18h0l.15.18.3-.06.23.13h0l.08-.18.06,0h0l.15.18.17-.1.09.07.07,0v.21l.17.15,0,0,.25.09.11.12.21,0,.31-.3.08,0,0,0,.07.06.06-.07.19.06.1,0h.07l0-.07h.07l0,.13H61l.47.12,0,0,.15.15v-.1h.15v.14l.11,0,.24.29h.14l.06.07,0-.05.11.09,0-.07h.06V8.8h.12l.06.06.08-.2.28-.08.11.09h.11l0,.08.05-.06v.06h.08l0,.06.17.05.12.15,0-.07.07.07h.1l0-.05,0,.13L64,9l.08,0L64,9l.06-.11,0,.08.06,0L64.1,9l.11,0,0,.07.22,0,0,.06,0-.09.05.07V8.92l.25,0,.07-.19.07,0,.25.07.26-.2,0,0,.18-.06,0,.05h.16l.14.16.05,0,.26.17.25.32L66.8,9l.22.08.1,0,.14.27,0,.32,0,0,.17,0,.13-.11,0,.11,0,0h.06l.07.09.1,0,0,.08.12.07h0l-.06.27-.08.48.08.33-.09,0-.3.57-.09,0-.16.14-.17.4-.29.47-.24.3-.17.11-.29.38-.17.52,0,.55.25.77.15.2.28.15h.2l.12.08,0-.07.08.13-.25,1.29,0,.76.29,1.43.5,2.22.11.59v.44l-.18.55-.14.18-.29.24L66.4,24l-.57.32-.87.6-.46.36-.79.41-.67.28-.91.28-2.26.63-1,.31-.95.39-.66.28-.49.23-.32.14-1.13.61-.1.07-.8.69-.17.09-.28.19-.11.16,0,.19.13.06-.06.13.05.09-.35.18,0,0-.47.32-.42.35-.17.21-.11.23-.07.34-.11,0-.17.19-.22,0-.15.14-.3.42,0,.18-.22.21H51l-.1-.17-.24.08-.21.2-.17.36-.17.68-.07,0-.09.21,0,.86v.25l.2.93.2.24.32,0,0,.1.24.4.21.17.21.06.11,0,0-.11,0-.13h.13l.08-.08.21.06.1-.08V37l.12,0,0-.08.09.08-.11.18.18.05,0,.14-.09,0-.06.1,0-.1,0,.27-.11-.13-.06,0,.12.26h-.06l0-.13-.16.16,0-.1-.09,0,0-.08h-.08l-.2.14-.15.2,0,.13.09.08,0,.1-.2-.08-.06.07-.43.16-.28.5v.26l.06.08.07,0-.09.07.05.08-.18.17-.14,0,0,.09-.06-.08-.12,0-.2.18-.12.2-.09.37v.19l.07.23h.18l-.07.18.07.1.12-.12.2-.09,0,0-.12.06,0,.09,0,.05.06-.06.11,0-.11.18-.18-.1,0,0,.06.07h-.12v.15h.15l.05.08-.09.09v.18l-.08-.21-.29-.14v-.15l-.15-.11-.58-.18-3.71-.3-1.31-.07h-1l-1,0h-.23l-.29-.07h-1.3l-.88.07-.64.13-.16.08,0,.19-.11.07-.09-.08-.29,0-1.74.12-1.06.07-.74.16-.67-.07-.64,0-.3,0,0,0v0l-.16,0-.06.1-.11-.09H32l-.19.12,0-.1.07-.09-.13-.17-.5-.15-.49,0-.07-.14h-.08l0-.15h-.31l.15-.06,0-.22h.05l.09.15.07,0,0,.06.1.09.11,0,.12-.18v-.19h-.27l-.1-.2-.13,0-.12.1-.1-.16.22-.2,0-.13-.14-.05.08-.11.14,0,0,.09.1,0,0-.24.16-.2.17-.32L31,38.81l0-.13.26-.16.25-.31-.22-.06,0-.23.2-.14,0-.2.1-.09.58-.32,0-.09-.07-.17.06-.16-.12-.15,0-.12.06-.09h.09L32,36.26l.06-.11L32,36.08l0,.05L31.89,36l-.11.08L31.7,36l0,.06-.16,0-.35-.17-.11.14-.21.05h-.06l0,.13,0,0-.08-.08,0,.1-.07,0v.19l-.17.15h-.13l-.13-.12H30l-.21.06,0,.07-.27.11-.58.13.05.07-.06.09-.2.08L28.58,37l0,.08-.11,0-.08.1,0,.07-.18.13-.1,0,.08.08-.3.23,0,0-.13.13v.09l-.19.28v.14l.08.16.16-.11,0,.14.14.08.2.27.21.13.08.33-.06.13.08.16.13-.11.08.08.05,0,.09.05.15-.14.14.15-.18.2.05.11.33-.09.17.06,0,.06.06,0V40l.07,0,.13,0-.08,0-.09,0,.14.15h.12l0,.15h.07l-.06.08-.15,0-.06,0,0,.06,0,0,0,.11-.06.17,0,.11-.1.12h-.1v.07l.17.07.14-.15.19-.1-.08.1.1.13-.24.07.07.06v.07l0,.05h-.16l-.27.17-.05.16.09.08-.1,0-.07.06-.52,0-.39.24-.55,0-.2.13,0,.12h-.18l0-.09-.13-.06-.08-.14-.25-.12-.05-.08-.19,0-.14-.14-.37-.16-.21,0-.12,0-.19.19-.17-.16,0,.07.05.12-.05-.09-.15.13h0v0l.09.05.29-.08,0,.09-.07,0h.06l.06-.08,0-.14.12-.08.48.05.15.07h-.22l.13,0,.05.09-.08,0-.11-.07,0,.07.41,0h.22l0,.1h.15l0,.09.26.11-.18.06-.9-.09L25,42.33l-.39.13-.08.08,0,.08-.09-.1-.34,0-.23.15,0,.09-.49.07V43l-.22.11,0,.17,0,0-.07.07,0-.07-.17,0-.12,0,.06,0V43.1L22.67,43l-.3-.1-1.27,0-1.9.15-1.4.2-1.67.29-.53.27-.16,0,0-.08-.19-.06v-.21l-.07-.07.1-.13.12,0,.11-.09,0-.19.12,0,.18-.26.33-.1.1.17.3.16h.22l.34.19h.24l.12-.12v-.25l-.05-.11-.23-.18L17,42.41l-.08-.11.09.1.27.12.47.22.63.26.59.06,1.42-.12.78-.22.9-.21.15.06.05.1.6.25,0,.2.17-.26,0-.09H22.9v.14l-.13-.07-.14-.19v.07l-.15-.14h0l-.15-.06-.1-.18L22,42.19l-.16-.13-.24,0L21.52,42l-.16,0-.2-.3-.22-.12-.16.12-.05.1-.1-.13-.1,0-.21-.3-.13.07,0-.14-.17-.19-.6-.39v-.1l-.07,0-.16-.14,0-.06-.16,0-.17-.11-.19-.06-.18.09v-.13l-.13,0,.06.2-.23.14-.16,0,0-.08-.14,0,0-.07-.06,0,.31-.1.06-.08-.07-.1-.34,0-.25.06-.16.12-.08.19H17.2l-.28.15-.36,0-.17,0-.18-.07-.24.15-.21-.06-.2.08-.11.1-.09,0,0-.08-.15.22L15,41.1v.12l-.14,0-.07.31-.21.06-.16-.08.24-.32-.06-.12.11-.11-.12-.23-.29.2-.2,0-.12.13h0l.06,0,0,.09.11.14-.11.35-.26.09V42l-.29.32-.46.22-.16,0-.07.09-.06-.14h-.17l-.17.08v.09l.07,0,0,.09-.1,0,0-.1,0,.1v0l-.17,0,0-.07,0-.16-.12-.07-.53.27h0l-.09.06-.11,0,0-.08-.07,0v0l.12-.09.14-.34.25-.17,0-.11-.14,0-.21-.25-.1,0v-.1l-.23.22-.1-.11-.13.09-.08.13,0,.07-.11-.05-.08,0,0,.14-.14,0-.13,0,.14-.3L10.11,42l-.06.09-.16,0v.12l-.06-.09-.05.1H9.7l0,.11h-.1l-.07.09-.07-.06-.17.15v-.15l-.13,0v-.06l-.07,0,0-.14h0l.1,0,0-.18.16-.14.29,0v-.2l.09,0,.05.07.19-.11,0-.14.11-.17h.07l0-.08,0,0-.18,0-.1,0-.19.08-.05.11-.06,0,0-.14.15-.06H9.61v-.15l.18-.07.05-.08h-.1l0-.14-.08-.06,0-.05-.1.08-.13-.1H9.36l-.1.16-.1-.14H9.07l.06,0-.1.09.11,0L9,40.74l0,.14,0,.06.06-.15.24.11-.16.2-.06,0-.07.1-.1,0,0,.15-.06.05-.05-.06,0,.12-.06-.06.15-.19L8.59,41l-.26,0-.08-.2,0,.08L8.06,41v.16l-.06,0v.1H7.88l0,.18.09.11-.07,0v.15l-.1.08,0,.07.15,0,.08.08L7.79,42l-.14.18.1.16h.17l-.25.13-.13-.21-.13,0,0-.14L7.37,42h-.1v.09L7.13,42l-.12,0-.11.23-.27.19-.1-.07H6.21l-.36.18-.17,0-.14.16-.13,0,0,.11L5.24,43l0,0-.26.1.14-.21v-.06l-.1-.07-.2.09-.06,0,0,.06v-.11l-.08,0-.35.17v-.07l-.11,0L4.12,43,4,42.89,3.93,43l-.11-.06-.17.19,0,.14H3.55l-.08.12,0,.05-.09,0,.06.15-.09,0-.06.18,0,.35.18.11-.06.08H3.29v.21l.1.06-.1.17-.12,0,0,.19.14,0v.1l-.2,0,0,.12-.08,0,0,0,.14,0L3,45.48l0,.07H3l-.05.15.13.19h.05l0,.16-.09,0,.06.08-.05.15h.12l.09,0h.09l.08-.19.11,0L3.68,46l0-.08-.07,0,.1,0,0-.09.05.06,0-.05H4l.13-.36.14,0,0,.2h.3v.11l.19,0-.19.16,0,.15-.06.06-.09,0,0-.09-.12,0,.08-.15-.25.2,0-.08-.17-.06.06.14-.08.12L4,46.12l0,.06-.2.14-.1-.08-.1.15.1,0-.08,0-.09,0,0,0,.09.08-.23.12h.23l.16-.15v.09l.11,0L4,46.41l.13-.08h.23l.07.1.36-.11-.2.19-.29.61L4,47.4l0,.06.28.1-.07-.09,0-.1.08-.06.06,0,.11-.13.19-.47.41-.27,0-.12,0,0h.38l.25-.13v.09l-.27.24,0,.16-.15.24.08.09.06,0,.29.08.14,0,0,.07.2-.14.32.25,0,.07.08,0,0,.11h.13l0,.1-.12.09-.06-.17-.27-.08-.11.09L6,47.65l0,0-.15.09-.09,0L5.59,48l.06.13-.36.5-.14.09L5,48.66l-.11.15,0,0v-.33H4.77l-.09.06,0-.17-.08,0-.08.17-.1.05.09-.26-.2-.11-.13,0-.07.13-.17,0,0,.16-.21-.05-.07-.19-.1.09v.14l-.09.08v-.07l-.26-.14L3,48.43l-.07.12h.05l0,.06-.11,0-.07.09.13.16-.17-.08-.15-.11H2.41l-.18-.3-.31-.06,0-.1L1.85,48l0-.2-.13-.18v-.12h0l-.32-.17,0-.12-.34.14,0-.19-.06,0L1,47l-.17-.12.06-.13-.3-.14H.24l-.06-.31H.06L0,46.12.13,46Zm2.81,2.91h0v0h0Zm52.36-18h0v0h.06v0h-.07v0h0Zm-.24.21v-.06l.14-.08.07.08-.09.05.06.13h-.12Zm-50,12.31h0v0h0ZM3.6,44h0Zm.13,4.64h0v0h0Zm2.19-5.74h0v0H6v0l0,0Zm-.66,3h0Zm-.34-2.69H5v0h0v0h0ZM3.62,44.3h0l0,0h0v0h0ZM3.46,44v0h0Zm.31,2.44h0Zm-.23-1.15h0v0h0l0,0h0Zm2,1.69h0v0h0l0,0h0l0,0h0Zm-.43-3.36v0l0,0h0v0l0,0h0Zm.58-.67v0h0v0h0Zm-1.91.87v0h.06v0h0Zm-.25.57h.06v0H3.48Zm1-1.3h0ZM13,42.72h0v0l0,0h0v0h0ZM5.73,46.09v0h0v0h0ZM4.42,43.22h0l0,0H4.43v0h0ZM4.57,43h0ZM3.38,46h.06V46H3.38Zm9.2-3.29h0v0h0l0,.06h0v0h0ZM5.5,48.54h0l0,0v0h0v0h0l0,0h0ZM3.86,45v0h0v0h0v0h0Zm-.21-.92v0h.06v0H3.65ZM4,45.39l0,0H4v0H4v.07H4v0H4Zm1.31.29v0h.08v0h0l0,0h0v0Zm-.43-2.57h0v0l0,0,.06,0H5l0,0h0v0l0,0v0h0Zm.56,2.37h0v0h0v0h.06v0h0v0h0v0h0l0,0h0Zm7.71-2.82h0v0h0l0,0h.08v0h0v0h-.12Zm-9,3.59v0h0v0h.16l0,0h.06v0h0l0,0H4.14Zm.07-3h0l0,0v0h.08l0,0h0v0h0l0,0h0l0,0h0v0Zm1.4-.15h0V43h0l0,0h.08v0H5.75l0,0h0v0h-.1v0h0v0ZM3.35,44.92v-.07l.18-.09,0,.1-.17.24Zm1.3,1.15L4.91,46l.19-.24.11.08.06,0,0,.09L5,46l0,.1-.28,0ZM11,45.76l-.13,0,.11-.1-.07-.14-.26.14.08-.18-.12-.15-.19-.06v0h-.29l-.28.15.05.08-.28.38,0,.24-.27.06L9.49,46l-.2,0v0l0-.15.17-.28,0-.17-.07,0-.21.2-.07-.24-.2.08-.08-.11v-.1L9,45l.13,0,.12-.11.09,0,.16-.14.23,0,.11-.2-.08-.08.13-.08.09,0,0-.09.06-.15.26-.2,0,.33h.11v.1h.1l.08-.2.11-.05,0-.11.26,0,0-.07.14-.05,0-.18h-.14l.38-.13v-.14h.08v.07l.35,0,.06,0v.11H12l0,.09h.08l-.17.11-.08-.09-.22,0,0,.08.13,0,0-.07.09.22.08,0,.37-.08.11,0-.06.19,0,.17.09.08.16-.06,0-.06.11,0,.08-.18.35-.1,0,.08-.13.13-.14.16,0,.12h.1l-.13.2,0,.06.13-.07.28-.14,0,.11.16.19.28,0-.06.16-.24.06-.14.14-.2,0h-.05l.05-.08.08-.1-.1-.13L13,45.06l-.38.07-.2.26-.12-.1h-.14l-.07.15.13,0v.07l-.25.17v-.12l-.18-.1-.34.07-.09.07h-.22Zm18.32-3.27h0v0h0v0ZM23.85,43h0Zm-9.22-1.26h0l0,0h0Zm-1.17.65h0Zm15.76,1h0v0h0ZM17.68,40.89h0v0h0Zm-1.75,0h0v0h0Zm.06,0h0v0h0Zm11.87,1.61h0v0h0ZM16.16,42h0v0h0v0Zm11.29.57,0,0h0v0h0ZM16.2,41.16h.08v0h0l-.05,0h0Zm6.72,2.27h0l0,0h0l0,0h0v0h0Zm6.36-1h0Zm-1.94.22h0l0,0h.06v0h-.08Zm-11.17-.26h0v0h0v0h0Zm12.92,0Zm-12.81,0h0v0h0v0h0l0,0h0Zm.41-.68h0l0,0h.06v0h0l0,0h0Zm.19.12h0v0h0l0,0h0v0l0,.06h-.05Zm12.18.89h0v0h.15l0,0h-.06l0,0h-.05Zm-12.32-1.8h0v0h0v0h0l0,0h0v0h0l0,0,0,0h0ZM16.15,42h.09l0,0h0v0h0v0h0Zm7.61,1.12h.09l0,0h-.11Zm6.31-.09h0l0,0h0l0,0H30.1v-.06h0ZM16.84,41.54H17v0l0,0h-.08v-.06Zm12.38,1.68,0,0,0,0h.05v.07h0l0,0h-.06Zm-11.5-2.13h0v0h-.05v0l0,0h0l0,0h0v0h0v0h.06v0h0v0h0v0h-.09Zm13-3.53.06-.17-.05-.1.07-.1h.06l0,.08-.08.12.08.11-.09.09ZM14.46,42l0-.07.26-.1.08.21-.14.07L14.62,42l-.07.09Zm2,0v-.12l.1-.05.05-.12.18,0,0,.11-.15.12-.15.28ZM29,39.27l-.19,0,.1.11,0,.07h-.08l0-.07h-.19l0-.08h-.06l0-.07-.13-.38.14,0,.11,0,.09,0,0,.17-.08-.13-.11.07,0,.11.13.14ZM17.36,40.55l.05-.06.24,0-.17.28.05,0,0,.09.06,0-.12.06-.07-.05-.21.2H17l-.08,0,.07-.16-.12-.1v-.14l.17-.08.14.06,0-.1.1,0ZM29.76,38l-.25.21.08.06,0,.25.19.06-.13.15-.07-.14-.15.18-.11-.23-.22,0-.1-.09-.3.1-.26.24-.12-.07,0-.08-.2-.11-.08-.17.07-.12.14.08h.13v-.13l.23-.24v-.1l.19.06.18.16.28,0,.05,0,0-.14.12-.1h.08l.06-.1.05,0,0,.13.09-.11.15,0v.16Z"/><circle class="cls-2" cx="52.72" cy="19.14" r="2.32"/><circle class="cls-2" cx="16.26" cy="32.02" r="2.17"/><circle class="cls-2" cx="35.61" cy="32.72" r="2.25"/><circle class="cls-2" cx="43.21" cy="10.3" r="1.71"/><circle class="cls-2" cx="39.07" cy="21.79" r="1.56"/><circle class="cls-2" cx="64.29" cy="20.23" r="1.28"/><polyline class="cls-3" points="39.07 21.79 43.27 10.3 52.72 19.14 35.61 32.72 64.29 20.23 52.72 19.14 39.07 21.79 35.61 32.72 16.26 32.02"/></g></g></svg>