<?xml version="1.0" encoding="utf-8"?>
<!-- Generator: Adobe Illustrator 17.0.0, SVG Export Plug-In . SVG Version: 6.00 Build 0)  -->
<!DOCTYPE svg PUBLIC "-//W3C//DTD SVG 1.1//EN" "http://www.w3.org/Graphics/SVG/1.1/DTD/svg11.dtd">
<svg version="1.1" id="Capa_1" xmlns="http://www.w3.org/2000/svg" xmlns:xlink="http://www.w3.org/1999/xlink" x="0px" y="0px"
	 width="1464px" height="1464px" viewBox="-256.461 117.735 1464 1464" enable-background="new -256.461 117.735 1464 1464"
	 xml:space="preserve">
<g>
	<g>
		<g>
			<path fill="#F2B336" d="M992.864,1344.7H-41.996c-12.445,0-22.57,10.125-22.57,22.57c0,12.446,10.125,22.36,22.57,22.36h1035.07
				c12.445,0,22.57-10.125,22.57-22.57C1015.434,1354.614,1005.309,1344.7,992.864,1344.7z"/>
		</g>
	</g>
	<g>
		<g>
			<path fill="#F2B336" d="M137.934,1074.7h-135c-12.445,0-22.57,10.125-22.57,22.57v270c0,12.445,10.125,22.57,22.57,22.57h135
				c12.445,0,22.57-10.125,22.57-22.57v-270C160.504,1084.614,150.379,1074.7,137.934,1074.7z M115.364,1344.7h-89.86v-225.07h90.07
				L115.364,1344.7L115.364,1344.7z"/>
		</g>
	</g>
	<g>
		<g>
			<path fill="#F2B336" d="M407.934,849.63h-135c-12.445,0-22.57,10.125-22.57,22.57v495.07c0,12.445,10.125,22.57,22.57,22.57h135
				c12.445,0,22.57-10.125,22.57-22.57V872.2C430.504,859.755,420.379,849.63,407.934,849.63z M385.364,1344.7h-90.07V894.56h90.07
				V1344.7L385.364,1344.7z"/>
		</g>
	</g>
	<g>
		<g>
			<path fill="#F2B336" d="M677.934,939.7h-135c-12.445,0-22.57,10.125-22.57,22.57v405c0,12.445,10.125,22.57,22.57,22.57h135
				c12.445,0,22.57-10.125,22.57-22.57v-405C700.504,949.614,690.379,939.7,677.934,939.7z M655.364,1344.7h-90.07V984.63h90.07
				V1344.7z"/>
		</g>
	</g>
	<g>
		<g>
			<path fill="#F2B336" d="M947.934,669.7h-135c-12.445,0-22.57,10.125-22.57,22.57v675c0,12.445,10.125,22.57,22.57,22.57h135
				c12.445,0,22.57-10.125,22.57-22.57v-675C970.504,679.614,960.379,669.7,947.934,669.7z M925.364,1344.7h-90.07V714.63h90.07
				V1344.7z"/>
		</g>
	</g>
	<g>
		<g>
			<path fill="#51AACC" d="M70.434,714.63c-49.57,0-90.07,40.289-90.07,90.07s40.289,90.07,90.07,90.07s90.07-40.289,90.07-90.07
				S120.004,714.63,70.434,714.63z M70.434,849.63c-24.891,0-44.93-20.25-44.93-44.93c0-24.891,20.25-44.93,44.93-44.93
				s44.93,20.25,44.93,44.93S95.325,849.63,70.434,849.63z"/>
		</g>
	</g>
	<g>
		<g>
			<path fill="#51AACC" d="M340.434,489.56c-49.57,0-90.07,40.289-90.07,90.07s40.289,90.07,90.07,90.07s90.07-40.289,90.07-90.07
				C430.504,530.06,390.004,489.56,340.434,489.56z M340.434,624.56c-24.891,0-44.93-20.25-44.93-44.93
				c0-24.891,20.25-44.93,44.93-44.93s44.93,20.25,44.93,44.93C385.364,604.521,365.325,624.56,340.434,624.56z"/>
		</g>
	</g>
	<g>
		<g>
			<path fill="#51AACC" d="M610.434,579.63c-49.57,0-90.07,40.289-90.07,90.07s40.289,90.07,90.07,90.07s90.07-40.289,90.07-90.07
				S660.004,579.63,610.434,579.63z M610.434,714.63c-24.891,0-44.93-20.25-44.93-44.93c0-24.891,20.25-44.93,44.93-44.93
				c24.68,0,44.93,20.25,44.93,44.93S635.325,714.63,610.434,714.63z"/>
		</g>
	</g>
	<g>
		<g>
			<path fill="#51AACC" d="M880.434,309.63c-49.57,0-90.07,40.289-90.07,90.07s40.289,90.07,90.07,90.07s90.07-40.289,90.07-90.07
				S930.004,309.63,880.434,309.63z M880.434,444.63c-24.891,0-44.93-20.25-44.93-44.93c0-24.891,20.25-44.93,44.93-44.93
				c24.68,0,44.93,20.25,44.93,44.93S905.325,444.63,880.434,444.63z"/>
		</g>
	</g>
	<g>
		<g>
			<path fill="#51AACC" d="M848.582,431.341c-8.859-8.859-22.992-8.859-31.852,0L642.075,605.997
				c-8.859,8.859-8.859,22.992,0,31.852c4.43,4.43,10.125,6.539,16.031,6.539c5.695,0,11.391-2.109,15.82-6.539l174.656-174.656
				C857.442,454.544,857.442,440.2,848.582,431.341z"/>
		</g>
	</g>
	<g>
		<g>
			<path fill="#51AACC" d="M556.012,617.599L411.52,576.466c-12.023-3.586-24.469,3.586-27.844,15.398
				c-3.375,12.023,3.586,24.469,15.398,27.844l144.492,41.133c2.109,0.633,4.219,0.844,6.117,0.844
				c9.914,0,18.773-6.539,21.727-16.242C574.997,633.63,568.036,621.185,556.012,617.599z"/>
		</g>
	</g>
	<g>
		<g>
			<path fill="#51AACC" d="M305.418,607.685c-7.805-9.703-21.938-11.391-31.641-3.586L104.184,739.31
				c-9.703,7.805-11.391,21.938-3.586,31.641c4.43,5.484,10.969,8.438,17.508,8.438c4.852,0,9.914-1.688,13.922-4.852
				l169.594-135.211C311.536,631.521,313.223,617.388,305.418,607.685z"/>
		</g>
	</g>
</g>
</svg>
