<?xml version="1.0" encoding="utf-8"?>
<!-- Generator: Adobe Illustrator 22.1.0, SVG Export Plug-In . SVG Version: 6.00 Build 0)  -->
<svg version="1.1" id="Layer_1" xmlns="http://www.w3.org/2000/svg" xmlns:xlink="http://www.w3.org/1999/xlink" x="0px" y="0px"
	 viewBox="0 0 396.3 396.3" style="enable-background:new 0 0 396.3 396.3;" xml:space="preserve">
<style type="text/css">
	.st0{fill:#FFFFFF;}
	.st1{fill:#F2B336;}
	.st2{fill:#F16051;}
	.st3{fill:#51AACC;}
</style>
<rect x="86.8" y="142.2" class="st0" width="222.6" height="111.3"/>
<g>
	<rect x="120.8" y="191.7" class="st1" width="12.3" height="12.3"/>
	<rect x="156.6" y="191.7" class="st1" width="12.3" height="12.3"/>
	<rect x="191.9" y="191.7" class="st1" width="12.3" height="12.3"/>
	<rect x="227.1" y="191.7" class="st1" width="12.3" height="12.3"/>
	<rect x="263" y="191.7" class="st1" width="12.3" height="12.3"/>
	<rect x="358.8" y="156.4" class="st1" width="12.3" height="12.3"/>
	<rect x="358.8" y="191.7" class="st1" width="12.3" height="12.3"/>
	<rect x="358.8" y="226.9" class="st1" width="12.3" height="12.3"/>
	<rect x="25" y="156.4" class="st1" width="12.3" height="12.3"/>
	<rect x="25" y="191.7" class="st1" width="12.3" height="12.3"/>
	<rect x="25" y="226.9" class="st1" width="12.3" height="12.3"/>
</g>
<g>
	<circle class="st2" cx="255.5" cy="371" r="18.6"/>
</g>
<path class="st3" d="M377.3,346.9v-60.6H204.3v-26.6h111.3V136.1H204.3v-27.2h173.1v-60c10.5-2.5,18.6-12.3,18.6-24.1
	C396,11.2,384.8,0,371.2,0s-24.8,11.1-24.8,24.8c0,11.8,8,21,18.6,24.1v48.2H261.8V48.9c10.5-2.5,18.6-12.3,18.6-24.1
	c0-13.6-11.1-24.8-24.8-24.8c-13.6,0-24.8,11.1-24.8,24.8c0,11.8,8,21,18.6,24.1v48.2H146.7V48.9c10.5-2.5,18.6-12.3,18.6-24.1
	c0-13.6-11.1-24.8-24.8-24.8c-13.6,0-24.8,11.1-24.8,24.8c0,11.8,8,21,18.6,24.1v48.2H31.2V49.5c-1.2,0-2.5,0-3.7,0
	c12.3-1.2,22.2-11.8,22.2-24.8C49.7,11.2,38.6,0,25,0S0.3,11.2,0.3,24.8c0,11.8,8,21,18.6,24.1v60.6h173.1v26.6H80.6v123.7h111.3
	V287H18.8v60.6c-10.5,2.4-18.6,12.3-18.6,24c0,13.6,11.1,24.8,24.8,24.8s24.8-11.1,24.8-24.8c0-11.8-8-21-18.6-24.1v-48.2h103.2
	v48.2c-10.5,2.5-18.6,12.3-18.6,24.1c0,13.6,11.1,24.8,24.8,24.8c13.6,0,24.8-11.1,24.8-24.8c0-11.8-8-21-18.6-24.1v-48.2h102.6V347
	c-10.6,2.8-18.6,12.5-18.6,23.9c0,13.6,11.1,24.8,24.8,24.8c13.6,0,24.8-11.1,24.8-24.8c0-11.4-7.9-21.2-18.6-23.9v-47.8h103.2v48.2
	c-10.5,2.5-18.6,12.3-18.6,24.1c0,13.6,11.1,24.8,24.8,24.8s24.8-11.1,24.8-24.8C395.9,359.2,387.9,349.9,377.3,346.9z M358.8,24.8
	c0-6.8,5.6-12.3,12.3-12.3c6.8,0,12.3,5.6,12.3,12.3s-5.6,12.3-12.3,12.3C364.3,37.2,358.8,31.6,358.8,24.8z M243.2,24.8
	c0-6.8,5.6-12.3,12.3-12.3c6.8,0,12.3,5.6,12.3,12.3s-5.6,12.3-12.3,12.3C248.8,37.2,243.2,31.6,243.2,24.8z M12.6,24.8
	c0-6.8,5.6-12.3,12.3-12.3S37.3,18,37.3,24.8S31.7,37.2,25,37.2S12.6,31.6,12.6,24.8z M128.2,24.8c0-6.8,5.6-12.3,12.3-12.3
	c6.8,0,12.3,5.6,12.3,12.3s-5.6,12.3-12.3,12.3C133.8,37.2,128.2,31.6,128.2,24.8z M37.4,371c0,6.8-5.6,12.3-12.3,12.3
	s-12.3-5.6-12.3-12.3s5.6-12.3,12.3-12.3S37.4,364.2,37.4,371z M153,371c0,6.8-5.6,12.3-12.3,12.3c-6.8,0-12.3-5.6-12.3-12.3
	s5.6-12.3,12.3-12.3C147.4,358.6,153,364.2,153,371z M93,247.3v-98.9h210.2v98.9H93z M371.2,383.4c-6.8,0-12.3-5.6-12.3-12.3
	c0-6.8,5.6-12.3,12.3-12.3c6.8,0,12.3,5.6,12.3,12.3S378,383.4,371.2,383.4z"/>
<g>
	<circle class="st1" cx="25" cy="24.8" r="24.8"/>
	<circle class="st1" cx="371.2" cy="24.8" r="24.8"/>
	<ellipse transform="matrix(0.181 -0.9835 0.9835 0.181 184.8832 271.659)" class="st1" cx="255.5" cy="24.8" rx="24.8" ry="24.8"/>
	<circle class="st1" cx="140.6" cy="24.8" r="24.8"/>
</g>
</svg>
