<?xml version="1.0" encoding="utf-8"?>
<!-- Generator: Adobe Illustrator 22.1.0, SVG Export Plug-In . SVG Version: 6.00 Build 0)  -->
<svg version="1.1" id="Camada_1" xmlns="http://www.w3.org/2000/svg" xmlns:xlink="http://www.w3.org/1999/xlink" x="0px" y="0px"
	 viewBox="0 0 515.5 142.7" style="enable-background:new 0 0 515.5 142.7;" xml:space="preserve">
<style type="text/css">
	.st0{fill:#51AACC;}
	.st1{fill:#F2B336;}
	.st2{fill:#FFFFFF;}
</style>
<g>
	<path class="st0" d="M27.2,50.6c0,1,0,2,0,3c0,27.8,0,55.5,0,83.3c0,3.3,0,3.3-3.3,3.3c-7.1,0-14.2-0.1-21.4,0
		c-1.9,0-2.6-0.4-2.6-2.5C0.1,96,0,54.3,0.1,12.6C0.1,7,3,3,8.4,1.4C13,0,17.8-0.2,22.6,0.9c3.5,0.8,6.1,3,8.2,5.9
		C48.4,30.2,66,53.7,83.7,77.1c7.6,10.1,15.2,20.2,22.8,30.3c0.5,0.6,1,1.2,1.7,2.1c3-3.9,5.8-7.5,8.6-11.2
		c22.9-30.2,45.8-60.4,68.7-90.6c5.9-7.8,16.2-9.9,24.8-5.1c3.6,2,5.6,4.9,5.6,9.1c0,5.2,0,10.4,0,15.6c0,36.2,0,72.5,0,108.7
		c0,5,0.3,4.1-4.3,4.2c-7,0-13.9-0.1-20.9,0.1c-2,0-2.5-0.6-2.5-2.6c0.1-28.1,0-56.2,0-84.2c0-0.9,0-1.9,0-3.5c-1,1.1-1.5,1.6-2,2.2
		c-21.4,27.9-43,55.7-63.9,84c-6.6,8.9-22.6,8.9-29.2,0c-20.9-28.3-42.5-56.1-63.8-84.1c-0.4-0.6-0.9-1.1-1.4-1.6
		C27.7,50.4,27.5,50.5,27.2,50.6z"/>
	<path class="st0" d="M236.5,71.7c0-21.7,0-43.3,0-65c0-3.4,0-3.4,3.3-3.4c36.2,0,72.5-0.1,108.7,0.1c8.8,0,17.5,0.8,26,3.5
		c12.1,3.9,18.9,12.2,21.2,24.5c2.1,11,1.4,22.1,1.3,33.2c0,4-0.8,7.9-1.5,11.8c-2.4,12.3-10.3,19.5-22.3,21.8
		c-7.2,1.4-14.7,2.3-22.1,2.4c-27.1,0.3-54.2,0.1-81.3,0.1c-3.3,0-3.3,0-3.3,3.2c0,11.2,0,22.4,0,33.6c0,1.9-0.5,2.6-2.5,2.6
		c-8.3-0.1-16.6-0.1-25,0c-2.2,0-2.7-0.7-2.7-2.8C236.6,115.5,236.5,93.6,236.5,71.7z M309.5,29.3c-13.4,0-26.7,0.1-40.1-0.1
		c-2.4,0-2.9,0.7-2.9,3c0.1,13.8,0,27.5,0.1,41.3c0,3.1,0,3.1,3.1,3.1c24.6,0,49.3,0,73.9,0c3.2,0,6.4-0.2,9.6-0.5
		c8-0.7,12.6-4.4,13.3-11.9c0.7-7.7,0.3-15.5-0.2-23.1c-0.5-6.1-4.6-9.7-10.5-10.8c-2.6-0.5-5.4-0.9-8.1-0.9
		C334.9,29.2,322.2,29.3,309.5,29.3z"/>
	<path class="st1" d="M455.3,82c-1.2,0-2.2,0-3.1,0c-11.4,0-22.9,0-34.3,0c-1.9,0-2.5-0.5-2.5-2.4c0.1-5.2,0.1-10.4,0-15.6
		c-0.1-2.1,0.8-2.5,2.6-2.5c11.3,0.1,22.5,0,33.8,0c3.4,0,3.4,0,3.4-3.4c0-11.3,0.1-22.5-0.1-33.8c0-2.2,0.7-2.7,2.7-2.7
		c5,0.1,9.9,0.2,14.9,0c2.4-0.1,3,0.8,2.9,3c-0.1,11.1,0,22.2,0,33.3c0,3.5,0,3.5,3.4,3.5c11.1,0,22.2,0.1,33.3,0
		c2.2,0,3.1,0.5,3,2.9c-0.2,5-0.1,10.1,0,15.1c0.1,2.1-0.7,2.5-2.6,2.5c-11.2-0.1-22.4,0-33.6,0c-3.6,0-3.6,0-3.6,3.7
		c0,11-0.1,21.9,0,32.9c0,2.3-0.6,3.1-3,3c-5-0.2-9.9-0.1-14.9,0c-2.1,0.1-2.7-0.5-2.7-2.7c0.1-11.2,0-22.4,0-33.6
		C455.3,84.4,455.3,83.4,455.3,82z"/>
	<path class="st2" d="M309.5,29.3c12.7,0,25.4-0.1,38.1,0c2.7,0,5.4,0.4,8.1,0.9c6,1.1,10.1,4.7,10.5,10.8
		c0.6,7.7,0.9,15.5,0.2,23.1c-0.6,7.6-5.3,11.2-13.3,11.9c-3.2,0.3-6.4,0.5-9.6,0.5c-24.6,0-49.3,0-73.9,0c-3.1,0-3.1,0-3.1-3.1
		c0-13.8,0.1-27.5-0.1-41.3c0-2.3,0.5-3,2.9-3C282.8,29.3,296.1,29.3,309.5,29.3z"/>
</g>
</svg>
