<?xml version="1.0" encoding="utf-8"?>
<!-- Generator: Adobe Illustrator 17.0.0, SVG Export Plug-In . SVG Version: 6.00 Build 0)  -->
<!DOCTYPE svg PUBLIC "-//W3C//DTD SVG 1.1//EN" "http://www.w3.org/Graphics/SVG/1.1/DTD/svg11.dtd">
<svg version="1.1" id="Layer_1" xmlns="http://www.w3.org/2000/svg" xmlns:xlink="http://www.w3.org/1999/xlink" x="0px" y="0px"
	 width="1460px" height="1464px" viewBox="0 0 1460 1464" enable-background="new 0 0 1460 1464" xml:space="preserve">
<g>
	<rect x="426.684" y="579.389" fill="#FFFFFF" width="606.631" height="303.316"/>
	<g>
		<rect x="519.341" y="714.286" fill="#F2B336" width="33.52" height="33.52"/>
		<rect x="616.904" y="714.286" fill="#F2B336" width="33.52" height="33.52"/>
		<rect x="713.103" y="714.286" fill="#F2B336" width="33.52" height="33.52"/>
		<rect x="809.031" y="714.286" fill="#F2B336" width="33.52" height="33.52"/>
		<rect x="906.866" y="714.286" fill="#F2B336" width="33.52" height="33.52"/>
		<rect x="1167.941" y="618.087" fill="#F2B336" width="33.52" height="33.52"/>
		<rect x="1167.941" y="714.286" fill="#F2B336" width="33.52" height="33.52"/>
		<rect x="1167.941" y="810.214" fill="#F2B336" width="33.52" height="33.52"/>
		<rect x="258.266" y="618.087" fill="#F2B336" width="33.52" height="33.52"/>
		<rect x="258.266" y="714.286" fill="#F2B336" width="33.52" height="33.52"/>
		<rect x="258.266" y="810.214" fill="#F2B336" width="33.52" height="33.52"/>
	</g>
	<g>
		<circle fill="#F16051" cx="886.427" cy="1202.916" r="50.689"/>
	</g>
	<path fill="#51AACC" d="M1218.357,1137.239V972.091H746.896v-72.49h303.316V562.765H746.896v-74.126h471.734V325.127
		c28.615-6.813,50.689-33.52,50.689-65.678c0-37.063-30.522-67.585-67.585-67.585s-67.585,30.25-67.585,67.585
		c0,32.157,21.802,57.229,50.689,65.678v131.355H903.595V325.127c28.615-6.813,50.689-33.52,50.689-65.678
		c0-37.063-30.25-67.585-67.585-67.585c-37.063,0-67.585,30.25-67.585,67.585c0,32.157,21.802,57.229,50.689,65.678v131.355H589.924
		V325.127c28.615-6.813,50.689-33.52,50.689-65.678c0-37.063-30.25-67.585-67.585-67.585c-37.063,0-67.585,30.25-67.585,67.585
		c0,32.157,21.802,57.229,50.689,65.678v131.355h-280.97v-129.72c-3.27,0-6.813,0-10.083,0c33.52-3.27,60.5-32.157,60.5-67.585
		c0-36.79-30.25-67.313-67.313-67.313s-67.312,30.522-67.312,67.585c0,32.157,21.802,57.229,50.689,65.678v165.147h471.733v72.491
		H409.788v337.108h303.316v74.126H241.37v165.148c-28.615,6.54-50.689,33.52-50.689,65.405c0,37.063,30.25,67.585,67.585,67.585
		s67.585-30.25,67.585-67.585c0-32.157-21.802-57.229-50.689-65.677V1007.52h281.241v131.355
		c-28.615,6.813-50.689,33.52-50.689,65.677c0,37.063,30.25,67.585,67.585,67.585c37.063,0,67.585-30.25,67.585-67.585
		c0-32.157-21.802-57.229-50.689-65.677V1007.52h279.606v129.992c-28.887,7.631-50.689,34.065-50.689,65.133
		c0,37.063,30.25,67.585,67.585,67.585c37.063,0,67.585-30.25,67.585-67.585c0-31.067-21.529-57.775-50.689-65.133v-130.265h281.242
		v131.355c-28.615,6.813-50.689,33.52-50.689,65.677c0,37.063,30.25,67.585,67.585,67.585s67.585-30.25,67.585-67.585
		C1269.046,1170.759,1247.244,1145.414,1218.357,1137.239z M1167.941,259.449c0-18.531,15.261-33.52,33.52-33.52
		c18.531,0,33.52,15.261,33.52,33.52c0,18.259-15.261,33.52-33.52,33.52C1182.929,293.242,1167.941,277.981,1167.941,259.449z
		 M852.907,259.449c0-18.531,15.261-33.52,33.52-33.52c18.531,0,33.52,15.261,33.52,33.52c0,18.259-15.261,33.52-33.52,33.52
		C868.168,293.242,852.907,277.981,852.907,259.449z M224.474,259.449c0-18.531,15.261-33.52,33.52-33.52
		c18.259,0,33.793,14.989,33.793,33.52s-15.261,33.793-33.52,33.793S224.474,277.981,224.474,259.449z M539.508,259.449
		c0-18.531,15.261-33.52,33.52-33.52c18.531,0,33.52,15.261,33.52,33.52c0,18.259-15.261,33.52-33.52,33.52
		C554.769,293.242,539.508,277.981,539.508,259.449z M292.059,1202.916c0,18.531-15.261,33.52-33.52,33.52
		s-33.52-15.261-33.52-33.52s15.261-33.52,33.52-33.52S292.059,1184.385,292.059,1202.916z M607.093,1202.916
		c0,18.531-15.261,33.52-33.52,33.52c-18.531,0-33.52-15.261-33.52-33.52s15.261-33.52,33.52-33.52
		C591.832,1169.124,607.093,1184.385,607.093,1202.916z M443.58,865.807V596.285h572.839v269.523L443.58,865.807L443.58,865.807z
		 M1201.733,1236.708c-18.531,0-33.52-15.261-33.52-33.52c0-18.531,15.261-33.52,33.52-33.52c18.531,0,33.52,15.261,33.52,33.52
		S1220.265,1236.708,1201.733,1236.708z"/>
	<g>
		<circle fill="#F2B336" cx="258.266" cy="259.448" r="67.585"/>
		<circle fill="#F2B336" cx="1201.733" cy="259.448" r="67.585"/>
		<ellipse fill="#F2B336" cx="886.48" cy="259.622" rx="67.586" ry="67.586"/>
		<circle fill="#F2B336" cx="573.3" cy="259.448" r="67.585"/>
	</g>
</g>
</svg>
