<?xml version="1.0" encoding="utf-8"?>
<!-- Generator: Adobe Illustrator 22.1.0, SVG Export Plug-In . SVG Version: 6.00 Build 0)  -->
<svg version="1.1" id="Layer_1" xmlns="http://www.w3.org/2000/svg" xmlns:xlink="http://www.w3.org/1999/xlink" x="0px" y="0px"
	 viewBox="0 0 496 496" style="enable-background:new 0 0 496 496;" xml:space="preserve">
<style type="text/css">
	.st0{fill:#51AACC;}
	.st1{fill:#F2B336;}
</style>
<path class="st0" d="M416,248V117.9c0-0.8-0.3-1.6-0.9-2.1L300.2,0.9c-0.6-0.6-1.3-0.9-2.1-0.9H8C3.6,0,0,3.6,0,8v480
	c0,4.4,3.6,8,8,8h400c4.4,0,8-3.6,8-8v-88h68.9c6.1,0,11.1-5,11.1-11.1V259.1c0-6.1-5-11.1-11.1-11.1H416z M309.1,32.4l74.4,74.4
	c1.9,1.9,0.6,5.1-2.1,5.1H307c-1.7,0-3-1.3-3-3V34.6C304,31.9,307.2,30.5,309.1,32.4z M392,480H24c-4.4,0-8-3.6-8-8V24
	c0-4.4,3.6-8,8-8h261c1.7,0,3,1.3,3,3v106c0,1.7,1.3,3,3,3h106c1.7,0,3,1.3,3,3v117h-4.9c-6.1,0-11.1,5-11.1,11.1v4.9h-5.3
	l-28.4-21.3L328,198.1v-43c0-6.1-5-11.1-11.1-11.1h-26.8c-4.5,0-8.6,2.8-10.3,7L264,190.5V216l2.5,10.3c1.7,7-3.6,13.7-10.8,13.7
	h-61.2c-5.3,0-9.8,3.7-10.9,8.9l-7.4,36.8c-0.3,1.6-0.3,3.3,0.1,4.9l9.9,39.7L160,352.6V336H32v128h128v-90.4l30.7-25.9l1.6,6.3
	l15.8,31.9c1.9,3.8,5.7,6.2,9.9,6.2h145.4l8-8H384v4.9c0,6.1,5,11.1,11.1,11.1h4.9v72C400,476.4,396.4,480,392,480z M280,215v-21.5
	l10.6-26.6c1.7-4.2,5.8-7,10.3-7h0c6.1,0,11.1,5,11.1,11.1v30.8l25.7,51.4l35.6,26.7H384v88h-19.3l-8,8H227.8c-4.2,0-8-2.4-9.9-6.1
	l-10.3-20.7l-14.7-59c-0.4-1.6-0.4-3.3-0.1-4.9l4.1-20.4c1-5.2,5.6-8.9,10.9-8.9h68.4c7.2,0,12.5-6.8,10.8-13.8L280,215z M84.7,432
	L84.7,432c4,0,7.9-1.4,10.9-4l48.4-40.9V448H48v-96h96v14.1L85.1,416h-0.8l-9.2-13.8c-2.4-3.7-7.4-4.7-11.1-2.2h0
	c-3.7,2.5-4.7,7.4-2.2,11.1l8.9,13.4C73.8,429.2,79.1,432,84.7,432z M468.9,384h-57.8c-6.1,0-11.1-5-11.1-11.1v-97.8
	c0-6.1,5-11.1,11.1-11.1h57.8c6.1,0,11.1,5,11.1,11.1v97.8C480,379,475,384,468.9,384z"/>
<path class="st0" d="M160,69.6l31.1-26.3c3.4-2.9,3.8-7.9,0.9-11.3l0,0c-2.9-3.4-7.9-3.8-11.3-0.9L160,48.6V32H32v128h128V69.6z
	 M144,62.1L85.1,112h-0.8l-9.2-13.8c-2.4-3.7-7.4-4.7-11.1-2.2l0,0c-3.7,2.5-4.7,7.4-2.2,11.1l8.9,13.4c3.1,4.7,8.4,7.5,14,7.5h0
	c4,0,7.9-1.4,10.9-4L144,83.1V144H48V48h96V62.1z"/>
<path class="st0" d="M160,221.6l31.1-26.3c3.4-2.9,3.8-7.9,0.9-11.3l0,0c-2.9-3.4-7.9-3.8-11.3-0.9L160,200.6V184H32v128h128V221.6z
	 M144,214.1L85.1,264h-0.8l-9.2-13.8c-2.4-3.7-7.4-4.7-11.1-2.2h0c-3.7,2.5-4.7,7.4-2.2,11.1l8.9,13.4c3.1,4.7,8.4,7.5,14,7.5h0
	c4,0,7.9-1.4,10.9-4l48.4-40.9V296H48v-96h96V214.1z"/>
<path class="st1" d="M482.1,403.1h-84.2c-8.9,0-16.1-6.5-16.1-14.6V259.5c0-8.1,7.2-14.6,16.1-14.6h84.2c8.9,0,16.1,6.5,16.1,14.6
	v128.9C498.3,396.5,491,403.1,482.1,403.1z"/>
</svg>
