<?xml version="1.0" encoding="utf-8"?>
<!-- Generator: Adobe Illustrator 22.1.0, SVG Export Plug-In . SVG Version: 6.00 Build 0)  -->
<svg version="1.1" id="Í_xBC__xB2_ã_x5F_1" xmlns="http://www.w3.org/2000/svg" xmlns:xlink="http://www.w3.org/1999/xlink"
	 x="0px" y="0px" viewBox="0 0 1200 800" style="enable-background:new 0 0 1200 800;" xml:space="preserve">
<style type="text/css">
	.st0{fill:none;stroke:#51AACC;stroke-width:2;stroke-miterlimit:10;}
	.st1{fill:#F2B336;stroke:#F2B336;stroke-width:2;stroke-miterlimit:10;}
</style>
<g>
	<path class="st0" d="M1255.3-115.3c-0.3-0.6-0.5-1.4-0.5-2.2c0-0.9,0.3-1.8,0.8-2.5l-15.8-8.9c-0.4,0.9-1,1.6-1.7,2.1
		c-0.8,0.5-1.6,0.8-2.6,0.8c-1,0-1.8-0.3-2.6-0.8c-0.8-0.5-1.4-1.2-1.7-2.1l-15.8,8.9c0.5,0.7,0.8,1.6,0.8,2.5
		c0,0.8-0.2,1.5-0.5,2.2c-0.8,1.5-2.4,2.6-4.2,2.6V-94c0.8,0,1.7,0.2,2.3,0.6c0.7,0.4,1.3,1,1.7,1.7c0.4,0.7,0.7,1.5,0.7,2.4h38.7
		c0-0.9,0.2-1.7,0.7-2.4c0.4-0.7,1-1.3,1.7-1.7c0.7-0.4,1.5-0.6,2.3-0.6v-18.8C1257.7-112.7,1256.1-113.8,1255.3-115.3z
		 M1235.4-98.8c-1.7,0-3.2-0.9-4.1-2.3c-0.4-0.7-0.7-1.5-0.7-2.4s0.2-1.7,0.7-2.4c0.8-1.4,2.3-2.3,4.1-2.3c1.7,0,3.2,0.9,4.1,2.3
		c0.4,0.7,0.7,1.5,0.7,2.4s-0.2,1.7-0.7,2.4C1238.7-99.7,1237.2-98.8,1235.4-98.8z"/>
	<path class="st0" d="M1247.3-110.5l-9.3-16.3c-0.8,0.5-1.6,0.8-2.6,0.8c-1,0-1.8-0.3-2.6-0.8l-9.3,16.3l-9.8,17.2
		c0.7,0.4,1.3,1,1.7,1.7c0.4,0.7,0.7,1.5,0.7,2.4h38.7c0-0.9,0.2-1.7,0.7-2.4c0.4-0.7,1-1.3,1.7-1.7L1247.3-110.5z M1235.4-98.8
		c-1.7,0-3.2-0.9-4.1-2.3c-0.4-0.7-0.7-1.5-0.7-2.4s0.2-1.7,0.7-2.4c0.8-1.4,2.3-2.3,4.1-2.3c1.7,0,3.2,0.9,4.1,2.3
		c0.4,0.7,0.7,1.5,0.7,2.4s-0.2,1.7-0.7,2.4C1238.7-99.7,1237.2-98.8,1235.4-98.8z"/>
	<path class="st0" d="M1254.8-89.3c0,0.8,0.2,1.6,0.6,2.3l-15.6,8.8c-0.7-1.6-2.4-2.8-4.3-2.8c-1.9,0-3.6,1.2-4.3,2.8l-15.7-8.8
		c0.4-0.7,0.6-1.5,0.6-2.3c0-0.9-0.2-1.7-0.7-2.4l16-9.4c0.8,1.4,2.3,2.3,4.1,2.3c1.7,0,3.2-0.9,4.1-2.3l15.9,9.4
		C1255-91,1254.8-90.1,1254.8-89.3z"/>
	<path class="st0" d="M1254.8-117.4c0,0.8,0.2,1.5,0.5,2.2l-8,4.7l-7.8,4.6c-0.8-1.4-2.3-2.3-4.1-2.3c-1.7,0-3.2,0.9-4.1,2.3
		l-7.8-4.6l-8-4.7c0.3-0.6,0.5-1.4,0.5-2.2c0-0.9-0.3-1.8-0.8-2.5l15.8-8.9c0.4,0.9,1,1.6,1.7,2.1c0.8,0.5,1.6,0.8,2.6,0.8
		c1,0,1.9-0.3,2.6-0.8c0.8-0.5,1.4-1.2,1.7-2.1l15.8,8.9C1255.1-119.3,1254.8-118.4,1254.8-117.4z"/>
	<polyline class="st0" points="1235.4,-80.9 1235.4,-89.3 1235.4,-98.8 	"/>
	<line class="st0" x1="1235.4" y1="-108.2" x2="1235.4" y2="-126.1"/>
	<path class="st0" d="M1240.2-130.8c0,0.7-0.1,1.3-0.4,1.9c-0.4,0.9-1,1.6-1.7,2.1c-0.8,0.5-1.6,0.8-2.6,0.8c-1,0-1.8-0.3-2.6-0.8
		c-0.8-0.5-1.4-1.2-1.7-2.1c-0.2-0.6-0.4-1.2-0.4-1.9c0-2.6,2.1-4.7,4.7-4.7C1238-135.5,1240.2-133.4,1240.2-130.8z"/>
	<path class="st1" d="M1240.2-103.5c0,0.9-0.2,1.7-0.7,2.4c-0.8,1.4-2.3,2.3-4.1,2.3c-1.7,0-3.2-0.9-4.1-2.3
		c-0.4-0.7-0.7-1.5-0.7-2.4s0.2-1.7,0.7-2.4c0.8-1.4,2.3-2.3,4.1-2.3c1.7,0,3.2,0.9,4.1,2.3C1239.9-105.2,1240.2-104.4,1240.2-103.5
		z"/>
	<path class="st0" d="M1240.2-76.2c0,2.6-2.1,4.7-4.7,4.7c-2.6,0-4.7-2.1-4.7-4.7c0-0.7,0.2-1.3,0.4-1.9c0.7-1.6,2.4-2.8,4.3-2.8
		c1.9,0,3.6,1.2,4.3,2.8C1240-77.6,1240.2-76.9,1240.2-76.2z"/>
	<path class="st0" d="M1264.2-117.4c0,2.6-2.1,4.7-4.7,4.7c-1.8,0-3.4-1-4.2-2.6c-0.3-0.6-0.5-1.4-0.5-2.2c0-0.9,0.3-1.8,0.8-2.5
		c0.8-1.3,2.3-2.2,4-2.2C1262.1-122.2,1264.2-120,1264.2-117.4z"/>
	<path class="st0" d="M1216.1-117.4c0,0.8-0.2,1.5-0.5,2.2c-0.8,1.5-2.4,2.6-4.2,2.6c-2.6,0-4.7-2.1-4.7-4.7c0-2.6,2.1-4.7,4.7-4.7
		c1.7,0,3.1,0.9,4,2.2C1215.8-119.3,1216.1-118.4,1216.1-117.4z"/>
	<path class="st0" d="M1264.2-89.3c0,2.6-2.1,4.7-4.7,4.7c-1.8,0-3.3-1-4.1-2.4c-0.4-0.7-0.6-1.5-0.6-2.3c0-0.9,0.2-1.7,0.7-2.4
		c0.4-0.7,1-1.3,1.7-1.7c0.7-0.4,1.5-0.6,2.3-0.6C1262.1-94,1264.2-91.9,1264.2-89.3z"/>
	<path class="st0" d="M1216.1-89.3c0,0.8-0.2,1.6-0.6,2.3c-0.8,1.4-2.3,2.4-4.1,2.4c-2.6,0-4.7-2.1-4.7-4.7s2.1-4.7,4.7-4.7
		c0.8,0,1.7,0.2,2.3,0.6c0.7,0.4,1.3,1,1.7,1.7C1215.8-91,1216.1-90.1,1216.1-89.3z"/>
</g>
</svg>
