<?xml version="1.0" encoding="utf-8"?>
<!-- Generator: Adobe Illustrator 17.0.0, SVG Export Plug-In . SVG Version: 6.00 Build 0)  -->
<!DOCTYPE svg PUBLIC "-//W3C//DTD SVG 1.1//EN" "http://www.w3.org/Graphics/SVG/1.1/DTD/svg11.dtd">
<svg version="1.1" id="Capa_1" xmlns="http://www.w3.org/2000/svg" xmlns:xlink="http://www.w3.org/1999/xlink" x="0px" y="0px"
	 width="1464px" height="1465.938px" viewBox="0 0 1464 1465.938" enable-background="new 0 0 1464 1465.938" xml:space="preserve">
<g>
	<g>
		<g>
			<path fill="#F2B336" d="M913.301,885.687c-25.523,0-46.406-17.93-46.406-40.078s20.883-40.078,46.406-40.078
				s46.406,17.93,46.406,40.078c0,11.602,9.492,21.094,21.094,21.094s21.094-9.493,21.094-21.094
				c0-38.602-28.898-71.086-67.5-79.945v-10.969c0-11.602-9.492-21.094-21.094-21.094s-21.094,9.492-21.094,21.094v10.969
				c-38.602,8.859-67.5,41.344-67.5,79.945c0,45.352,39.656,82.266,88.594,82.266c25.523,0,46.406,17.93,46.406,40.078
				s-20.883,40.078-46.406,40.078s-46.406-17.93-46.406-40.079c0-11.602-9.492-21.094-21.094-21.094s-21.094,9.492-21.094,21.094
				c0,38.602,28.898,71.086,67.5,79.945v9.07c0,11.602,9.492,21.094,21.094,21.094s21.094-9.491,21.094-21.093v-9.07
				c38.602-8.859,67.5-41.344,67.5-79.945C1001.895,922.601,962.028,885.687,913.301,885.687z"/>
		</g>
	</g>
	<g>
		<g>
			<path fill="#F2B336" d="M1144.278,760.179c-27.633-43.031-66.445-77.203-112.219-99.352c-10.547-5.063-23.203-0.633-28.055,9.914
				c-5.063,10.547-0.633,23.203,9.914,28.055c79.734,38.391,131.414,120.656,131.414,209.25c0,37.969-9.281,75.516-27,108.844
				c-5.484,10.336-1.477,22.992,8.648,28.477c3.164,1.688,6.539,2.531,9.914,2.531c7.594,0,14.766-4.008,18.563-11.18
				c20.883-39.234,32.063-83.742,32.063-128.672C1187.52,855.312,1172.543,804.265,1144.278,760.179z"/>
		</g>
	</g>
	<g>
		<g>
			<path fill="#F2B336" d="M946.418,633.827h-1.477c-11.602,0-21.094,9.492-21.094,21.094s9.492,21.094,21.094,21.094h1.266l0,0
				c11.602,0,21.094-9.281,21.094-21.094C967.512,643.32,958.02,633.827,946.418,633.827z"/>
		</g>
	</g>
	<g>
		<g>
			<path fill="#F2B336" d="M812.895,1117.295c-79.945-38.391-131.625-120.656-131.625-209.25c0-37.969,9.281-75.516,27-108.844
				c5.484-10.336,1.477-22.992-8.648-28.477c-10.336-5.484-22.992-1.477-28.477,8.648c-20.883,39.234-32.063,83.742-32.063,128.672
				c0,52.734,14.977,103.781,43.242,147.867c27.633,43.031,66.445,77.203,112.219,99.352c2.953,1.477,6.117,2.109,9.07,2.109
				c7.805,0,15.398-4.43,18.984-12.023C827.872,1135.014,823.442,1122.358,812.895,1117.295z"/>
		</g>
	</g>
	<g>
		<g>
			<path fill="#F2B336" d="M881.661,1140.076h-1.266c-11.602,0-21.094,9.281-21.094,21.094c0,11.602,9.281,21.094,21.094,21.094
				h1.477c11.602,0,21.094-9.492,21.094-21.094S893.262,1140.076,881.661,1140.076z"/>
		</g>
	</g>
	<path fill="#51AACC" d="M1009.067,562.531c-2.531-6.117-5.695-11.813-9.281-17.297h54.844c53.578,0,97.031-43.453,97.031-97.031
		s-43.453-97.031-97.031-97.031H885.668c10.758-15.609,17.086-34.594,17.086-54.844c0-53.578-43.453-97.031-97.031-97.031H288.926
		c-53.578-0.001-97.031,43.452-97.031,97.03s43.453,97.031,97.031,97.031h168.961c-10.758,15.609-17.086,34.594-17.086,54.844
		c0,20.25,6.328,39.234,17.086,54.844h-55.055c-53.578,0-97.031,43.453-97.031,97.031c0,30.797,14.344,58.219,36.703,75.938
		c-22.359,17.719-36.703,45.141-36.703,75.938s14.344,58.219,36.703,75.938c-22.359,17.719-36.703,45.141-36.703,75.938
		s14.344,58.219,36.703,75.938c-22.359,17.719-36.703,45.141-36.703,75.938c0,53.578,43.453,97.031,97.031,97.031h248.695
		c65.391,70.031,158.625,113.906,261.984,113.906c197.648,0,358.594-160.945,358.594-358.594
		C1271.895,743.515,1160.52,604.507,1009.067,562.531z M1054.629,393.358c30.164,0,54.844,24.68,54.844,54.844
		s-24.68,54.844-54.844,54.844h-135H537.833c-30.164,0-54.844-24.68-54.844-54.844s24.68-54.844,54.844-54.844H1054.629z
		 M288.926,351.17c-30.164,0-54.844-24.68-54.844-54.844s24.68-54.844,54.844-54.844h516.797c30.164,0,54.844,24.68,54.844,54.844
		s-24.68,54.844-54.844,54.844H288.926z M402.833,545.234H919.63c8.438,0,16.664,1.898,23.836,5.484
		c-9.914-0.844-20.039-1.266-30.164-1.266c-98.93,0-188.789,40.289-253.758,105.469H402.833c-30.164,0-54.844-24.68-54.844-54.844
		S372.668,545.234,402.833,545.234z M402.833,697.109h220.641c-24.047,32.906-42.398,69.82-54.211,109.688h-166.43
		c-30.164,0-54.844-24.68-54.844-54.844S372.668,697.109,402.833,697.109z M402.833,848.984H559.56
		c-3.164,19.195-4.852,39.023-4.852,59.063c0,17.086,1.266,34.172,3.586,50.625H402.833c-30.164,0-54.844-24.68-54.844-54.844
		S372.668,848.984,402.833,848.984z M402.833,1110.545c-30.164,0-54.844-24.68-54.844-54.844s24.68-54.844,54.844-54.844h164.109
		c10.547,39.656,27.844,76.57,50.625,109.688H402.833z M913.301,1224.451c-174.445,0-316.406-141.961-316.406-316.406
		s141.961-316.406,316.406-316.406s316.406,141.961,316.406,316.406S1087.747,1224.451,913.301,1224.451z"/>
	<path fill="#F2B336" stroke="#F2B336" stroke-width="4" stroke-miterlimit="10" d="M913.301,552.195
		c-196.594,0-356.063,159.469-356.063,356.063s159.469,356.273,356.063,356.273c196.805,0,356.063-159.469,356.063-356.063
		S1110.106,552.195,913.301,552.195z M913.301,1227.194c-176.133,0-318.938-142.805-318.938-318.938S737.168,589.53,913.301,589.53
		s318.938,142.805,318.938,318.938S1089.434,1227.194,913.301,1227.194z"/>
</g>
</svg>
