<?xml version="1.0" encoding="utf-8"?>
<!-- Generator: Adobe Illustrator 22.1.0, SVG Export Plug-In . SVG Version: 6.00 Build 0)  -->
<svg version="1.1" id="Capa_1" xmlns="http://www.w3.org/2000/svg" xmlns:xlink="http://www.w3.org/1999/xlink" x="0px" y="0px"
	 viewBox="0 0 480 480" style="enable-background:new 0 0 480 480;" xml:space="preserve">
<style type="text/css">
	.st0{fill:#51AACC;}
	.st1{fill:#F2B336;}
</style>
<g>
	<g>
		<path class="st0" d="M459.9,311.5c0-0.7-0.2-1.4-0.4-2.1c-0.1-0.3-0.2-0.5-0.3-0.8c-0.4-0.9-0.9-1.7-1.6-2.3l-48-48
			c-0.7-0.7-1.5-1.2-2.4-1.6c-0.2-0.1-0.5-0.2-0.7-0.3c-0.7-0.2-1.4-0.4-2.1-0.4c-0.2,0-0.3-0.1-0.5-0.1h-64V120h48c4.4,0,8-3.6,8-8
			c0-2.6-1.2-5-3.3-6.5l-144-104c-2.8-2-6.6-2-9.4,0l-144,104c-3.6,2.6-4.4,7.6-1.8,11.2c1.5,2.1,3.9,3.3,6.5,3.3h48v137.2
			c-5.3-0.8-10.6-1.2-16-1.2C70.2,256,20,306.1,20,368c0,61.9,50.1,112,112,112c25.1,0,49.6-8.4,69.3-24H292v16c0,4.4,3.6,8,8,8h152
			c4.4,0,8-3.6,8-8V312C460,311.8,459.9,311.7,459.9,311.5z M412,283.3l20.7,20.7H412L412,283.3L412,283.3z M132,272
			c39.1-0.1,74.3,23.6,89,59.8l-85,26.6l-41.9-78.6C106.1,274.7,119,272,132,272z M225.7,347.1c1.5,6.9,2.3,13.9,2.3,20.9
			c0,12.2-2.3,24.3-6.9,35.6l-67.8-33.9l10.9-3.4L225.7,347.1z M82.1,450C53.5,432.6,36,401.5,36,368l0,0c0-32.6,16.5-63,43.9-80.6
			l45,84.4l0.1,0.1c0.1,0.2,0.3,0.4,0.5,0.6c0.3,0.4,0.6,0.8,0.9,1.2l0.1,0.1c0.2,0.1,0.4,0.3,0.6,0.4c0.4,0.3,0.8,0.6,1.2,0.8
			c0.1,0,0.1,0.1,0.2,0.2l85.5,42.7C186.4,463.1,127.4,477.5,82.1,450z M292,264v176h-74.3c5.6-6.7,10.5-14.1,14.4-21.9
			c7.9-15.5,11.9-32.7,11.9-50.1c0.1-49.5-32.5-93.2-80-107.3V112c0-4.4-3.6-8-8-8h-31.3L244,17.9L363.3,104H332c-4.4,0-8,3.6-8,8
			v144h-24C295.6,256,292,259.6,292,264z M444,464H308V272h88v40c0,4.4,3.6,8,8,8h40V464z"/>
	</g>
</g>
<g>
	<g>
		<rect x="324" y="288" class="st1" width="56" height="16"/>
	</g>
</g>
<g>
	<g>
		<rect x="324" y="320" class="st1" width="56" height="16"/>
	</g>
</g>
<g>
	<g>
		<path class="st1" d="M423.2,328.6L423.2,328.6c-4.1-1.7-8.8,0.1-10.5,4.2l-20.8,48.6l-33.1-14.7c-4-1.8-8.6,0-10.5,3.9l-23.5,50
			c-1.9,4-0.2,8.8,3.8,10.6c1,0.5,2.2,0.8,3.4,0.8c3.1,0,5.9-1.8,7.2-4.6l20.2-42.9l33.3,14.8c4,1.8,8.8,0,10.6-4.1c0,0,0-0.1,0-0.1
			l24-56C429.1,335.1,427.2,330.4,423.2,328.6z"/>
	</g>
</g>
<g>
	<g>
		<rect x="380" y="432" class="st1" width="48" height="16"/>
	</g>
</g>
<g>
	<g>
		<rect x="20" y="136" class="st1" width="56" height="16"/>
	</g>
</g>
<g>
	<g>
		<rect x="20" y="168" class="st1" width="56" height="16"/>
	</g>
</g>
<g>
	<g>
		<rect x="20" y="200" class="st1" width="56" height="16"/>
	</g>
</g>
<g>
	<g>
		<rect x="404" y="24" class="st1" width="56" height="16"/>
	</g>
</g>
<g>
	<g>
		<rect x="404" y="56" class="st1" width="56" height="16"/>
	</g>
</g>
<path class="st1" d="M132,272c39.1-0.1,74.3,23.6,89,59.8l-85,26.6l-41.9-78.6C106.1,274.7,119,272,132,272z"/>
</svg>
