<?xml version="1.0" encoding="utf-8"?>
<!-- Generator: Adobe Illustrator 17.0.0, SVG Export Plug-In . SVG Version: 6.00 Build 0)  -->
<!DOCTYPE svg PUBLIC "-//W3C//DTD SVG 1.1//EN" "http://www.w3.org/Graphics/SVG/1.1/DTD/svg11.dtd">
<svg version="1.1" id="Capa_1" xmlns="http://www.w3.org/2000/svg" xmlns:xlink="http://www.w3.org/1999/xlink" x="0px" y="0px"
	 width="1464.146px" height="1472px" viewBox="24.276 129.281 1464.146 1472" enable-background="new 24.276 129.281 1464.146 1472"
	 xml:space="preserve">
<g>
	<path fill="#F2B336" stroke="#F2B336" stroke-width="20" stroke-miterlimit="10" d="M633.521,285.532H218.136
		c-22.657,0-41.34,18.682-41.34,41.34v415.385c0,23.055,18.682,41.34,41.34,41.34h415.385c23.055,0,41.34-18.682,41.34-41.34
		V326.871C675.258,304.214,656.576,285.532,633.521,285.532z"/>
	<g>
		<path fill="#51AACC" d="M1294.559,823.743H879.174c-44.917,0-81.089-36.57-81.089-81.089V326.871
			c0-44.917,36.57-81.089,81.089-81.089h415.385c44.917,0,81.089,36.57,81.089,81.089v415.385
			C1376.046,787.172,1339.476,823.743,1294.559,823.743z M879.174,325.281c-0.795,0-1.59,0.795-1.59,1.59v415.385
			c0,0.795,0.795,1.59,1.59,1.59h415.385c0.795,0,1.59-0.795,1.59-1.59V326.871c0-0.795-0.795-1.59-1.59-1.59H879.174z"/>
	</g>
	<g>
		<path fill="#51AACC" d="M633.521,1484.781H218.136c-44.917,0-81.089-36.57-81.089-81.089V987.91
			c0-44.917,36.57-81.089,81.089-81.089h415.385c44.917,0,81.089,36.57,81.089,81.089v415.385
			C715.008,1448.211,678.438,1484.781,633.521,1484.781z M218.136,986.318c-0.795,0-1.59,0.795-1.59,1.59v415.385
			c0,0.795,0.795,1.59,1.59,1.59h415.385c0.795,0,1.59-0.795,1.59-1.59V987.909c0-0.795-0.795-1.59-1.59-1.59H218.136z"/>
	</g>
	<g>
		<path fill="#51AACC" d="M1294.559,1484.781H879.174c-44.917,0-81.089-36.57-81.089-81.089V987.91
			c0-44.917,36.57-81.089,81.089-81.089h415.385c44.917,0,81.089,36.57,81.089,81.089v415.385
			C1376.046,1448.211,1339.476,1484.781,1294.559,1484.781z M879.174,986.318c-0.795,0-1.59,0.795-1.59,1.59v415.385
			c0,0.795,0.795,1.59,1.59,1.59h415.385c0.795,0,1.59-0.795,1.59-1.59V987.909c0-0.795-0.795-1.59-1.59-1.59H879.174z"/>
	</g>
</g>
</svg>
