<?xml version="1.0" encoding="utf-8"?>
<!-- Generator: Adobe Illustrator 22.1.0, SVG Export Plug-In . SVG Version: 6.00 Build 0)  -->
<svg version="1.1" id="Capa_1" xmlns="http://www.w3.org/2000/svg" xmlns:xlink="http://www.w3.org/1999/xlink" x="0px" y="0px"
	 viewBox="0 0 512 512" style="enable-background:new 0 0 512 512;" xml:space="preserve">
<style type="text/css">
	.st0{fill:#F2B336;}
	.st1{fill:#51AACC;}
</style>
<g>
	<g>
		<path class="st0" d="M501.3,490.7H10.7c-5.9,0-10.7,4.8-10.7,10.7S4.8,512,10.7,512h490.7c5.9,0,10.7-4.8,10.7-10.7
			C512,495.4,507.2,490.7,501.3,490.7z"/>
	</g>
</g>
<g>
	<g>
		<path class="st0" d="M96,362.7H32c-5.9,0-10.7,4.8-10.7,10.7v128c0,5.9,4.8,10.7,10.7,10.7h64c5.9,0,10.7-4.8,10.7-10.7v-128
			C106.7,367.4,101.9,362.7,96,362.7z M85.3,490.7H42.7V384h42.7L85.3,490.7L85.3,490.7z"/>
	</g>
</g>
<g>
	<g>
		<path class="st0" d="M224,256h-64c-5.9,0-10.7,4.8-10.7,10.7v234.7c0,5.9,4.8,10.7,10.7,10.7h64c5.9,0,10.7-4.8,10.7-10.7V266.7
			C234.7,260.8,229.9,256,224,256z M213.3,490.7h-42.7V277.3h42.7V490.7L213.3,490.7z"/>
	</g>
</g>
<g>
	<g>
		<path class="st0" d="M352,298.7h-64c-5.9,0-10.7,4.8-10.7,10.7v192c0,5.9,4.8,10.7,10.7,10.7h64c5.9,0,10.7-4.8,10.7-10.7v-192
			C362.7,303.4,357.9,298.7,352,298.7z M341.3,490.7h-42.7V320h42.7V490.7z"/>
	</g>
</g>
<g>
	<g>
		<path class="st0" d="M480,170.7h-64c-5.9,0-10.7,4.8-10.7,10.7v320c0,5.9,4.8,10.7,10.7,10.7h64c5.9,0,10.7-4.8,10.7-10.7v-320
			C490.7,175.4,485.9,170.7,480,170.7z M469.3,490.7h-42.7V192h42.7V490.7z"/>
	</g>
</g>
<g>
	<g>
		<path class="st1" d="M64,192c-23.5,0-42.7,19.1-42.7,42.7s19.1,42.7,42.7,42.7s42.7-19.1,42.7-42.7S87.5,192,64,192z M64,256
			c-11.8,0-21.3-9.6-21.3-21.3c0-11.8,9.6-21.3,21.3-21.3s21.3,9.6,21.3,21.3S75.8,256,64,256z"/>
	</g>
</g>
<g>
	<g>
		<path class="st1" d="M192,85.3c-23.5,0-42.7,19.1-42.7,42.7s19.1,42.7,42.7,42.7s42.7-19.1,42.7-42.7
			C234.7,104.5,215.5,85.3,192,85.3z M192,149.3c-11.8,0-21.3-9.6-21.3-21.3c0-11.8,9.6-21.3,21.3-21.3s21.3,9.6,21.3,21.3
			C213.3,139.8,203.8,149.3,192,149.3z"/>
	</g>
</g>
<g>
	<g>
		<path class="st1" d="M320,128c-23.5,0-42.7,19.1-42.7,42.7s19.1,42.7,42.7,42.7s42.7-19.1,42.7-42.7S343.5,128,320,128z M320,192
			c-11.8,0-21.3-9.6-21.3-21.3c0-11.8,9.6-21.3,21.3-21.3s21.3,9.6,21.3,21.3S331.8,192,320,192z"/>
	</g>
</g>
<g>
	<g>
		<path class="st1" d="M448,0c-23.5,0-42.7,19.1-42.7,42.7s19.1,42.7,42.7,42.7s42.7-19.1,42.7-42.7S471.5,0,448,0z M448,64
			c-11.8,0-21.3-9.6-21.3-21.3c0-11.8,9.6-21.3,21.3-21.3s21.3,9.6,21.3,21.3S459.8,64,448,64z"/>
	</g>
</g>
<g>
	<g>
		<path class="st1" d="M432.9,57.7c-4.2-4.2-10.9-4.2-15.1,0L335,140.5c-4.2,4.2-4.2,10.9,0,15.1c2.1,2.1,4.8,3.1,7.6,3.1
			c2.7,0,5.4-1,7.5-3.1l82.8-82.8C437.1,68.7,437.1,61.9,432.9,57.7z"/>
	</g>
</g>
<g>
	<g>
		<path class="st1" d="M294.2,146l-68.5-19.5c-5.7-1.7-11.6,1.7-13.2,7.3c-1.6,5.7,1.7,11.6,7.3,13.2l68.5,19.5c1,0.3,2,0.4,2.9,0.4
			c4.7,0,8.9-3.1,10.3-7.7C303.2,153.6,299.9,147.7,294.2,146z"/>
	</g>
</g>
<g>
	<g>
		<path class="st1" d="M175.4,141.3c-3.7-4.6-10.4-5.4-15-1.7L80,203.7c-4.6,3.7-5.4,10.4-1.7,15c2.1,2.6,5.2,4,8.3,4
			c2.3,0,4.7-0.8,6.6-2.3l80.4-64.1C178.3,152.6,179.1,145.9,175.4,141.3z"/>
	</g>
</g>
</svg>
