<?xml version="1.0" encoding="utf-8"?>
<!-- Generator: Adobe Illustrator 22.1.0, SVG Export Plug-In . SVG Version: 6.00 Build 0)  -->
<svg version="1.1" id="Capa_1" xmlns="http://www.w3.org/2000/svg" xmlns:xlink="http://www.w3.org/1999/xlink" x="0px" y="0px"
	 viewBox="0 0 271.7 271.7" style="enable-background:new 0 0 271.7 271.7;" xml:space="preserve">
<style type="text/css">
	.st0{fill:#F2B336;stroke:#F2B336;stroke-width:20;stroke-miterlimit:10;}
	.st1{fill:#51AACC;}
</style>
<path class="st0" d="M94.9-20H-9.6C-15.3-20-20-15.3-20-9.6V94.9c0,5.8,4.7,10.4,10.4,10.4H94.9c5.8,0,10.4-4.7,10.4-10.4V-9.6
	C105.4-15.3,100.7-20,94.9-20z"/>
<g>
	<path class="st1" d="M261.2,115.4H156.7c-11.3,0-20.4-9.2-20.4-20.4V-9.6c0-11.3,9.2-20.4,20.4-20.4h104.5
		c11.3,0,20.4,9.2,20.4,20.4V94.9C281.7,106.2,272.5,115.4,261.2,115.4z M156.7-10c-0.2,0-0.4,0.2-0.4,0.4V94.9
		c0,0.2,0.2,0.4,0.4,0.4h104.5c0.2,0,0.4-0.2,0.4-0.4V-9.6c0-0.2-0.2-0.4-0.4-0.4H156.7z"/>
</g>
<g>
	<path class="st1" d="M94.9,281.7H-9.6c-11.3,0-20.4-9.2-20.4-20.4V156.7c0-11.3,9.2-20.4,20.4-20.4H94.9c11.3,0,20.4,9.2,20.4,20.4
		v104.5C115.4,272.5,106.2,281.7,94.9,281.7z M-9.6,156.3c-0.2,0-0.4,0.2-0.4,0.4v104.5c0,0.2,0.2,0.4,0.4,0.4H94.9
		c0.2,0,0.4-0.2,0.4-0.4V156.7c0-0.2-0.2-0.4-0.4-0.4H-9.6z"/>
</g>
<g>
	<path class="st1" d="M261.2,281.7H156.7c-11.3,0-20.4-9.2-20.4-20.4V156.7c0-11.3,9.2-20.4,20.4-20.4h104.5
		c11.3,0,20.4,9.2,20.4,20.4v104.5C281.7,272.5,272.5,281.7,261.2,281.7z M156.7,156.3c-0.2,0-0.4,0.2-0.4,0.4v104.5
		c0,0.2,0.2,0.4,0.4,0.4h104.5c0.2,0,0.4-0.2,0.4-0.4V156.7c0-0.2-0.2-0.4-0.4-0.4H156.7z"/>
</g>
</svg>
