<?xml version="1.0" encoding="utf-8"?>
<!-- Generator: Adobe Illustrator 22.1.0, SVG Export Plug-In . SVG Version: 6.00 Build 0)  -->
<svg version="1.1" id="Capa_1" xmlns="http://www.w3.org/2000/svg" xmlns:xlink="http://www.w3.org/1999/xlink" x="0px" y="0px"
	 viewBox="0 0 382.6 382.6" style="enable-background:new 0 0 382.6 382.6;" xml:space="preserve">
<style type="text/css">
	.st0{fill:#51AACC;}
	.st1{fill:#F2B336;}
</style>
<g>
	<path class="st0" d="M813.5,392.6H489.7c-14.3,0-26-11.7-26-26v-44.5c0-14.3,11.7-26,26-26h323.8c14.3,0,26,11.7,26,26v44.5
		C839.6,380.9,827.9,392.6,813.5,392.6z M489.7,316c-3.3,0-6,2.7-6,6v44.5c0,3.3,2.7,6,6,6h323.8c3.3,0,6-2.7,6-6v-44.5
		c0-3.3-2.7-6-6-6H489.7z"/>
</g>
<g>
	<path class="st0" d="M786.8,283.9H463c-14.3,0-26-11.7-26-26v-44.5c0-14.3,11.7-26,26-26h323.8c14.3,0,26,11.7,26,26v44.5
		C812.8,272.2,801.2,283.9,786.8,283.9z M463,207.3c-3.3,0-6,2.7-6,6v44.5c0,3.3,2.7,6,6,6h323.8c3.3,0,6-2.7,6-6v-44.5
		c0-3.3-2.7-6-6-6H463z"/>
</g>
<path class="st1" d="M473.9,98.7h334.7c8.8,0,16,7.2,16,16v44.5c0,8.8-7.2,16-16,16H473.9c-8.8,0-16-7.2-16-16v-44.5
	C457.9,105.9,465.1,98.7,473.9,98.7z"/>
<g>
	<path class="st0" d="M813.5,84.8H489.7c-14.3,0-26-11.7-26-26V14.3c0-14.3,11.7-26,26-26h323.8c14.3,0,26,11.7,26,26v44.5
		C839.6,73.1,827.9,84.8,813.5,84.8z M489.7,8.3c-3.3,0-6,2.7-6,6v44.5c0,3.3,2.7,6,6,6h323.8c3.3,0,6-2.7,6-6V14.3c0-3.3-2.7-6-6-6
		H489.7z"/>
</g>
</svg>
