<?xml version="1.0" encoding="utf-8"?>
<!-- Generator: Adobe Illustrator 22.1.0, SVG Export Plug-In . SVG Version: 6.00 Build 0)  -->
<svg version="1.1" id="Capa_1" xmlns="http://www.w3.org/2000/svg" xmlns:xlink="http://www.w3.org/1999/xlink" x="0px" y="0px"
	 viewBox="0 0 512 512" style="enable-background:new 0 0 512 512;" xml:space="preserve">
<style type="text/css">
	.st0{fill:#51AACC;}
	.st1{fill:#F2B336;}
</style>
<g>
	<g>
		<path class="st0" d="M462,0H50C22.4,0,0,22.4,0,50v278v20c0,27.6,22.4,50,50,50h152v46h-16.2c-28.6,0-51.8,23.2-51.8,51.8v6.2
			c0,5.5,4.5,10,10,10h224c5.5,0,10-4.5,10-10v-6.2c0-28.6-23.2-51.8-51.8-51.8H310v-46h152c27.6,0,50-22.4,50-50v-20V50
			C512,22.4,489.6,0,462,0z M326.2,464c16.3,0,29.7,12.2,31.6,28H154.2c1.9-15.8,15.3-28,31.6-28H212h88H326.2z M222,444v-46h68v46
			H222z M492,348c0,16.5-13.5,30-30,30H300h-88H50c-16.5,0-30-13.5-30-30v-10h472V348z M492,318H20V50c0-16.5,13.5-30,30-30h412
			c16.5,0,30,13.5,30,30V318z"/>
	</g>
</g>
<g>
	<g>
		<path class="st1" d="M469.4,57.4c3.9-3.9,3.9-10.2,0-14.1s-10.2-3.9-14.1,0l-14.4,14.4C426.9,46.6,409.2,40,390,40
			c-41.8,0-76.4,31.5-81.4,72h-30.3c-5.5,0-10,4.5-10,10s4.5,10,10,10h30.3c1.3,10.4,4.5,20.2,9.3,29l-31.6,22.5
			c-12.8-13.4-30.7-21.7-50.6-21.7c-18.1,0-34.7,6.9-47.1,18.3l-32.9-27c5.3-9.2,8.4-19.8,8.4-31.1c0-13.5-4.3-26-11.7-36.2
			l27.3-27.3c3.9-3.9,3.9-10.2,0-14.1s-10.2-3.9-14.1,0l-27.3,27.3C128,64.3,115.5,60,102,60c-34.2,0-62,27.8-62,62
			c0,30.8,22.6,56.4,52,61.2v55.4c0,5.5,4.5,10,10,10s10-4.5,10-10v-55.4c11.7-1.9,22.3-7.1,30.9-14.6l32.9,27
			c-6.4,10.6-10.1,23-10.1,36.3c0,38.6,31.4,70,70,70s70-31.4,70-70c0-11.5-2.8-22.4-7.8-32l31.6-22.5
			c12.9,14.1,30.6,23.6,50.5,26.1v35.2c0,5.5,4.5,10,10,10s10-4.5,10-10v-35.2c40.5-5,72-39.5,72-81.4c0-18.8-6.4-36.2-17.1-50
			L469.4,57.4z M102,164c-10.3,0-19.7-3.7-27-9.8c0.3-2.6,2.3-4.8,5-5.3l4.6-0.9c4.7,3.8,10.8,6.2,17.4,6.2s12.6-2.3,17.4-6.2
			l4.6,0.9c2.7,0.5,4.6,2.7,5,5.3C121.7,160.3,112.3,164,102,164z M94.4,126.5V115c0-4.2,3.4-7.6,7.6-7.6s7.6,3.4,7.6,7.6v11.5
			c0,4.2-3.4,7.6-7.6,7.6C97.8,134.2,94.4,130.7,94.4,126.5z M141.4,136.5c-3.2-3.3-7.3-5.7-12-6.9c0.1-1,0.2-2.1,0.2-3.1V115
			c0-15.2-12.4-27.6-27.6-27.6S74.4,99.8,74.4,115v11.5c0,1,0.1,2.1,0.2,3.1c-4.6,1.2-8.7,3.6-12,6.9C60.9,132,60,127.1,60,122
			c0-23.2,18.8-42,42-42s42,18.8,42,42C144,127.1,143.1,132,141.4,136.5z M235.7,281.8c-12.5,0-23.9-4.6-32.7-12.2
			c0.1-4.1,3-7.5,7.1-8.3l6.1-1.1c5.3,4.5,12.1,7.2,19.6,7.2s14.3-2.7,19.6-7.2l6.1,1.1c4,0.8,7,4.2,7.1,8.3
			C259.6,277.2,248.2,281.8,235.7,281.8z M225.3,237.1v-13.2c0-5.7,4.6-10.3,10.3-10.3s10.3,4.6,10.3,10.3v13.2
			c0,5.7-4.6,10.3-10.3,10.3C229.9,247.4,225.3,242.8,225.3,237.1z M281.7,251.4c-4-4.8-9.6-8.3-16-9.6c0.2-1.5,0.4-3.1,0.4-4.7
			v-13.2c0-16.7-13.6-30.3-30.3-30.3s-30.3,13.6-30.3,30.3v13.2c0,1.6,0.1,3.2,0.4,4.7c-6.4,1.4-12,4.8-16,9.6c-2.6-6-4-12.6-4-19.6
			c0-27.6,22.4-50,50-50s50,22.4,50,50C285.7,238.8,284.2,245.4,281.7,251.4z M431.3,168.2c-11,9.8-25.4,15.8-41.3,15.8
			c-15.8,0-30.3-6-41.3-15.8v-0.6c0-6,4.3-11.1,10.1-12.2l8.2-1.5c6.1,5.5,14.1,8.8,22.9,8.8s16.9-3.3,22.9-8.8l8.2,1.5
			c5.9,1.1,10.1,6.2,10.1,12.2v0.6H431.3z M375.6,128.3v-15.9c0-7.9,6.5-14.4,14.4-14.4s14.4,6.5,14.4,14.4v15.9
			c0,7.9-6.5,14.4-14.4,14.4C382,142.7,375.6,136.2,375.6,128.3z M445.6,149.3c-4.7-6.9-12.1-12-20.8-13.6l-1.2-0.2
			c0.5-2.3,0.8-4.8,0.8-7.3v-15.9c0-19-15.4-34.4-34.4-34.4s-34.4,15.4-34.4,34.4v15.9c0,2.5,0.3,4.9,0.8,7.3l-1.2,0.2
			c-8.7,1.6-16.1,6.7-20.8,13.6c-4.1-8.3-6.4-17.5-6.4-27.3c0-34.2,27.8-62,62-62s62,27.8,62,62C452,131.8,449.7,141.1,445.6,149.3z
			"/>
	</g>
</g>
<g>
	<g>
		<path class="st1" d="M109.1,272.5c-1.9-1.9-4.4-2.9-7.1-2.9c-2.6,0-5.2,1.1-7.1,2.9c-1.9,1.9-2.9,4.4-2.9,7.1s1.1,5.2,2.9,7.1
			c1.9,1.9,4.4,2.9,7.1,2.9c2.6,0,5.2-1.1,7.1-2.9c1.9-1.9,2.9-4.4,2.9-7.1S110.9,274.3,109.1,272.5z"/>
	</g>
</g>
<g>
	<g>
		<path class="st1" d="M266.2,356c0-5.5-4.5-10-10-10h-0.4c-5.5,0-10,4.5-10,10c0,0.7,0.1,1.3,0.2,2c0,0,0,0,0,0.1
			c0,2.6,1.1,5.2,2.9,7.1c1.9,1.9,4.4,2.9,7.1,2.9c2.6,0,5.2-1.1,7.1-2.9c1.9-1.9,2.9-4.4,2.9-7.1c0,0,0,0,0-0.1
			C266.1,357.3,266.2,356.7,266.2,356z"/>
	</g>
</g>
</svg>
