<?xml version="1.0" encoding="utf-8"?>
<!-- Generator: Adobe Illustrator 22.1.0, SVG Export Plug-In . SVG Version: 6.00 Build 0)  -->
<svg version="1.1" id="Camada_1" xmlns="http://www.w3.org/2000/svg" xmlns:xlink="http://www.w3.org/1999/xlink" x="0px" y="0px"
	 viewBox="0 0 259.9 251.8" style="enable-background:new 0 0 259.9 251.8;" xml:space="preserve">
<style type="text/css">
	.st0{fill:#51AACC;}
	.st1{fill:#FFFFFF;}
</style>
<path class="st0" d="M0,125.8C0,90.6,0,55.4,0,20.2C0,9.8,6,2.4,16.2,0.4c0.8-0.2,1.6-0.2,2.4-0.2c39.7,0,79.4-0.4,119,0.1
	c28.8,0.4,54.6,10.3,76.8,28.7c22.9,19,37.4,43.2,43.3,72.4c1.3,6.4,2.1,13,2.2,19.5c0.7,53.8-23.2,93.2-70.6,118.2
	c-12.9,6.8-26.9,10.6-41.4,11.8c-6.3,0.5-12.6,0.9-18.9,0.9c-36.4,0.1-72.8,0-109.2,0c-9.3,0-16.8-5.6-19-14.2
	c-0.5-2-0.7-4.1-0.7-6.2C0,196.2,0,161,0,125.8z M16.9,125.8c0,31.2,0,62.4,0,93.6c0,1.3,0,2.6,0.4,3.8c1.5,5.1,5.5,7.7,11.9,7.7
	c31.9,0,63.8,0,95.8,0c1.7,0,3.4-0.2,5-0.6c4.6-1.3,7.4-5.2,7.4-10.2c0-54,0-108,0-162c0-2.2,0.6-2.9,2.8-2.9c5.4,0.1,10.7,0,16.1,0
	c3.4,0,3.4,0,3.4,3.4c0,51.4,0,102.9,0,154.3c0,0.9,0,1.8,0,2.6c0.3,3.5,3.2,6.4,6.7,6.7c3.5,0.3,6.8-2.2,7.5-5.7
	c0.3-1.4,0.3-2.9,0.3-4.3c0-45,0-90.1,0-135.1c0-0.8,0.1-1.6,0-2.4c-0.1-1.5,0.5-2.1,2.1-2.1c4.7,0.1,9.4,0.1,14.2,0
	c1.9-0.1,2.5,0.6,2.5,2.4c-0.1,6.2,0,12.5,0,18.7c0,29.4,0,58.9,0,88.3c0,1,0,1.9,0.1,2.9c0.3,2.9,1.8,5.1,4.6,6.2
	c5,2,9.9-1.5,9.9-7.2c0.1-14.1,0-28.2,0-42.2c0-14.5,0-29-0.1-43.4c0-2.2,0.6-2.7,2.7-2.6c4.5,0.2,9,0.2,13.4,0
	c2.2-0.1,2.8,0.6,2.8,2.8c-0.1,18.4-0.1,36.8,0,55.2c0,4.4,3,7.7,7.1,7.7c4.1,0,7.1-3.2,7.1-7.6c0-21.6,0-43.2,0-64.8
	c0-4.8-2.7-7.5-7.6-7.5c-7.8,0-15.5-0.1-23.3,0c-1.8,0-2.4-0.5-2.3-2.3c0.1-4.1,0-8.2,0-12.2c0-6-2.8-8.8-8.8-8.8
	c-7.1,0-14.2,0-21.4,0c-3.1,0-3.1,0-3.1-3.2c0-2.2,0.1-4.3,0-6.5c-0.3-5.1-3.1-7.7-8.1-7.7c-8.7,0-17.4-0.1-26.2,0
	c-2,0-2.7-0.6-2.5-2.6c0.1-1.9-0.1-3.9,0.1-5.8c0.6-5.5-3.9-11.3-11.2-11.2c-32.6,0.1-65.3,0.1-97.9,0c-7.1,0-11.4,5.4-11.4,11.4
	C17,63.6,16.9,94.7,16.9,125.8z"/>
<path class="st1" d="M16.9,125.8c0-31.1,0.1-62.2-0.1-93.4c0-6,4.2-11.4,11.4-11.4c32.6,0.1,65.3,0.1,97.9,0
	c7.4,0,11.8,5.8,11.2,11.2c-0.2,1.9,0.1,3.8-0.1,5.8c-0.2,2,0.5,2.6,2.5,2.6c8.7-0.1,17.4-0.1,26.2,0c5,0,7.9,2.7,8.1,7.7
	c0.1,2.2,0,4.3,0,6.5c0,3.2,0,3.2,3.1,3.2c7.1,0,14.2,0,21.4,0c6,0,8.8,2.8,8.8,8.8c0,4.1,0.1,8.2,0,12.2c-0.1,1.8,0.5,2.3,2.3,2.3
	c7.8-0.1,15.5,0,23.3,0c4.9,0,7.6,2.7,7.6,7.5c0,21.6,0,43.2,0,64.8c0,4.5-3,7.7-7.1,7.6c-4.1,0-7.1-3.3-7.1-7.7
	c0-18.4,0-36.8,0-55.2c0-2.2-0.5-2.9-2.8-2.8c-4.5,0.2-9,0.2-13.4,0c-2.1-0.1-2.7,0.5-2.7,2.6c0.1,14.5,0.1,29,0.1,43.4
	c0,14.1,0,28.2,0,42.2c0,5.6-5,9.2-9.9,7.2c-2.8-1.1-4.2-3.3-4.6-6.2c-0.1-0.9-0.1-1.9-0.1-2.9c0-29.4,0-58.9,0-88.3
	c0-6.2-0.1-12.5,0-18.7c0-1.9-0.6-2.5-2.5-2.4c-4.7,0.1-9.4,0.1-14.2,0c-1.6,0-2.2,0.5-2.1,2.1c0.1,0.8,0,1.6,0,2.4
	c0,45,0,90.1,0,135.1c0,1.4-0.1,2.9-0.3,4.3c-0.7,3.5-3.9,6-7.5,5.7c-3.6-0.3-6.5-3.1-6.7-6.7c-0.1-0.9,0-1.8,0-2.6
	c0-51.4,0-102.9,0-154.3c0-3.4,0-3.4-3.4-3.4c-5.4,0-10.7,0.1-16.1,0c-2.2-0.1-2.8,0.6-2.8,2.9c0.1,54,0,108,0,162
	c0,5-2.7,9-7.4,10.2c-1.6,0.4-3.3,0.6-5,0.6c-31.9,0-63.8,0-95.8,0c-6.4,0-10.4-2.6-11.9-7.7c-0.3-1.2-0.4-2.5-0.4-3.8
	C16.9,188.2,16.9,157,16.9,125.8z M120.2,112.6c0-21.7,0-43.5,0-65.2c0-4.6-1.8-6.4-6.4-6.4c-24.5,0-48.9,0-73.4,0
	c-4.6,0-6.4,1.8-6.4,6.4c0,43.4,0,86.8,0,130.3c0,4.7,1.8,6.6,6.5,6.6c24.4,0,48.8,0,73.2,0c4.7,0,6.5-1.9,6.5-6.5
	C120.2,155.9,120.2,134.2,120.2,112.6z M77.1,218.3c5.1,0,9.4-4.1,9.4-9.2c0-5-4.2-9.3-9.3-9.3c-5.2,0-9.6,4.2-9.5,9.4
	C67.7,214.2,72,218.3,77.1,218.3z"/>
<path class="st0" d="M120.2,112.6c0,21.7,0,43.3,0,65c0,4.7-1.8,6.5-6.5,6.5c-24.4,0-48.8,0-73.2,0c-4.6,0-6.5-1.9-6.5-6.6
	c0-43.4,0-86.8,0-130.3c0-4.5,1.8-6.4,6.4-6.4c24.5,0,48.9,0,73.4,0c4.6,0,6.4,1.8,6.4,6.4C120.2,69.1,120.2,90.8,120.2,112.6z"/>
<path class="st0" d="M77.1,218.3c-5.1,0-9.4-4.1-9.4-9.2c0-5.1,4.3-9.4,9.5-9.4c5.1,0,9.3,4.3,9.3,9.3
	C86.5,214.2,82.2,218.3,77.1,218.3z"/>
</svg>
