<?xml version="1.0" encoding="utf-8"?>
<!-- Generator: Adobe Illustrator 17.0.0, SVG Export Plug-In . SVG Version: 6.00 Build 0)  -->
<!DOCTYPE svg PUBLIC "-//W3C//DTD SVG 1.1//EN" "http://www.w3.org/Graphics/SVG/1.1/DTD/svg11.dtd">
<svg version="1.1" id="Layer_1" xmlns="http://www.w3.org/2000/svg" xmlns:xlink="http://www.w3.org/1999/xlink" x="0px" y="0px"
	 width="1464px" height="1464px" viewBox="0 0 1464 1464" enable-background="new 0 0 1464 1464" xml:space="preserve">
<g>
	<path fill="#51AACC" d="M1095.41,732V448.718c0-1.742-0.653-3.484-1.96-4.573L843.265,193.96c-1.306-1.306-2.831-1.96-4.573-1.96
		H207.023c-9.58,0-17.419,7.839-17.419,17.419V1254.58c0,9.581,7.839,17.42,17.419,17.42h870.968
		c9.581,0,17.419-7.839,17.419-17.419v-191.613h150.024c13.282,0,24.169-10.887,24.169-24.169v-282.63
		c0-13.282-10.887-24.169-24.169-24.169L1095.41,732L1095.41,732z M862.644,262.548l162,162c4.137,4.137,1.306,11.105-4.573,11.105
		h-162c-3.702,0-6.532-2.831-6.532-6.532V267.339C851.539,261.46,858.507,258.411,862.644,262.548z M1043.152,1237.161h-801.29
		c-9.581,0-17.419-7.839-17.419-17.419V244.258c0-9.581,7.839-17.419,17.419-17.419h568.306c3.702,0,6.532,2.831,6.532,6.532
		v230.806c0,3.702,2.831,6.532,6.532,6.532h230.806c3.702,0,6.532,2.831,6.532,6.532V732h-10.669
		c-13.282,0-24.169,10.887-24.169,24.169v10.669h-11.54l-61.838-46.378l-48.557-97.113v-93.629
		c0-13.282-10.887-24.169-24.169-24.169h-58.355c-9.798,0-18.726,6.097-22.427,15.242l-34.403,86.008v55.524l5.444,22.427
		c3.702,15.242-7.839,29.831-23.516,29.831H613.112c-11.54,0-21.339,8.056-23.734,19.379l-16.113,80.129
		c-0.653,3.484-0.653,7.186,0.218,10.669l21.556,86.444l-57.048,48.556v-36.145h-278.71v278.71h278.71v-196.839l66.847-56.395
		l3.484,13.718l34.403,69.46c4.137,8.274,12.411,13.5,21.556,13.5h316.597l17.419-17.419h27.435v10.669
		c0,13.282,10.887,24.169,24.169,24.169h10.669v156.774C1060.572,1229.323,1052.733,1237.161,1043.152,1237.161z M799.281,660.145
		V613.33l23.081-57.919c3.702-9.145,12.629-15.242,22.427-15.242l0,0c13.282,0,24.169,10.887,24.169,24.169v67.065l55.96,111.919
		l77.516,58.137h23.298v191.613h-42.024l-17.419,17.419H685.62c-9.145,0-17.419-5.226-21.556-13.282l-22.427-45.073l-32.008-128.468
		c-0.871-3.484-0.871-7.186-0.218-10.669l8.927-44.419c2.177-11.323,12.194-19.379,23.734-19.379h148.935
		c15.677,0,27.218-14.806,23.516-30.048L799.281,660.145z M374.031,1132.645L374.031,1132.645c8.71,0,17.202-3.048,23.734-8.71
		l105.387-89.057v132.605H294.12V958.451h209.032v30.702l-128.25,108.653h-1.742l-20.032-30.048
		c-5.226-8.056-16.113-10.234-24.169-4.79l0,0c-8.056,5.443-10.234,16.113-4.79,24.169l19.379,29.177
		C350.298,1126.548,361.838,1132.645,374.031,1132.645z M1210.596,1028.129h-125.855c-13.282,0-24.169-10.887-24.169-24.169V791.008
		c0-13.282,10.887-24.169,24.169-24.169h125.855c13.282,0,24.169,10.887,24.169,24.169v212.952
		C1234.765,1017.242,1223.878,1028.129,1210.596,1028.129z"/>
	<path fill="#51AACC" d="M537.991,343.548l67.718-57.266c7.403-6.314,8.274-17.202,1.96-24.605l0,0
		c-6.314-7.403-17.202-8.274-24.605-1.96l-45.073,38.105v-36.145h-278.71v278.71h278.71V343.548L537.991,343.548z M503.152,327.218
		l-128.25,108.653h-1.742l-20.032-30.048c-5.226-8.056-16.113-10.234-24.169-4.79l0,0c-8.056,5.444-10.234,16.113-4.79,24.169
		l19.379,29.177c6.75,10.234,18.29,16.331,30.484,16.331l0,0c8.71,0,17.202-3.048,23.734-8.71l105.387-89.056v132.605H294.12
		V296.516h209.032V327.218z"/>
	<path fill="#51AACC" d="M537.991,674.516l67.718-57.266c7.403-6.315,8.274-17.202,1.96-24.605l0,0
		c-6.314-7.403-17.202-8.274-24.605-1.96l-45.073,38.105v-36.145h-278.71v278.71h278.71V674.516L537.991,674.516z M503.152,658.185
		l-128.25,108.653h-1.742l-20.032-30.048c-5.226-8.056-16.113-10.234-24.169-4.79l0,0c-8.056,5.444-10.234,16.113-4.79,24.169
		l19.379,29.177c6.75,10.234,18.29,16.331,30.484,16.331l0,0c8.71,0,17.202-3.048,23.734-8.71l105.387-89.056v132.605H294.12
		V627.484h209.032V658.185z"/>
	<path fill="#F2B336" d="M1239.338,1069.718h-183.339c-19.379,0-35.056-14.153-35.056-31.79V757.04
		c0-17.637,15.677-31.79,35.056-31.79h183.339c19.379,0,35.056,14.153,35.056,31.79v280.669
		C1274.612,1055.347,1258.717,1069.718,1239.338,1069.718z"/>
</g>
</svg>
