<?xml version="1.0" encoding="utf-8"?>
<!-- Generator: Adobe Illustrator 22.1.0, SVG Export Plug-In . SVG Version: 6.00 Build 0)  -->
<svg version="1.1" id="Capa_1" xmlns="http://www.w3.org/2000/svg" xmlns:xlink="http://www.w3.org/1999/xlink" x="0px" y="0px"
	 viewBox="0 0 480.2 480.2" style="enable-background:new 0 0 480.2 480.2;" xml:space="preserve">
<style type="text/css">
	.st0{fill:#F2B336;}
	.st1{fill:#51AACC;}
</style>
<g>
	<g>
		<path class="st0" d="M200.2,32.1c-92.8,0-168,75.2-168,168s75.2,168,168,168s168-75.2,168-168C368.1,107.4,292.9,32.2,200.2,32.1z
			 M200.2,48.1c49.4,0,95.7,24.1,124.1,64.6l-20,20c-4.9-2.9-10.4-4.5-16.1-4.6c-17.7,0-32,14.3-32,32c0,5.7,1.6,11.3,4.5,16.2
			l-52.4,52.4c-9.9-6-22.4-6-32.3,0l-36.4-36.4c2.9-4.9,4.5-10.5,4.5-16.2c0-17.6-14.3-32-31.9-32c-14.6,0-27.3,9.8-31,24H51.6
			C66.8,98.2,128.6,48.2,200.2,48.1z M304.2,160.1c0,8.8-7.2,16-16,16s-16-7.2-16-16s7.2-16,16-16S304.2,151.3,304.2,160.1z
			 M208.2,256.1c0,8.8-7.2,16-16,16s-16-7.2-16-16s7.2-16,16-16S208.2,247.3,208.2,256.1z M128.2,176.1c0,8.8-7.2,16-16,16
			s-16-7.2-16-16s7.2-16,16-16S128.2,167.3,128.2,176.1z M274,333c-22.6,12.5-48,19.1-73.9,19.1c-83.9,0.1-151.9-67.9-152-151.8
			c0-5.4,0.3-10.8,0.9-16.2h32.3c3.6,14.1,16.3,23.9,30.9,24c5.7,0,11.3-1.6,16.2-4.5l36.4,36.4c-2.9,4.9-4.5,10.5-4.5,16.2
			c0,17.7,14.3,32,32,32s32-14.3,32-32c0-5.7-1.6-11.3-4.5-16.2l52.4-52.4c4.9,2.9,10.5,4.5,16.2,4.5c17.7,0,32-14.3,32-32
			c0-5.7-1.6-11.3-4.5-16.2l17.4-17.4C373.8,199.8,347.4,292.3,274,333z"/>
	</g>
</g>
<g>
	<g>
		<path class="st1" d="M200.2,32.1c-92.8,0-168,75.2-168,168c0,92.8,75.2,168,168,168c92.8,0,168-75.2,168-168
			C368.1,107.4,292.9,32.2,200.2,32.1z M51.7,168.1c1.3-5.8,2.9-11.6,4.8-17.1c0,0,0,0,0-0.1l0,0C77.3,90.1,134.6,48.2,200.2,48.1
			c43.6,0,84.8,18.8,113.4,51c0,0,0.1,0.1,0.1,0.1c0.1,0.1,0.3,0.3,0.5,0.6c3.6,4.1,7,8.3,10.1,12.8l-0.1,0.1
			c2.9,4.1,6,8.8,8.9,13.7l0,0c0.2,0.4,0.4,0.8,0.6,1.2c2.1,3.8,4,7.7,5.7,11.6c0,0,0,0.1,0,0.1c31.2,71,3.7,155.3-65.4,193.7
			c-22.6,12.5-48,19.1-73.9,19.1c-83.9,0.1-151.9-67.9-152-151.8c0-5.4,0.3-10.8,0.9-16.2L51.7,168.1"/>
	</g>
</g>
<g>
	<g>
		<path class="st1" d="M400.2,80.1c14.5-0.1,27.2-9.9,30.9-24h49.1v-16H431c-3.6-14.1-16.3-23.9-30.9-24c-17.7,0-32,14.3-32,32
			c0,5.7,1.6,11.3,4.5,16.2l-14.1,14.1C291.4-9.3,165.9-25.8,78.2,41.4S-25.9,234.2,41.4,321.9c63.5,82.7,179.9,102.8,267.4,46.1
			l24.1,24.1l11.3,11.3l64.4,64.4c16.4,16.4,42.9,16.4,59.3,0c16.4-16.4,16.4-42.9,0-59.3l-64.4-64.4l-11.3-11.3L368,308.6
			c42.9-66,42.9-151.1,0-217.1l16-16C388.9,78.5,394.5,80.1,400.2,80.1z M400.2,32.1c8.8,0,16,7.2,16,16s-7.2,16-16,16
			s-16-7.2-16-16S391.3,32.1,400.2,32.1z M456.6,419.8c10.2,10,10.4,26.4,0.4,36.7c-10,10.2-26.4,10.4-36.7,0.4
			c-0.1-0.1-0.3-0.3-0.4-0.4l-64.4-64.4l36.7-36.7L456.6,419.8z M380.9,344.1l-36.7,36.7L322,358.6c1.1-0.9,2.2-1.8,3.3-2.7
			s2.4-2,3.6-3c1.8-1.5,3.5-3,5.2-4.5c0.9-0.8,1.7-1.6,2.6-2.4c3.3-3.1,6.5-6.2,9.5-9.5c0.8-0.9,1.6-1.7,2.4-2.6
			c1.5-1.7,3-3.4,4.5-5.2c1-1.2,2-2.4,3-3.6c0.9-1.1,1.8-2.2,2.7-3.3L380.9,344.1z M349.8,306.9c-2.5,3.5-5.1,7-7.9,10.3
			c-0.8,1-1.7,1.9-2.5,2.9c-2.4,2.8-5,5.6-7.6,8.3c-1.1,1.2-2.3,2.3-3.5,3.5c-2.7,2.6-5.4,5.1-8.3,7.6c-1,0.8-1.9,1.7-2.9,2.5
			c-3.3,2.7-6.8,5.3-10.3,7.9c-82.8,59.2-197.9,40-257.1-42.8S9.9,109,92.8,49.9s197.9-40,257.1,42.8
			C395.6,156.8,395.6,242.9,349.8,306.9z"/>
	</g>
</g>
</svg>
