<?xml version="1.0" encoding="utf-8"?>
<!-- Generator: Adobe Illustrator 22.1.0, SVG Export Plug-In . SVG Version: 6.00 Build 0)  -->
<svg version="1.1" id="Capa_1" xmlns="http://www.w3.org/2000/svg" xmlns:xlink="http://www.w3.org/1999/xlink" x="0px" y="0px"
	 viewBox="0 0 372 332.8" style="enable-background:new 0 0 372 332.8;" xml:space="preserve">
<style type="text/css">
	.st0{fill:#51AACC;}
	.st1{fill:#F2B336;}
</style>
<g>
	<g>
		<path class="st0" d="M320,0H52C26.9,0,0,13.7,0,52v179.7c0,38.3,26.9,52,52,52h99.2v33.1h-16.5c-4.4,0-8,3.6-8,8s3.6,8,8,8h105.6
			c4.4,0,8-3.6,8-8s-3.6-8-8-8h-19.5v-33.1H320c38.3,0,52-26.9,52-52V52C372,13.7,345.1,0,320,0z M204.8,316.8h-37.6v-33.1h37.6
			L204.8,316.8L204.8,316.8z M356,231.7c0,10.8-3.5,36-36,36H52c-10.8,0-36-3.5-36-36v-11.4h340V231.7z M356,204.3H16v-152
			c0-32.5,25.2-36,36-36h268c10.8,0,36,3.5,36,36V204.3z"/>
	</g>
</g>
<g>
	<g>
		<path class="st1" d="M315.7,37.8c-3.5-2.7-8.5-1.9-11.2,1.6c0,0,0,0,0,0h0.4l-59.7,80l-28-36.4c-1.5-1.9-3.7-3-6.1-3.1
			c-2.4-0.1-4.7,0.9-6.2,2.7l-45.6,51.8l-33.4-57.1c-1.4-2.4-4-3.9-6.8-3.9c-2.8,0-5.4,1.4-6.9,3.8L57,166.4
			c-2.8,3.4-2.4,8.4,1,11.3c3.4,2.8,8.4,2.4,11.3-1c0.6-0.7,1-1.5,1.3-2.3l48-78.2l32,55.1c2.2,3.8,7.1,5.1,10.9,2.9
			c0.7-0.4,1.4-1,1.9-1.6l46.6-52.1l28.6,37.1c1.6,1.9,3.9,3,6.4,3.1c2.5,0,4.8-1.2,6.3-3.2l66-88.6
			C319.9,45.4,319.2,40.4,315.7,37.8z"/>
	</g>
</g>
</svg>
