<?xml version="1.0" encoding="utf-8"?>
<!-- Generator: Adobe Illustrator 17.0.0, SVG Export Plug-In . SVG Version: 6.00 Build 0)  -->
<!DOCTYPE svg PUBLIC "-//W3C//DTD SVG 1.1//EN" "http://www.w3.org/Graphics/SVG/1.1/DTD/svg11.dtd">
<svg version="1.1" id="Capa_1" xmlns="http://www.w3.org/2000/svg" xmlns:xlink="http://www.w3.org/1999/xlink" x="0px" y="0px"
	 width="1466.637px" height="1464.166px" viewBox="-219.757 267.532 1466.637 1464.166"
	 enable-background="new -219.757 267.532 1466.637 1464.166" xml:space="preserve">
<g>
	<g>
		<g>
			<path fill="#51AACC" d="M1008.337,1160.49c0-1.575-0.45-3.15-0.9-4.725c-0.225-0.675-0.45-1.125-0.675-1.8
				c-0.9-2.025-2.025-3.825-3.6-5.175l-108-108c-1.575-1.575-3.375-2.7-5.4-3.6c-0.45-0.225-1.125-0.45-1.575-0.675
				c-1.575-0.45-3.15-0.9-4.725-0.9c-0.45,0-0.675-0.225-1.125-0.225h-144V729.615h108c9.9,0,18-8.1,18-18
				c0-5.85-2.7-11.25-7.425-14.625l-324-234c-6.3-4.5-14.85-4.5-21.15,0l-324,234c-8.1,5.85-9.9,17.1-4.05,25.2
				c3.375,4.725,8.775,7.425,14.625,7.425h108v308.7c-11.925-1.8-23.85-2.7-36-2.7c-138.825,0-251.775,112.725-251.775,252
				s112.725,252,252,252c56.475,0,111.6-18.9,155.925-54h204.075v36c0,9.9,8.1,18,18,18h342c9.9,0,18-8.1,18-18v-360
				C1008.562,1161.165,1008.337,1160.94,1008.337,1160.49z M900.562,1097.04l46.575,46.575h-46.575V1097.04L900.562,1097.04z
				 M270.562,1071.615c87.975-0.225,167.175,53.1,200.25,134.55l-191.25,59.85l-94.275-176.85
				C212.287,1077.69,241.312,1071.615,270.562,1071.615z M481.387,1240.59c3.375,15.525,5.175,31.275,5.175,47.025
				c0,27.45-5.175,54.675-15.525,80.1l-152.55-76.275l24.525-7.65L481.387,1240.59z M158.287,1472.115
				c-64.35-39.15-103.725-109.125-103.725-184.5l0,0c0-73.35,37.125-141.75,98.775-181.35l101.25,189.9l0.225,0.225
				c0.225,0.45,0.675,0.9,1.125,1.35c0.675,0.9,1.35,1.8,2.025,2.7l0.225,0.225c0.45,0.225,0.9,0.675,1.35,0.9
				c0.9,0.675,1.8,1.35,2.7,1.8c0.225,0,0.225,0.225,0.45,0.45l192.375,96.075C392.962,1501.59,260.212,1533.99,158.287,1472.115z
				 M630.562,1053.615v396H463.387c12.6-15.075,23.625-31.725,32.4-49.275c17.775-34.875,26.775-73.575,26.775-112.725
				c0.225-111.375-73.125-209.7-180-241.425V711.615c0-9.9-8.1-18-18-18h-70.425L522.562,499.89l268.425,193.725h-70.425
				c-9.9,0-18,8.1-18,18v324h-54C638.662,1035.615,630.562,1043.715,630.562,1053.615z M972.562,1503.615h-306v-432h198v90
				c0,9.9,8.1,18,18,18h90V1503.615z"/>
		</g>
	</g>
	<g>
		<g>
			<rect x="702.562" y="1107.615" fill="#F2B336" width="126" height="36"/>
		</g>
	</g>
	<g>
		<g>
			<rect x="702.562" y="1179.615" fill="#F2B336" width="126" height="36"/>
		</g>
	</g>
	<g>
		<g>
			<path fill="#F2B336" d="M925.762,1198.965L925.762,1198.965c-9.225-3.825-19.8,0.225-23.625,9.45l-46.8,109.35l-74.475-33.075
				c-9-4.05-19.35,0-23.625,8.775l-52.875,112.5c-4.275,9-0.45,19.8,8.55,23.85c2.25,1.125,4.95,1.8,7.65,1.8
				c6.975,0,13.275-4.05,16.2-10.35l45.45-96.525l74.925,33.3c9,4.05,19.8,0,23.85-9.225v-0.225l54-126
				C939.037,1213.59,934.762,1203.015,925.762,1198.965z"/>
		</g>
	</g>
	<g>
		<g>
			<rect x="828.562" y="1431.615" fill="#F2B336" width="108" height="36"/>
		</g>
	</g>
	<g>
		<g>
			<rect x="18.562" y="765.615" fill="#F2B336" width="126" height="36"/>
		</g>
	</g>
	<g>
		<g>
			<rect x="18.562" y="837.615" fill="#F2B336" width="126" height="36"/>
		</g>
	</g>
	<g>
		<g>
			<rect x="18.562" y="909.615" fill="#F2B336" width="126" height="36"/>
		</g>
	</g>
	<g>
		<g>
			<rect x="882.562" y="513.615" fill="#F2B336" width="126" height="36"/>
		</g>
	</g>
	<g>
		<g>
			<rect x="882.562" y="585.615" fill="#F2B336" width="126" height="36"/>
		</g>
	</g>
	<path fill="#F2B336" d="M270.562,1071.615c87.975-0.225,167.175,53.1,200.25,134.55l-191.25,59.85l-94.275-176.85
		C212.287,1077.69,241.312,1071.615,270.562,1071.615z"/>
</g>
</svg>
