<?xml version="1.0" encoding="utf-8"?>
<!-- Generator: Adobe Illustrator 22.1.0, SVG Export Plug-In . SVG Version: 6.00 Build 0)  -->
<svg version="1.1" id="Camada_1" xmlns="http://www.w3.org/2000/svg" xmlns:xlink="http://www.w3.org/1999/xlink" x="0px" y="0px"
	 viewBox="0 0 1709.4 179.3" style="enable-background:new 0 0 1709.4 179.3;" xml:space="preserve">
<style type="text/css">
	.st0{display:none;}
	.st1{fill:#51AACC;}
</style>
<g id="Í_xBC__xB2_ã_x5F_2" class="st0">
</g>
<path class="st1" d="M1705.3,179h4.1c-0.1-0.8-0.8-1.6-1.7-1.7c-0.8-0.1-1.5,0.2-2,0.7l-35.2-50.7c0.1-0.2,0.2-0.5,0.3-0.8
	c0.2-1.5-0.7-2.9-2.2-3.1c-0.5-0.1-1.1,0-1.5,0.2l0-0.1c-1.2,0.8-1.4,1.5-1.5,2.3l-15.7-0.7l5.8-19.1h0.1c0.4,0.1,0.9,0,1.4-0.5l0,0
	c0,0,0.1,0,0.1-0.1c0,0,0.1,0,0.1-0.1c0-0.1,0.1-0.1,0.1-0.2l0,0c0.4-0.4,0.7-0.9,0.9-1.5c0.3-1.5-0.8-2.8-2.1-3.2
	c-0.7,0.1-0.9,0.2-1.2,0.4l-12.7-21.2c0.4-0.3,0.7-0.8,0.8-1.3c0.2-0.9-0.3-1.8-1.1-2.2l16.5-43.7c0.1-0.2,0.1-0.1,0.2-0.1
	c0,0,0,0,0.1,0v-0.1c1.2-0.1,2.2-0.9,2.4-2.1c0.2-1.4-0.7-2.7-2.1-2.9c-1.4-0.2-2.7,0.7-2.9,2.1v0.5l-45.5,6.1v0l-33.4,4.6l-2.8-3
	c0.2-0.3,0.4-0.6,0.5-1c0.1-0.7-0.1-1.3-0.6-1.8L1599.8,4c0.5,0.1,0.5,0.1,0.8,0.1c0.2,0,0.5-0.1,0.9-0.3c0,0,0,0,0,0
	c0.5-0.3,0.8-0.8,1-1.4c0.2-1.1-0.6-2.2-1.7-2.4s-2.2,0.6-2.4,1.7c-0.1,0.7,0.1,1.3,0.6,1.8l-25.5,30.7c-0.2-0.2-0.5-0.3-0.8-0.3
	c-1.2-0.2-2.2,0.6-2.4,1.7c-0.1,0.4,0,0.9,0.2,1.3l-8.7,5.5L1476.7,54c-0.2-0.7-0.8-1.3-1.6-1.5c-0.8-0.1-1.6,0.3-2.1,0.9L1438,38
	c0-0.1,0.1-0.2,0.1-0.3c0.2-1.2-0.6-2.2-1.7-2.4c-1.2-0.2-2.2,0.6-2.4,1.7c-0.2,1.1,0.5,2.1,1.6,2.4l-1.8,13.9l-184.1,16
	c-0.1-0.7-0.6-1.3-1.4-1.5c-0.9-0.2-1.8,0.5-1.9,1.4c0,0.3,0,0.6,0.1,0.8l-142.8,32.8c-0.4-0.6-0.9-1-1.6-1.1
	c-1.3-0.2-2.6,0.7-2.8,2v0.6l-112.6,20.9c-0.3-1-1.1-1.7-2.1-1.9c-1.5-0.2-2.9,0.7-3.1,2.2v0.1l-67.9-2l-9-20c0.5-0.3,0.9-0.8,1-1.4
	c0.2-1.1-0.6-2.2-1.7-2.4c-1.1-0.2-2.2,0.6-2.4,1.7c-0.1,0.8,0.2,1.6,0.7,1.8l-9.5,17.7c0.1,0.3-0.1,0.1-0.2,0.1
	c-0.7-0.1-1.4,0.1-1.8,0.6L836,79.9c0.1-0.2,0.2-0.3,0.2-0.5c0.2-0.9-0.5-1.8-1.4-1.9c-0.9-0.1-1.8,0.5-1.9,1.4V79l-93.5,4
	c-0.2-1.2-1-2.1-2.2-2.3c-1.5-0.3-2.9,0.8-3.2,2.2l-122.1-7.5c0-1.1-0.8-2-1.9-2.2c-1.3-0.2-2.5,0.6-2.7,1.9c-0.1,0.4,0,0.8,0.1,1.1
	L537,108.1c-0.4-0.7-1.1-1.3-2-1.4c-1.6-0.3-3.1,0.8-3.4,2.4v0.4L430,116.4c-0.2-1.5-1.3-2.8-2.9-3c-1.7-0.3-3.4,0.7-3.9,2.3
	L246.3,64.9c0.3-1.6-1.4-3-3.3-2.1c-0.7,0.7-0.9,1.5-0.8,2.2l-130.4,44.6c-0.3-0.5-0.8-0.9-1.4-1c-0.7-0.1-1.3,0.1-1.7,0.6L3.4,34.8
	c0.1-0.2,0.1-0.3,0.2-0.5c0.2-1-0.5-1.9-1.5-2.1c-1-0.2-1.9,0.5-2.1,1.5c-0.1,0.9,0.5,1.9,1.5,2c0.1,0,0.1,0,0.2,0l17,143.3l0,0.1
	h0.5l0-0.1L2.2,36l49.6,143l0.1,0.2h0.5l-0.1-0.2L2.6,35.6c0.1,0,0.2-0.1,0.3-0.2l91.7,95.5L63.7,179l-0.1,0.2h0.6l0.1-0.2
	l30.6-47.7l45,47.7l0.1,0.2h0.7l-0.1-0.2l-45.4-48.1l14-18.7c0.2,0.1,0.4,0.2,0.6,0.2c0.3,0.1,0.6,0,0.9-0.1l31.7,66.7l0.1,0.2h0.6
	L143,179l-31.8-66.9c0.2-0.1,0.3-0.2,0.4-0.4l77.8,48.9c-0.1,0.2-0.2,0.4-0.2,0.7c-0.1,0.5,0,0.9,0.1,1.3L155.1,179l-0.3,0.2h1.1
	l0.3-0.2l33.2-16c0.4,0.6,1,1,1.7,1.2h0.5l-4.8,14.8l0,0.1h0.5l0-0.1l4.8-14.9c0.3-0.1,0.5-0.2,0.8-0.3l11.2,15.2l0.1,0.1h0.6
	l-0.1-0.1l-11.4-15.5c0.4-0.4,0.7-0.8,0.8-1.4c0.2-1-0.3-2-1.1-2.5l50.4-93.1c0.2,0.1,0.3,0.1,0.5,0.1L243.5,179v0.1h0.5V179
	l0.4-112.4c0.3,0,0.5-0.1,0.8-0.2l75.3,99.8c-0.3,0.3-0.5,0.6-0.5,1c-0.1,0.5,0,0.9,0.3,1.3L306.4,179l-0.2,0.2h0.8l0.2-0.2
	l13.4-10.1c0.3,0.3,0.6,0.4,1,0.5h0.5l2.3,9.6l0,0.2h0.5l0-0.2l-2.3-9.7c0.4-0.1,0.7-0.4,0.9-0.7l18.9,10.4l0.2,0.1h1.1l-0.2-0.1
	l-19.7-10.9c0-0.1,0.1-0.2,0.1-0.3c0.1-0.3,0-0.6-0.1-0.9l99.6-48.3c0.5,0.9,1.4,1.6,2.5,1.7h0.3L409.8,179l0,0.1h0.5l0-0.1
	l16.4-58.6c0.2,0,0.3,0,0.5-0.1l14.4,58.7l0,0.1h0.5l0-0.1l-14.5-58.8c1.2-0.4,2.1-1.4,2.4-2.8v-0.6l101.6-6.9
	c0.1,0.5,0.3,1.1,0.7,1.5L466.5,179l-0.2,0.2h0.7l0.2-0.2l65.5-67.3c0.4,0.3,0.8,0.5,1.3,0.6c1.3,0.2,2.5-0.4,3-1.5l60.1,25.6
	c0,0.1-0.1,0.2-0.1,0.2c-0.1,0.3,0,0.6,0.1,0.9L495.5,179l-0.3,0.1h1.3l0.3-0.1l100.5-41.1c0.3,0.5,0.8,0.9,1.5,1.1
	c0.6,0.1,1.1,0,1.5-0.3l34.5,40.3l0.1,0.1h0.1l0.6,0l-0.1-0.1l0,0l-34.8-40.7c0.3-0.3,0.4-0.6,0.5-1.1v-0.4l83.7-13.5
	c0.1,0.4,0.3,0.8,0.7,1.1L644.8,179l0,0.1l0,0l0.6,0h0l0.1-0.1l40.5-54.3c0.2,0.1,0.5,0.2,0.8,0.3c0.7,0.1,1.3-0.1,1.8-0.5
	l53.1,54.5l0.1,0.1h0.7l-0.1-0.1l-53.5-54.8c0.1-0.1,0.1-0.1,0.2-0.2l76.9,38.5c0,0.1-0.1,0.3-0.1,0.4c-0.2,1,0.4,2,1.3,2.5
	l-5.4,13.6l0,0.1h0.5l0-0.1l5.4-13.4h0.1c0.3,0.1,0.7,0,1-0.1l4.7,13.5l0,0.1h0.5l0-0.1l-4.8-13.7c0.4-0.2,0.7-0.5,0.9-0.9
	l24.5,10.2l-9.2,4.4l-0.2,0.1h1.1l0.2-0.1l8.7-4.2l9.4,4.2l0.2,0.1h1.3l-0.2-0.1l-10.1-4.5l31.9-16.6c0.1,0.1,0.2,0.2,0.3,0.3
	L811.8,179l-0.1,0.1h0.6l0.1-0.1l16-20.5c0.2,0.1,0.4,0.2,0.7,0.2h0.5l3.9,20.3h0.5l-3.9-20.4l10.1,20.4h0.6l-10.2-20.7
	c0.2-0.2,0.4-0.3,0.5-0.6l15.1,7l1.4,14.3h0.5l-1.3-14l17.5,8.2l-3.9,5.8l0,0h0.6l0,0l3.8-5.6l11.1,5.6l0.1,0h1.2l-0.1,0l-12-6
	l12.3-22.8l22.7-3.2l7,19.5l-8.8,12.5h0.6l8.4-11.9l3.1,8.6l-4.9,3.3h0.9l4.2-2.9l1,2.9h0.5l-1.1-3.1l11-7.5l-0.7,10.6v0l0,0.1v0
	h0.5v0l0-0.1l0.7-10.9l59.2-40.5c0.1,0.1,0.2,0.2,0.3,0.3L943.5,179l-0.1,0.1h0.6l0.1-0.1l38.3-50.8c0.3,0.2,0.6,0.3,0.9,0.4
	c0,0,0,0,0.1,0L980,179l0,0.1h0.5l0-0.1l3.4-50.4c0.5,0,1-0.2,1.4-0.5L1026,179l0.1,0.1h0.6l-0.1-0.1l-40.9-51l0.1-0.1l57.8,44.3
	l-6.8,6.8l-0.1,0.1h0.7l0.1-0.1l6.6-6.5l7.7,6.5l0.2,0.2h0.8l-0.2-0.2l-8.2-6.9l55.8-65.8c0.3,0.2,0.6,0.3,1,0.4c0.1,0,0.1,0,0.2,0
	l0.2,72.3v0.2h0.5V179l-0.2-72.3c0.7-0.1,1.3-0.4,1.6-0.9l98.1,59.1c-0.1,0.3-0.2,0.5-0.3,0.8c-0.1,0.6,0,1.1,0.2,1.6l-24.1,11.7
	l-0.5,0.2h1.1l0.5-0.2l23.3-11.2c0.2,0.3,0.4,0.5,0.6,0.7l-8.1,10.5l-0.2,0.2h0.6l0.2-0.2l7.9-10.2c0.3,0.2,0.6,0.3,0.9,0.3
	c0.8,0.1,1.7-0.1,2.3-0.6l12.8,10.5l0.2,0.2h0.7l-0.2-0.2l-13.1-10.9c0.4-0.4,0.6-0.9,0.7-1.5V166l64.8-7.7c0.1,0.5,0.5,0.9,1.1,0.9
	l0.5,19.8l0,0.2h0.5l0-0.2l-0.5-19.8c0.2,0,0.3-0.1,0.5-0.2l19.7,20l0.2,0.2h0.7l-0.2-0.2l-20.1-20.3c0.1-0.2,0.2-0.3,0.2-0.6
	c0.1-0.5-0.1-1-0.5-1.3l38.4-33.7c0.2,0.1,0.3,0.1,0.5,0.2c0.4,0.1,0.8,0,1.1-0.1l20.2,55.8l0.1,0.2h0.5l-0.1-0.2l-20.3-56
	c0.3-0.2,0.6-0.4,0.9-0.7l105.9,48.7c-0.1,0.2-0.2,0.4-0.2,0.7c-0.2,0.9,0.2,1.8,0.8,2.3l-5.1,5l-0.2,0.2h0.6l0.2-0.2l4.8-4.7
	c0.3,0.2,0.6,0.3,1,0.4h0.8l6.8,4.3l0.3,0.2h0.5l-0.3-0.2l-6.9-4.4c0.8-0.3,1.5-1,1.7-1.9l23.3,6.3l0.8,0.2h3l-0.9-0.2l-26.2-6.8
	c0-0.4-0.1-0.7-0.2-1l65.6-12.7c0.3,0.4,0.7,0.7,1.2,0.8c1,0.2,2-0.5,2.2-1.6V157l13.1-4.6l28.5,26.6l0.2,0.2h0.7l-0.2-0.2
	l-28.7-26.8l34.4-12.6c0.3,0.5,0.8,0.9,1.4,1h0.7l12.2,38.4l0.1,0.2h0.5l-0.1-0.2l-12.3-38.6c0.5-0.3,1.1-1.2,1.2-1.8l42.1-14.8
	c0.4,0.8,1.1,1.4,2,1.5c0.4,0.1,0.8,0,1.1-0.1l13,18.4l-19.2,35.4l0,0.1h0.6l0-0.1l18.8-34.9l12.8,34.9l0,0.1h0.5l0-0.1l-12.4-35.3
	l32.8-18.8l10.1,0.5l-21.9,53.6l0,0.1h0.5l0-0.1l21.9-53.6l16.4,0.7c0.1,1.2,1,2.3,2.2,2.5c1,0.2,2-0.2,2.5-1l35.2,50.7
	C1705.4,178.5,1705.3,178.7,1705.3,179L1705.3,179z M94.8,130.5l-91-94.8l104.6,73.9c-0.1,0.2-0.2,0.4-0.2,0.6
	c-0.1,0.6,0.1,1.3,0.5,1.7L94.8,130.5z M192.7,159.4c-0.2-0.1-0.4-0.1-0.6-0.2c-1-0.2-1.9,0.2-2.4,1l-77.8-48.9
	c0.1-0.1,0.1-0.3,0.2-0.5c-0.1-0.2-0.1-0.4-0.1-0.7l130.4-44.6c0.1,0.3,0.4,0.6,0.7,0.8L192.7,159.4z M323.6,166.4
	c-0.3-0.4-0.7-0.7-1.3-0.8c-0.4-0.1-0.9,0-1.2,0.2L245.7,66c0.2-0.1,0.3-0.4,0.4-0.6L423,116.1v0.1c-0.1,0.7,0,1.3,0.2,1.9
	L323.6,166.4z M902.4,103.9c0.1,0,0.3,0.1,0.4,0.1c0.3,0.1,0.7,0,1-0.1l8.9,19.8l-18.9-0.6c-0.1-0.6-0.4-1.2-0.9-1.5L902.4,103.9z
	 M912.9,124.3l8.1,17.9c-0.2,0.1-0.3,0.2-0.5,0.4l-26.9-18.3c0.1-0.2,0.2-0.4,0.2-0.6L912.9,124.3z M835.3,80.5l54.7,41.8
	c-0.1,0.2-0.2,0.4-0.3,0.7c-0.1,0.4,0,0.8,0.1,1.1l-45.4,24.5l-9.8-67.7C834.9,80.8,835.1,80.7,835.3,80.5z M844.9,154.5l-13.4,1.9
	c-0.1,0-0.1-0.1-0.1-0.2l12.7-6.9L844.9,154.5z M739.4,83.8v-0.3l93.1-3.9c0.1,0.3,0.2,0.6,0.4,0.8L794.8,129L739,84.8
	C739.2,84.5,739.3,84.2,739.4,83.8z M599.2,135c-0.8,0-1.5,0.4-1.9,1.1l-60.1-25.6c0-0.1,0.1-0.3,0.1-0.4c0.1-0.5,0-1-0.1-1.4
	l70.3-32c0.3,0.5,0.8,0.9,1.4,1L599.2,135z M684.8,122.5v0.5l-83.7,13.5c-0.2-0.7-0.7-1.2-1.4-1.4l9.7-57.3c0.8,0,1.5-0.3,1.9-0.9
	l73.7,45C684.9,122.1,684.8,122.3,684.8,122.5z M688.8,121.2c-0.3-0.3-0.8-0.6-1.3-0.7c-0.9-0.1-1.7,0.2-2.2,0.9l-73.7-45
	c0.1-0.1,0.2-0.3,0.2-0.5l122.1,7.5c0,0.5,0.2,1,0.5,1.4L688.8,121.2z M766.2,162.1l-76.9-38.5c0-0.1,0.1-0.3,0.1-0.4
	c0.1-0.6,0-1.2-0.3-1.6l45.6-36.4c0.4,0.4,0.9,0.7,1.5,0.8c0.4,0.1,0.8,0,1.2-0.1l29.7,75.4C766.8,161.5,766.4,161.7,766.2,162.1z
	 M769.3,161.5c-0.2-0.2-0.5-0.3-0.8-0.3c-0.3-0.1-0.7,0-1,0.1l-29.7-75.4c0.4-0.3,0.6-0.4,0.8-0.7l55.8,44.3L769.3,161.5z
	 M795.3,174.5l-24.9-10.4c0-0.1,0.1-0.2,0.1-0.3v-0.4l57.1-6c0,0.1,0.1,0.2,0.1,0.2L795.3,174.5z M827.5,156.6v0.3l-57.1,6
	c-0.1-0.4-0.3-0.8-0.6-1.2l25.1-32l32.9,26.1C827.7,156.1,827.6,156.4,827.5,156.6z M829.4,155c-0.5,0-0.9,0.2-1.3,0.6l-32.9-26.1
	l38.1-48.7c0.1,0.1,0.3,0.1,0.5,0.2L829.4,155z M829.8,155l4.4-73.2l9.7,67.1l-12.8,6.9C830.8,155.4,830.4,155.1,829.8,155z
	 M831.4,157.6c0-0.1,0.1-0.2,0.1-0.3v-0.4l13.4-1.9l1.4,9.4L831.4,157.6z M864.6,173.1l-17.8-8.3l-1.4-9.8l31.4-4.4L864.6,173.1z
	 M877.1,150l-31.8,4.5l-0.8-5.3l45.5-24.6c0.2,0.1,0.4,0.3,0.6,0.4L877.1,150z M877.7,149.9l13.3-24.6c0.1,0,0.3,0.1,0.4,0.1h0.8
	l7.7,21.4L877.7,149.9z M892.7,125.3c0.2-0.2,0.5-0.4,0.6-0.6l26.9,18.3c-0.1,0.2-0.2,0.4-0.2,0.6v0.4l-19.6,2.8L892.7,125.3z
	 M900.6,147.2l19.5-2.8c0.1,0.4,0.3,0.8,0.7,1l-13.3,20.8L900.6,147.2z M910.9,175.6l-3.2-8.8l13.5-21.1c0.2,0.1,0.3,0.1,0.5,0.2
	h0.1L922,168L910.9,175.6z M921.4,142l-8-17.7l67.7,2v0.3l-57.3,16.5c-0.3-0.6-0.8-1.1-1.5-1.2C922,141.8,921.7,141.9,921.4,142z
	 M922.5,167.7l-0.2-21.8c0.9-0.1,1.6-0.8,1.7-1.7v-0.6l57.3-16.5c0.1,0.1,0.1,0.2,0.2,0.3L922.5,167.7z M1043.9,171.8l-57.8-44.3
	c0.2-0.3,0.3-0.6,0.4-1v-0.7l112.6-20.9c0.1,0.4,0.3,0.7,0.6,1L1043.9,171.8z M1654.5,100.9c-0.4,0.3-0.7,0.7-0.9,1.1l-24.5-7.8
	c0-0.1,0-0.2,0-0.3c0-0.5-0.2-1.1-0.5-1.4l11.2-12.9c0.2,0.2,0.5,0.3,0.8,0.3c0.4,0.1,0.8,0,1.2-0.2L1654.5,100.9z M1482.8,129.9
	l-10.3,11l-6.6-5.1c0.1-0.2,0.2-0.4,0.3-0.7c0.2-1-0.4-2-1.4-2.2l3.4-19.4c0.4,0,0.9-0.1,1.2-0.3l13.4,14.3
	c-0.2,0.2-0.3,0.5-0.4,0.9C1482.3,129,1482.5,129.5,1482.8,129.9z M1455.7,107.6l10.6,3.7c0,0,0,0,0,0.1c-0.2,0.9,0.4,1.8,1.3,2
	l-3.4,19.4c-0.5,0-0.9,0.1-1.3,0.4l-12-12.3L1455.7,107.6z M1450.5,120.4L1429.7,99c0.1-0.1,0.2-0.2,0.2-0.4l25.3,8.8L1450.5,120.4z
	 M1469.7,112.9c0.2-0.2,0.3-0.5,0.4-0.9c0-0.5-0.1-1-0.4-1.4l10.8-9.2l3.3,25.5c-0.2,0.1-0.4,0.2-0.6,0.3L1469.7,112.9z M1481,101
	l28.5-24.4c0.3,0.3,0.7,0.5,1.1,0.5c0.4,0.1,0.8,0,1.1-0.1l14.5,27.7l-40.5,22.9c-0.3-0.4-0.7-0.6-1.2-0.7h-0.3L1481,101z
	 M1512.1,76.8c0.2-0.1,0.3-0.3,0.5-0.5l31.2,18.4l-17.1,9.7L1512.1,76.8z M1526.4,105l8.5,15.9l-48.8,7.2c0-0.1,0-0.1-0.1-0.2
	L1526.4,105z M1526.9,104.9l17.3-9.8l10.6,6.2l-4.7,17.4l-14.7,2.2L1526.9,104.9z M1544.8,94.8l14-7.9l-3.8,13.9L1544.8,94.8z
	 M1555.2,101.6l22.2,13l-26.8,4L1555.2,101.6z M1555.3,101.1l3.9-14.6l39.6-22.3l26.6,28.3c-0.2,0.3-0.4,0.6-0.5,1
	c-0.1,0.5,0,1.1,0.3,1.5l-18.9,15.3l-28.2,4.2L1555.3,101.1z M1599.2,64l16.4-9.3l10.6,37.3c-0.1,0-0.3,0.1-0.4,0.2L1599.2,64z
	 M1606.6,110.8l46.2-6.8l-58.7,17.7c-0.1-0.2-0.2-0.3-0.3-0.5L1606.6,110.8z M1607.5,110.2l18.2-14.8c0.3,0.3,0.7,0.5,1.1,0.6
	c0.9,0.1,1.8-0.4,2.2-1.2l24.5,7.9v0.7L1607.5,110.2z M1658,32l-16.5,43.7c-0.1,0-0.1,0-0.2,0c-1.2-0.2-2.2,0.6-2.4,1.7
	c-0.1,0.7,0.1,1.3,0.5,1.8l-11.2,12.9c-0.2-0.2-0.5-0.3-0.8-0.3h-0.7l-10.6-37.4l41-23.2C1657.3,31.6,1657.6,31.9,1658,32z
	 M1656.7,30.4c0,0.2,0.1,0.3,0.2,0.4L1616,53.9l-5-17.4L1656.7,30.4z M1610.5,36.6l5,17.6l-16.6,9.4L1577.6,41L1610.5,36.6z
	 M1598.3,63.9l-38.8,21.9l11.9-44l5.5-0.7L1598.3,63.9z M1572.4,38.3c0.6,0,1.2-0.1,1.6-0.4l2.6,2.7l-5,0.7L1572.4,38.3z
	 M1571.1,37.5c0.2,0.3,0.5,0.5,0.8,0.6l-0.9,3.2l-7.8,1L1571.1,37.5z M1562.3,43l8.6-1.2l-12,44.3l-14.7,8.3l-31.5-18.5
	c0.1-0.2,0.1-0.3,0.2-0.5c0.1-0.4,0-0.9-0.2-1.3L1562.3,43z M1476.7,54.9v-0.4l84.3-11.3l-48.6,30.6c-0.3-0.4-0.8-0.7-1.3-0.8
	c-0.8-0.1-1.6,0.2-2,0.8l-32.5-18.6C1476.7,55.1,1476.7,55,1476.7,54.9z M1476.4,55.7l32.5,18.6c-0.1,0.1-0.1,0.3-0.1,0.5
	c-0.1,0.6,0,1.1,0.3,1.5l-28.2,24.1l-5.6-43.9C1475.7,56.3,1476.1,56.1,1476.4,55.7z M1474.4,56.5h0.3l5.7,44.3l-11,9.4
	c-0.3-0.2-0.6-0.4-0.9-0.5c-0.8-0.1-1.6,0.3-2,1l-10.6-3.7l18.4-50.7C1474.4,56.5,1474.4,56.5,1474.4,56.5z M1473.1,55.5
	c0.1,0.3,0.4,0.6,0.8,0.8l-18.4,50.7l-25.3-8.8v-0.1c0.2-1-0.5-2-1.5-2.3l3.2-24.3L1473.1,55.5z M1436,39.5c0.8,0,1.5-0.4,1.8-1
	l35,15.4c0,0.1-0.1,0.2-0.1,0.2l-38.6-0.8L1436,39.5z M1434.1,53.9l38.7,0.8V55l-40.9,15.9L1434.1,53.9z M1204.6,163.2
	c-1.1-0.2-2.2,0.3-2.9,1.2l-98.1-59.1c0.1-0.2,0.2-0.4,0.2-0.6c0.1-0.5,0-0.9-0.1-1.3l142.8-32.8c0.2,0.2,0.4,0.4,0.6,0.5
	l-42.3,92.1C1204.7,163.2,1204.7,163.2,1204.6,163.2z M1272,157.6v0.1l-64.9,7.7c-0.2-0.9-0.8-1.7-1.8-2.1l42.3-92.1
	c0.1,0.1,0.2,0.1,0.4,0.1l24.8,85.3C1272.4,156.8,1272,157.2,1272,157.6z M1273.6,156.5c-0.1,0-0.1,0-0.2,0s-0.2,0-0.2,0l-24.8-85.3
	c0.1,0,0.2-0.1,0.3-0.1l63,47.8c-0.4,0.4-0.7,0.8-0.8,1.4c-0.2,1,0.3,2,1.1,2.5L1273.6,156.5z M1313.9,118.2c-0.6-0.1-1.3,0-1.8,0.4
	l-63-47.8c0.2-0.3,0.4-0.6,0.4-0.9l184.1-16l-2.2,17.2l-115.7,48.5C1315.3,118.9,1314.7,118.4,1313.9,118.2z M1424.2,169.4
	c-1-0.2-2,0.3-2.6,1.1l-105.9-48.7c0.1-0.2,0.2-0.4,0.2-0.6c0.1-0.4,0-0.8-0.1-1.1l115.4-48.4l-3.1,24.1c-1,0-1.8,0.7-2,1.7
	c-0.2,1.1,0.6,2.1,1.6,2.3c0.6,0.1,1.1-0.1,1.5-0.4l21,21.6l-25.8,48.5C1424.3,169.5,1424.3,169.5,1424.2,169.4z M1424.9,169.7
	l25.8-48.3l11.8,12.2c-0.2,0.3-0.4,0.6-0.4,0.9c-0.2,1.1,0.6,2.1,1.6,2.3c0.7,0.1,1.3-0.1,1.8-0.6l6.6,5.1l-46.7,28.7
	C1425.3,169.9,1425.1,169.8,1424.9,169.7z M1491.6,156.9c-0.1,0.4-0.1,0.7,0,1l-65.6,12.7l-0.3-0.3l46.8-28.8l19.3,14.8
	C1491.7,156.5,1491.6,156.7,1491.6,156.9z M1492.1,156l-19.2-14.8l10.3-11c0.2,0.2,0.5,0.3,0.8,0.3h0.7l8,25
	C1492.4,155.7,1492.2,155.8,1492.1,156z M1495.1,156.4c-0.3-0.5-0.8-0.9-1.4-1h-0.7l-8-25c0.1-0.1,0.3-0.1,0.4-0.2l22.5,21.7
	L1495.1,156.4z M1508.5,151.7l-22.7-21.9c0.1-0.2,0.2-0.4,0.3-0.6l56.8,9.9c0,0.2,0.3-0.2,0.3,0L1508.5,151.7z M1543,138.6
	l-56.8-9.9v-0.1l48.9-7.3l8.6,16.2C1543.4,137.9,1543.1,138.2,1543,138.6z M1545.1,137.3c-0.3,0-0.6,0-0.9,0.1l-8.5-16.1l14.3-2.1
	L1545.1,137.3z M1546.1,138.8l0.2-0.1C1546.2,138.8,1546.1,138.9,1546.1,138.8z M1588.9,122.2c-0.1,0.4,0,0.8,0,1.1l-42.5,15
	c-0.2-0.4-0.5-0.7-1-0.9l5-18.3l27.6-4.1l11,6.5C1589,121.8,1588.9,122,1588.9,122.2z M1589.4,121.1l-10.5-6.2l26.7-4l-12.1,9.8
	c-0.4-0.3-0.9-0.6-1.5-0.7C1591,119.8,1590,120.3,1589.4,121.1z M1605.6,143.2l-12.9-18.1c0.8-0.4,1.3-1.1,1.5-2V123l43.7,1.9
	L1605.6,143.2z M1638.4,124.5l-44.1-1.9c0-0.1,0-0.3-0.1-0.4l59.4-17.9c0.1,0.3,0.3,0.7,0.6,0.9L1638.4,124.5z M1639,124.5l15.6-19
	c0.2,0.1,0.3,0.2,0.5,0.3l-5.8,19.2L1639,124.5z M1657.4,105.1c0,0-0.1,0.1-0.1,0.1c0,0-0.1,0.1-0.1,0.1c0,0,0,0.1-0.1,0.1l9.9,18
	c0.1-0.1,0.2-0.1,0.3-0.2L1657.4,105.1z M1658.8,32.3l-2.8,68.1h0.1c0,0,0.1,0,0.1,0c0.1,0,0.3,0,0.4-0.1l2.7-68.2
	C1659.1,32.2,1658.9,32.3,1658.8,32.3z M1601.6,3.9C1601.6,3.9,1601.6,3.9,1601.6,3.9c-0.1,0.1-0.2,0.1-0.3,0.2l9.1,31.9l0.3,0
	L1601.6,3.9z"/>
<g id="Í_xBC__xB2_ã_x5F_1">
	<g>
		<path class="st1" d="M635.5,179l-0.6,0l0.1,0.1L635.5,179L635.5,179z M644.8,179L644.8,179l0.5,0l0,0L644.8,179z M921.3,179
			L921.3,179l0.5,0.1V179H921.3z"/>
	</g>
</g>
<polygon class="st1" points="19.2,179 19.2,179.1 18.7,179.1 18.7,179 "/>
<polygon class="st1" points="52.3,179 52.4,179.1 51.9,179.1 51.8,179 "/>
<polygon class="st1" points="64.3,179 64.2,179.1 63.6,179.1 63.7,179 "/>
<polygon class="st1" points="140.6,179 140.8,179.1 140.1,179.1 139.9,179 "/>
<polygon class="st1" points="143,179 143.1,179.1 142.5,179.1 142.4,179 "/>
<polygon class="st1" points="156.2,179 155.9,179.1 154.8,179.1 155.1,179 "/>
<polygon class="st1" points="186.8,179 187.3,179 187.3,179.1 186.8,179.1 "/>
<polygon class="st1" points="204.7,179 204.8,179.1 204.2,179.1 204.1,179 "/>
<rect x="243.5" y="179" class="st1" width="0.5" height="0.1"/>
<polygon class="st1" points="306.4,179 307.2,179 307,179.1 306.2,179.1 "/>
<polygon class="st1" points="324.9,179 325,179.1 324.5,179.1 324.4,179 "/>
<polygon class="st1" points="343.5,179 343.8,179.1 342.7,179.1 342.4,179 "/>
<polygon class="st1" points="409.8,179 410.3,179 410.3,179.1 409.8,179.1 "/>
<polygon class="st1" points="442.1,179 442.2,179.1 441.7,179.1 441.6,179 "/>
<polygon class="st1" points="466.5,179 467.2,179 467,179.1 466.3,179.1 "/>
<polygon class="st1" points="495.5,179 496.8,179 496.5,179.1 495.2,179.1 "/>
<polygon class="st1" points="635.5,179 635.6,179.1 635,179.1 634.9,179.1 634.8,179 635.5,179 "/>
<polygon class="st1" points="645.5,179 645.4,179.1 645.4,179.1 644.8,179.1 644.8,179 644.8,179 "/>
<polygon class="st1" points="742.4,179 742.5,179.1 741.8,179.1 741.7,179 "/>
<polygon class="st1" points="761.8,179 762.3,179 762.3,179.1 761.8,179.1 "/>
<polygon class="st1" points="774,179 774.1,179.1 773.6,179.1 773.5,179 "/>
<polygon class="st1" points="786.5,179 786.3,179.1 785.2,179.1 785.4,179 "/>
<polygon class="st1" points="805.9,179 806.1,179.1 804.8,179.1 804.6,179 "/>
<polygon class="st1" points="812.4,179 812.4,179.1 811.8,179.1 811.8,179 "/>
<polygon class="st1" points="861,179 860.4,179 860.4,179 861,179 "/>
<polygon class="st1" points="877.1,179 877.2,179 876,179 875.9,179 "/>
<polygon class="st1" points="921.3,179 921.8,179 921.8,179.1 921.8,179.1 921.3,179.1 921.3,179 921.3,179 "/>
<polygon class="st1" points="943.5,179 944.1,179 944.1,179.1 943.5,179.1 "/>
<polygon class="st1" points="980,179 980.5,179 980.5,179.1 980,179.1 "/>
<polygon class="st1" points="1026.6,179 1026.7,179.1 1026.1,179.1 1026,179 "/>
<polygon class="st1" points="1037.5,179 1037.4,179.1 1036.7,179.1 1036.8,179 "/>
<polygon class="st1" points="1052.6,179 1052.8,179.1 1052,179.1 1051.8,179 "/>
<rect x="1101.6" y="179" class="st1" width="0.5" height="0.2"/>
<polygon class="st1" points="1177.4,179 1178.6,179 1178.1,179.2 1177,179.2 "/>
<polygon class="st1" points="1194.3,179 1194.9,179 1194.7,179.2 1194.1,179.2 "/>
<polygon class="st1" points="1219.5,179 1219.7,179.1 1219,179.1 1218.8,179 "/>
<polygon class="st1" points="1274,179 1274,179.2 1273.5,179.2 1273.5,179 "/>
<polygon class="st1" points="1294.4,179 1294.6,179.1 1293.9,179.1 1293.7,179 "/>
<polygon class="st1" points="1334.7,179 1334.8,179.1 1334.3,179.1 1334.2,179 "/>
<polygon class="st1" points="1416.7,179 1417.3,179 1417.1,179.1 1416.5,179.1 "/>
<polygon class="st1" points="1431.2,179 1431.5,179.1 1431,179.1 1430.7,179 "/>
<polygon class="st1" points="1452.2,179 1453.1,179.2 1450.1,179.2 1449.3,179 "/>
<polygon class="st1" points="1537.1,179 1537.3,179.2 1536.6,179.2 1536.4,179 "/>
<polygon class="st1" points="1557.6,179 1557.7,179.2 1557.2,179.2 1557.1,179 "/>
<polygon class="st1" points="1585.5,179 1586.1,179 1586.1,179.1 1585.5,179.1 "/>
<polygon class="st1" points="1618.2,179 1618.2,179.1 1617.7,179.1 1617.7,179 "/>
<polygon class="st1" points="1626.8,179 1627.3,179 1627.2,179.1 1626.7,179.1 "/>
</svg>
