<?xml version="1.0" encoding="utf-8"?>
<!-- Generator: Adobe Illustrator 22.1.0, SVG Export Plug-In . SVG Version: 6.00 Build 0)  -->
<svg version="1.1" id="Camada_1" xmlns="http://www.w3.org/2000/svg" xmlns:xlink="http://www.w3.org/1999/xlink" x="0px" y="0px"
	 viewBox="0 0 1709.1 120.9" style="enable-background:new 0 0 1709.1 120.9;" xml:space="preserve">
<style type="text/css">
	.st0{display:none;}
	.st1{fill:#51AACC;}
</style>
<g id="Í_xBC__xB2_ã_x5F_2" class="st0">
</g>
<g id="Í_xBC__xB2_ã_x5F_1">
	<g>
		<path class="st1" d="M1431.5,0.2h-0.5l61,40l-128.7,9.7c0-0.1,0-0.1,0.1-0.2c0.1-0.6-0.1-1.2-0.5-1.6l54.2-47.9h-0.6l-54,47.6
			c-0.2-0.1-0.4-0.2-0.7-0.2c-0.3,0-0.5,0-0.8,0l-26.2-47.4h-0.5l26.3,47.6c-0.1,0-0.1,0.1-0.2,0.1l-65.8-47.7h-0.7l66.1,48.1
			c-0.2,0.2-0.3,0.5-0.4,0.8l-82.8-4.1c-0.1-0.9-0.7-1.6-1.6-1.8h-0.1l-1.1-42.9h-0.5l1.1,42.9c-0.3,0-0.6,0.2-0.8,0.3l-54.1-43.3
			h-0.7l54.4,43.6c-0.2,0.3-0.4,0.6-0.4,0.9c0,0.2,0,0.5,0,0.7l-156.3,40.9c-0.1-0.3-0.3-0.6-0.6-0.8l78.6-85.2h-0.6l-78.3,85
			c-0.2-0.1-0.4-0.2-0.6-0.2c-0.1,0-0.3,0-0.4,0l-11.6-43.7c1.1-0.3,2-1.2,2.3-2.4c0.1-0.6,0-1.1-0.2-1.6L1178,0.2h-1.1l-72,36.5
			c-0.4-0.7-1.2-1.2-2-1.4c-0.1,0-0.2,0-0.3,0L1102,0.2h-0.5l0.6,35.1c-0.7,0.1-1.4,0.4-1.9,1l-47.5-36.1h-0.8l47.9,36.5
			c-0.2,0.3-0.4,0.7-0.4,1.1c-0.1,0.3,0,0.7,0,1l-33.8,8.9l-33.7-41.3l5.4-6.3h-0.7l-5.1,5.9l-4.9-5.9h-0.6l5.2,6.3l-54,43.8
			c-0.2-0.1-0.3-0.2-0.5-0.2l3.7-50h-0.5l-3.7,49.9c-0.4,0-0.7,0.2-1,0.5l-51.6-19.5c0.1-0.2,0.2-0.5,0.3-0.7
			c0.1-0.7-0.1-1.4-0.6-1.9L944,0.1h-0.6l-20.6,28c-0.2-0.1-0.4-0.2-0.7-0.3H922L921.7,0h-0.5l0.2,27.7c-0.1,0-0.1,0-0.2,0L912.1,0
			h-0.5l9.2,27.9c-0.5,0.3-0.9,0.7-1.1,1.3l-30.3-4.7l3.7-14c1.5,0.2,2.9-0.7,3.1-2.2c0.1-0.6,0-1.2-0.3-1.8L906.4,0h-0.9l-9.9,6.1
			c-0.1-0.2-0.3-0.3-0.4-0.4l3.7-5.7h-0.6l-3.5,5.4c-0.2-0.1-0.5-0.2-0.8-0.3c-1.1-0.2-2.2,0.4-2.8,1.3l-14-6.4h-1.2L891,7
			c-0.1,0.1-0.1,0.3-0.1,0.5c0,0.3,0,0.6,0,0.9L852.7,18c-0.2-0.5-0.5-0.9-0.9-1.1L860.9,0h-0.6l-9,16.6c-0.2-0.1-0.3-0.1-0.5-0.1
			s-0.3,0-0.5,0L848,0h-0.5l2.4,16.5c-0.1,0-0.2,0.1-0.3,0.1L840.7,0h-0.6l9,16.8c-0.3,0.2-0.6,0.5-0.7,0.8l-11.5-4.8l-3-12.8h-0.5
			l2.9,12.6L810.8,2l1.5-2h-0.6l-1.4,1.8L806,0.1h-1.3l5.3,2.2l-10.6,14.2l-19.1-0.8l-4.2-10.4l10.1-5.1h-1.1l-9.2,4.7L774,0.1h-0.5
			l2,4.9l-16.3,8.4c-0.3-0.4-0.7-0.8-1.2-1l4.2-12.3h-0.5l-4.1,12.2c-0.1,0-0.1,0-0.2,0c-0.8-0.1-1.6,0.1-2.2,0.6L742.4,0.1h-0.7
			l13.1,13.1c-0.3,0.4-0.5,0.8-0.6,1.3l0,0L642.8,6c0-0.6-0.3-1.2-0.8-1.6l3.3-4.4l-0.6,0l-3,4.1c-0.2-0.1-0.5-0.2-0.8-0.3
			c-0.6-0.1-1.2,0.1-1.7,0.4L635.5,0l-0.7,0l4,4.5c-0.3,0.3-0.5,0.7-0.6,1.2c0,0.1,0,0.2,0,0.3L450.3,19.5c0-0.1-0.1-0.3-0.1-0.4
			l46.2-19h-1.3L450,18.7c-0.1-0.2-0.2-0.4-0.4-0.6l17.3-17.9h-0.7l-16.9,17.4c-0.4-0.3-0.8-0.5-1.4-0.6c-0.5-0.1-0.9,0-1.3,0.1
			l-4.5-17h-0.5l4.5,17.2c-0.8,0.4-1.5,1.2-1.6,2.2c-0.1,0.3,0,0.6,0,0.9l-40.1,9.8c-0.3-0.8-0.9-1.4-1.6-1.7l7.4-28.4h-0.5
			l-7.4,28.2c-1.1-0.2-2.2,0.3-2.7,1.2L343.7,0.1h-1.1L399.3,30c-0.1,0.2-0.1,0.4-0.2,0.6c-0.2,0.9,0.2,1.9,0.8,2.5l-52.3,47.8
			c-0.2-0.2-0.5-0.3-0.8-0.3c-0.2,0-0.4,0-0.6,0L324.9,0.2h-0.5l21.4,80.4c-0.5,0.2-0.9,0.5-1.2,0.9l-98.9-30.3
			c0-0.1,0.1-0.2,0.1-0.3c0.1-0.5,0-0.9-0.3-1.3l61.4-49.5h-0.8l-61,49.1c-0.3-0.3-0.6-0.4-1-0.5c0,0,0,0-0.1,0l-0.1-48.7h-0.5
			l0.2,48.7c-0.3,0-0.5,0.1-0.7,0.2L204.7,0.1h-0.6l38.4,49.2c-0.3,0.3-0.5,0.6-0.5,1c-0.1,0.9,0.3,1.7,1,2l-80.9,33.9
			c-0.1,0-0.1,0-0.1,0c-0.2,0-0.4,0-0.5,0l25.7-86.1h-0.5l-25.8,86.2c-0.1,0-0.2,0.1-0.3,0.1L146.4,6.9c0.6-0.3,1-0.9,1.1-1.6
			c0.1-0.4,0-0.8-0.1-1.2l8.4-4h-1.1l-7.5,3.5c-0.3-0.5-0.9-0.9-1.6-1c-0.4-0.1-0.8,0-1.2,0.1L143,0.2h-0.6l1.5,2.9
			c-0.1,0-0.1,0.1-0.2,0.1l-3-3H140l3.3,3.4c-0.3,0.3-0.4,0.7-0.5,1.1c-0.1,0.3,0,0.7,0.1,1L73.4,35.3c-0.3-0.5-0.7-0.9-1.3-1
			c-0.4-0.1-0.8,0-1.1,0.2l-14.3-22c0.3-0.3,0.6-0.7,0.6-1.1c0.1-0.6-0.1-1.3-0.5-1.7l7.3-9.6h-0.6l-7,9.3c-0.2-0.1-0.4-0.2-0.6-0.2
			s-0.4,0-0.6,0l-3-9h-0.5l2.9,9.1c-0.5,0.3-1,0.8-1.1,1.4c-0.1,0.8,0.3,1.6,1,2L40.2,23.6l-19.9-5.4L19.1,0.1h-0.5l1.2,18.4
			L11.4,35c-0.3-0.3-0.7-0.6-1.1-0.7c-1-0.2-2,0.5-2.2,1.6c-0.1,0.9,0.3,1.7,1.1,2L1.8,93C1,92.9,0.2,93.5,0,94.3
			c-0.1,0.9,0.4,1.7,1.3,1.8c0.8,0.1,1.6-0.4,1.8-1.2L30.6,85c0.1,0.8,0.7,1.6,1.6,1.7c1,0.2,2-0.5,2.2-1.6c0-0.1,0-0.3,0-0.4
			l24.9,9.2c0.2,0.7,0.8,1.2,1.5,1.3c1,0.2,2-0.5,2.2-1.6c0-0.3,0-0.5,0-0.7l37.7-13.8c0.3,0.6,0.8,1,1.5,1.1c0.9,0.1,1.7-0.3,2.1-1
			l54.6,8.8c0,0.1-0.1,0.3-0.1,0.4c-0.2,1.5,0.7,2.9,2.2,3.1s2.9-0.7,3.1-2.2c0.2-1.2-0.5-2.4-1.6-2.9l80.9-33.9l0,0
			c0.8,0.1,1.5-0.2,1.9-0.8l99,30.3c-0.1,0.1-0.1,0.3-0.1,0.4c-0.2,1.3,0.6,2.5,1.9,2.7c0.6,0.1,1.2,0,1.6-0.3l38.4,27.5
			c-0.3,0.3-0.5,0.7-0.6,1.1c-0.2,1.1,0.6,2.2,1.7,2.4s2.2-0.6,2.4-1.7c0-0.2,0-0.5,0-0.7l41.4-12.3l25.3,10.2
			c-0.1,0.2-0.2,0.4-0.2,0.6c-0.2,0.9,0.5,1.8,1.4,2c0.8,0.1,1.6-0.3,1.9-1l122.3,3.3l0,0c-0.2,1.4,0.7,2.8,2.2,3.1s2.8-0.7,3.1-2.2
			c0-0.2,0-0.4,0-0.6l102.2-4.2c0.2,1,1.1,1.9,2.2,2.1c1.5,0.3,2.9-0.8,3.2-2.2c0-0.3,0-0.5,0-0.8l105.9-22.2
			c0.2,0.7,0.9,1.3,1.7,1.4c1,0.2,2-0.4,2.3-1.3l95.7-2.4c0,0.1,0,0.1,0,0.2c-0.4,2.1,1,4,3.1,4.4s4-1,4.4-3.1c0-0.3,0.1-0.6,0-0.8
			l88.3,17.6c0.2,0.7,0.8,1.3,1.5,1.4c1,0.2,2-0.5,2.2-1.6c0.1-0.4,0-0.7-0.1-1.1L1113,88.2c0.3,0.4,0.8,0.7,1.3,0.8
			c0.8,0.1,1.6-0.2,2.1-0.9l145.1,28.7c-0.1,0.2-0.1,0.4-0.2,0.6c-0.3,1.6,0.8,3.1,2.4,3.4s3.1-0.8,3.4-2.4c0.2-1.4-0.5-2.6-1.7-3.2
			l8.9-68.4h0.1c1.1,0.2,2.1-0.5,2.2-1.6l82.8,4.1c0.1,0.8,0.7,1.6,1.6,1.7c0.4,0.1,0.8,0,1.2-0.2l108.7,49.7
			c-0.3,0.3-0.5,0.7-0.6,1.1c-0.2,1.1,0.5,2.1,1.6,2.2c1.1,0.2,2.1-0.5,2.2-1.6c0.1-0.9-0.3-1.7-1.1-2.1l19.4-59.7l-0.2-0.1l0.2-0.1
			L1431.5,0.2z M73.7,36.5c0-0.3,0-0.5,0-0.8L143.1,6c0,0,0,0,0,0.1L87.3,55.8L72.8,37.7C73.3,37.4,73.6,37,73.7,36.5z M71.8,38
			c0.2,0,0.4,0,0.6-0.1L86.9,56l-17.7-2.9L71.8,38z M55.1,12.9L55.1,12.9c0.5,0.1,0.9,0,1.2-0.2l14.2,21.9c-0.3,0.3-0.6,0.7-0.6,1.1
			c-0.1,0.4,0,0.8,0.1,1.1L40.9,23.1L55.1,12.9z M40.6,23.9l29.7,13.4c0.2,0.3,0.6,0.5,1,0.6l-2.7,15.7L38,43.3
			c-0.2-0.3-0.5-0.5-0.9-0.7L40.6,23.9z M68.5,54.3L66,64.7L38.7,44.9c0-0.4-0.2-0.8-0.4-1.2L68.5,54.3z M39.9,24.4l-3.3,18
			c-0.1,0-0.2-0.1-0.3-0.1s-0.3,0-0.4,0L20.3,18.8L39.9,24.4z M19.9,19.1l15.5,23.3c-1.2,0.1-2.2,1-2.4,2.3v0.1L11.9,36
			c0-0.2-0.1-0.4-0.2-0.6L19.9,19.1z M2.3,93.2L9.7,38c1,0.2,2-0.5,2.2-1.6l0,0l21.1,8.9c0,0.3,0.1,0.6,0.2,0.9L2.9,93.7
			C2.7,93.5,2.5,93.3,2.3,93.2z M33.8,83.4c-0.2-0.2-0.5-0.4-0.9-0.4c-1-0.2-2,0.5-2.2,1.5L3.2,94.4c0-0.1,0-0.2-0.1-0.3l30.3-47.4
			c0.1,0.1,0.1,0.2,0.2,0.3L33.8,83.4z M59.3,93c0,0.1,0,0.3,0,0.4l-24.9-9.2c-0.1-0.2-0.1-0.4-0.3-0.5L34,47.2
			c0.4,0.3,0.9,0.6,1.4,0.7c1.3,0.2,2.5-0.4,3-1.5L59.3,93L59.3,93z M61.2,91.5c-0.7,0-1.3,0.4-1.7,1L38.6,46c0-0.1,0.1-0.2,0.1-0.3
			s0-0.1,0-0.2L66,65.3L61.2,91.5z M62.8,92.5c-0.2-0.5-0.7-0.8-1.2-0.9l4.8-26.3l34,13.2c0,0.1,0,0.2,0,0.2L62.8,92.5z M100.5,77.9
			L100.5,77.9l-34-13.1L69,54l18.1,2.6l14.3,19.9C101,76.8,100.6,77.3,100.5,77.9z M102.9,76.1c-0.4-0.1-0.7,0-1,0.1l-14.4-20
			l55.9-49.7c0.1,0.1,0.3,0.3,0.4,0.4l-40.5,69.4C103.2,76.2,103.1,76.2,102.9,76.1z M159.2,87.6l-54.6-8.8c0-0.1,0.1-0.2,0.1-0.3
			c0.1-0.8-0.2-1.6-0.9-2.1l40.5-69.3c0.1,0.1,0.3,0.1,0.5,0.1c0.4,0.1,0.8,0,1.1-0.1l14.2,79.5C159.7,86.8,159.4,87.2,159.2,87.6z
			 M1099.5,39.3c0.3,0.8,0.9,1.5,1.8,1.8l-10,15c0,0,0,0-0.1,0c-0.8-0.1-1.5,0.1-2.1,0.5l-23.2-8.4L1099.5,39.3z M1062.1,70.3
			l9.7,3.2l-35.3,0.1l-30.2,3.5c0-0.2-0.1-0.3-0.2-0.4L1062.1,70.3z M1005.8,76.3c-0.3-0.3-0.6-0.5-1-0.6c-0.5-0.1-1,0-1.4,0.3
			l-25.8-23.3c0.1-0.1,0.2-0.2,0.2-0.3l83.7,17.7L1005.8,76.3z M1072.2,73.6l40.3,13.3l-75.4-13.5L1072.2,73.6z M1072.1,73.1
			l-9.5-3.1l26-9.1c0.1,0.1,0.1,0.2,0.2,0.2L1072.1,73.1z M1088.7,56.9c-0.4,0.4-0.7,0.9-0.8,1.6c-0.1,0.7,0,1.4,0.4,2l-26.3,9.3
			L978,52l0,0c0-0.2,0-0.3,0-0.5l87.4-3.1L1088.7,56.9z M1031.5,6.8l33.5,41.1l-87.2,3c-0.1-0.2-0.2-0.3-0.3-0.4L1031.5,6.8z
			 M977.2,53l25.8,23.3c-0.2,0.3-0.4,0.6-0.5,0.9s0,0.6,0.1,0.9l-19.3,9.7L977.2,53L977.2,53z M920.4,31.5c0.3,0.2,0.6,0.4,0.9,0.4
			c0.7,0.1,1.4-0.1,1.9-0.6l51.6,19.5c-0.1,0.2-0.2,0.3-0.2,0.5v0.1l-96.7,4.9c-0.1-0.5-0.3-1-0.6-1.4L920.4,31.5z M919.6,29.7
			c0,0.5,0.1,1,0.5,1.4l-43.2,23.5c-0.2-0.2-0.5-0.3-0.7-0.4l13-29.2L919.6,29.7z M890.9,8.8c0.3,0.7,0.8,1.4,1.6,1.6l-3.7,14
			l-36-5.6c0-0.1,0-0.3,0-0.4L890.9,8.8z M852.7,19.4l36,5.6l-13,29.1c-0.4-0.1-0.9,0-1.3,0.1l-22.8-33.3
			C852.1,20.6,852.6,20,852.7,19.4z M849.9,21.1L849.9,21.1c0.5,0.1,0.8,0,1.2-0.1l22.8,33.3c-0.4,0.2-0.8,0.5-1,1l-24.4,8
			l-5.2-22.8L849.9,21.1z M848.4,61c-0.2,0-0.4,0-0.6,0l0.8,2.9l24-8.2v0.1l-22.5,7.4C850.3,62.2,849.5,61.2,848.4,61z M789.5,33
			l49-11.2l4.3,18.7L837,57.6l-47.6-23.5c0-0.1,0.1-0.3,0.1-0.4C789.5,33.5,789.5,33.2,789.5,33z M838.2,18.5l9.9,0.4V19l-9.3,2.1
			L838.2,18.5z M843,41.4l5,21.6l-10.6-5.2L843,41.4z M849.5,20.9l-6.4,18.7L839,21.7l9.3-2.1C848.4,20.2,848.9,20.7,849.5,20.9z
			 M848.2,18.1c0,0.1-0.1,0.2-0.1,0.3l0,0l-10-0.4l-1-4.5L848.2,18.1z M810.5,2.4l26,10.8l1.1,4.8L800,16.4L810.5,2.4z M799.7,17
			l38,1.6l0.6,2.8l-49,11.2c-0.1-0.4-0.3-0.7-0.6-0.9L799.7,17z M799.1,16.9l-10.7,14.4c-0.2-0.1-0.5-0.2-0.8-0.3
			c-0.4-0.1-0.7,0-1,0.1l-6.1-14.9L799.1,16.9z M775.6,5.5l4.1,10.2l-20.1-0.8c0-0.3-0.1-0.6-0.2-0.9L775.6,5.5z M759.6,15.4
			C759.6,15.4,759.6,15.3,759.6,15.4l20.4,0.7l6.1,15.1c-0.3,0.2-0.5,0.4-0.7,0.6l-26-15.8C759.5,15.9,759.6,15.7,759.6,15.4z
			 M755.4,17.2l-43.7,24.4c-0.1,0-0.2-0.1-0.4-0.1c-0.7-0.1-1.3,0.1-1.7,0.6l-58.5-6.2c0.2-0.3,0.4-0.7,0.5-1.1
			c0.1-0.4,0-0.9-0.1-1.3l102.9-17.4C754.6,16.6,755,17,755.4,17.2z M709.1,43.9l-61.8,21c-0.4-0.9-1.2-1.5-2.1-1.7c0,0,0,0-0.1,0
			l3.7-26c0.8,0,1.5-0.4,2.1-0.9l58.5,6.2c-0.1,0.2-0.2,0.4-0.3,0.7C709,43.4,709,43.7,709.1,43.9z M470,89l-14,4.2l-0.6-7.9l14.5,3
			C470,88.5,470,88.7,470,89z M455.4,84.7l-3.1-13.6c0.3,0,0.5-0.1,0.8-0.2l18.1,15.3c-0.5,0.3-0.9,0.9-1.1,1.5L455.4,84.7z
			 M413.3,76.1l-4.7-15.5l26-9.4L449.8,66c-0.4,0.4-0.7,1-0.9,1.6c-0.1,0.8,0.1,1.6,0.6,2.3l-15.2,8.5L413.3,76.1z M433.8,78.8
			l-17.5,6.7c-0.4-0.4-0.9-0.6-1.4-0.7c-0.2,0-0.4,0-0.6,0l-1.1-8.1L433.8,78.8z M348.7,82.3l59.4-21.4l4.6,15.2l-64,7
			C348.8,82.8,348.8,82.5,348.7,82.3z M477.9,55.1l-27-0.3l-1.4-9.5l28.4,8.4v0.1C477.8,54.3,477.8,54.7,477.9,55.1z M478.1,55.6
			c0.2,0.4,0.4,0.7,0.8,1l-25.6,9c-0.3-0.2-0.6-0.3-1-0.4c-0.2,0-0.3,0-0.5,0l-0.8-9.9L478.1,55.6z M451.4,65.3
			c-0.4,0.1-0.9,0.2-1.2,0.5l-15.1-14.6l15.5,4.4L451.4,65.3z M449.8,70.3c0.4,0.4,0.9,0.7,1.5,0.8c0.2,0,0.3,0,0.5,0l3.1,13.5
			l-20-6.1L449.8,70.3z M453.5,70.6c0.6-0.4,1.1-1.1,1.3-1.9c0.2-1.1-0.2-2.1-1-2.7l25.5-9.1c0.3,0.2,0.6,0.3,0.9,0.4l-7.5,28.5
			c-0.4,0-0.8,0.1-1.2,0.2L453.5,70.6z M480.7,57.3c0.6,0,1.1-0.1,1.6-0.4l51.4,30.5l-58.3,0.8c-0.1-1.2-1-2.2-2.2-2.4L480.7,57.3z
			 M482.7,56.6c0.3-0.2,0.5-0.5,0.7-0.8L642,65.2c0,0.1-0.1,0.3-0.1,0.4s0,0.2,0,0.3L534.3,87.3L482.7,56.6z M483.6,55.3
			c0-0.1,0.1-0.3,0.1-0.5c0-0.1,0-0.2,0-0.2l162-20.1c0.1,1.3,1.1,2.4,2.4,2.7h0.1l-3.7,26c-1,0-1.9,0.6-2.4,1.5L483.6,55.3z
			 M642.8,6.5L754.2,15c0,0.2,0,0.4,0.1,0.7L651.4,33c-0.4-0.9-1.2-1.5-2.2-1.7c-0.3,0-0.5,0-0.7,0l-7.3-23
			C641.9,8.1,642.6,7.4,642.8,6.5z M450.4,20L638.2,6.5c0.2,0.9,0.9,1.7,1.9,1.9c0.2,0,0.4,0,0.5,0l7.3,23c-1,0.3-1.8,1.1-2.1,2.1
			L450.3,20.2C450.4,20.1,450.4,20,450.4,20z M450.3,20.7L645.8,34l-162,20.1c-0.1-1.3-1.1-2.4-2.4-2.7c-0.9-0.1-1.7,0.1-2.4,0.6
			l-29.3-30.2C449.9,21.5,450.1,21.1,450.3,20.7z M449.3,22.2l29.3,30.2c-0.2,0.3-0.4,0.5-0.5,0.9l-28.5-8.4l-1.6-22
			C448.4,22.7,448.9,22.5,449.3,22.2z M404.6,30.6l40.1-9.8c0.3,1,1.2,1.8,2.3,2c0.2,0,0.3,0,0.5,0l1.6,21.8l-44.5-13.1
			c0,0,0,0,0-0.1C404.6,31.2,404.6,30.9,404.6,30.6z M404.4,32.1L449,45.3l1.5,9.8l-15.8-4.3l-31-17.7
			C404,32.7,404.3,32.4,404.4,32.1z M403.4,33.3l30.8,17.6l-25.7,9.3l-6.1-26.5C402.8,33.6,403.1,33.5,403.4,33.3z M400.4,33.4
			c0.3,0.2,0.6,0.3,1,0.4c0.2,0,0.4,0,0.6,0l6.1,26.6l-59.5,21.5c-0.1-0.2-0.3-0.5-0.5-0.7L400.4,33.4z M389,112.1
			c-0.3-0.2-0.6-0.4-1-0.4c-0.5-0.1-1,0-1.5,0.3l-38.4-27.5c0.3-0.3,0.4-0.6,0.6-0.9l64.1-7l1.1,8.3c-1.1,0.2-1.9,1.1-2.1,2.2
			c-0.1,0.8,0.1,1.6,0.6,2.2L389,112.1z M389.6,112.9c-0.1-0.2-0.2-0.3-0.3-0.4l23.4-22.8c0.4,0.3,0.8,0.5,1.3,0.6
			c0.9,0.2,1.8-0.2,2.4-0.8l14.1,11.3L389.6,112.9z M416.8,89c0.2-0.3,0.4-0.7,0.4-1.1c0.1-0.8-0.1-1.5-0.5-2.1l17.8-6.9l20.5,6.2
			l0.6,8.2l-24.3,7.2L416.8,89z M456.7,110.9l-25.1-10l23.9-7.1l2,16.7C457.2,110.6,457,110.7,456.7,110.9z M458.2,110.5
			c-0.1,0-0.1,0-0.2,0l-2-16.8l14.1-4.2c0.2,0.6,0.7,1.1,1.2,1.4l-13,19.7C458.3,110.5,458.3,110.5,458.2,110.5z M582,115.7
			l-122.3-3.3c0.1-0.7-0.2-1.3-0.8-1.7l13-19.7c0.1,0,0.3,0.1,0.4,0.1c1.1,0.2,2.1-0.3,2.7-1.1l107.2,25.4
			C582,115.5,582,115.6,582,115.7z M582.3,115L475.2,89.7c0.1-0.2,0.2-0.5,0.3-0.7c0-0.1,0-0.2,0-0.2l58.6-0.8l48.7,26.8
			C582.6,114.8,582.4,114.9,582.3,115z M689.3,111.2c0,0.2,0,0.4,0,0.6L587,116c-0.2-1-1.1-1.8-2.1-2c-0.6-0.1-1.3,0-1.8,0.3
			l-48.5-26.5l107.2-21.5c0.1,1.3,1.1,2.3,2.4,2.5c0.8,0.1,1.5-0.1,2.1-0.5l43.7,41.4C689.7,110.2,689.4,110.7,689.3,111.2z
			 M690.5,109.4L646.7,68c0.4-0.4,0.7-0.9,0.8-1.5c0.1-0.4,0-0.8,0-1.2l61.8-20.9c0.2,0.5,0.6,0.8,1.1,1l-18,63.6
			C691.7,108.9,691,109.1,690.5,109.4z M800.6,88.2c0,0.2,0,0.4,0,0.5l-105.9,22.2c-0.3-0.8-0.9-1.5-1.7-1.8l17.9-63.6
			c0.7,0.1,1.4-0.2,1.8-0.8l88.9,42C801.1,87.1,800.7,87.6,800.6,88.2z M712.9,44.3c0.1-0.1,0.1-0.3,0.1-0.5c0.1-0.8-0.2-1.6-0.8-2
			l43.7-24.4c0.2,0.1,0.4,0.1,0.6,0.2c0.4,0.1,0.7,0,1,0l44.2,68.6L712.9,44.3z M803.1,86.4c-0.3,0-0.5,0-0.8,0l-44.3-69
			c0.5-0.2,0.8-0.5,1.1-0.9l26,15.8c-0.1,0.2-0.2,0.4-0.2,0.6c-0.2,1.3,0.6,2.5,1.9,2.7c0.9,0.2,1.9-0.3,2.3-1L836.8,58L803.1,86.4
			L803.1,86.4z M803.9,86.8c-0.1-0.1-0.2-0.1-0.3-0.2l33.6-28.3l10.9,5.4l-0.7-2.5c-0.7,0.3-1.2,0.8-1.4,1.6
			c-0.2,1.2,0.6,2.2,1.7,2.4c1,0.2,2-0.4,2.3-1.4l22.5-7.4c-0.1,0.8,0.2,1.6,0.7,2.2L803.9,86.8z M904.7,84
			c-1.8-0.3-3.6,0.8-4.2,2.5l-95.6,2.4c0-0.2,0-0.3,0-0.5l0.1-0.2l-0.2-0.1c-0.1-0.4-0.3-0.7-0.5-0.9L873.6,59
			c0.3,0.2,0.7,0.4,1.1,0.5c1.5,0.3,2.9-0.7,3.1-2.2c0-0.1,0-0.2,0-0.3l96.7-4.9c0.1,0.7,0.7,1.2,1.4,1.3c0.2,0,0.5,0,0.7,0
			l6.2,34.8l-75.5-2.4C906.8,84.9,905.8,84.2,904.7,84z M996,104.4c0,0.1,0,0.2,0,0.3l-88.3-17.6c0-0.3-0.1-0.5-0.2-0.8l75.5,2.3
			l13.9,14.5C996.5,103.3,996.1,103.8,996,104.4z M997.9,102.8c-0.2,0-0.3,0-0.5,0.1l-14-14.5l19.4-9.7c0.2,0.4,0.6,0.6,1.1,0.8
			L997.9,102.8z M998.4,102.9l6-23.4c0.9,0,1.7-0.6,1.9-1.6c0-0.1,0-0.2,0-0.3l29.7-3.5L998.8,103
			C998.7,103,998.6,102.9,998.4,102.9z M999.4,103.5c0-0.1-0.1-0.1-0.1-0.2l37.5-29.3l75.9,13.4c0,0.1,0.1,0.2,0.1,0.4L999.4,103.5z
			 M1112.7,86.5l-40.1-13.3l16.6-11.8c0.3,0.2,0.7,0.3,1.1,0.4c0.6,0.1,1.3,0,1.8-0.3l21.4,23.9C1113,85.7,1112.8,86.1,1112.7,86.5z
			 M1113.8,85.1l-21.4-23.9c0.6-0.4,1-1.1,1.1-1.8c0.2-1.4-0.6-2.7-1.8-3.2l10-15h0.1c0.2,0,0.5,0,0.7,0l11.6,43.7
			C1114,85,1113.9,85.1,1113.8,85.1z M1264.9,115.1c-0.1,0-0.2-0.1-0.3-0.1c-1.2-0.2-2.4,0.4-3,1.4l-145-28.7c0-0.1,0.1-0.2,0.1-0.4
			c0-0.2,0-0.4,0-0.6L1273,45.8c0.2,0.4,0.5,0.7,0.9,0.9L1264.9,115.1z M1472.5,100.2L1472.5,100.2c-0.5-0.1-0.9,0-1.2,0.2
			l-108.7-49.7c0.1-0.1,0.2-0.2,0.3-0.4l128.9-9.6L1472.5,100.2z"/>
		<path class="st1" d="M1646,8.1l-0.3-0.6l-21.5,2.6c-0.4-0.2-0.6-0.4-0.9-0.5l3.9-9.5h-0.5l-3.9,9.3l0,0c-0.3,0-0.6,0-0.8,0
			l-3.8-9.3h-0.5l3.9,9.4c-0.6,0.3-1,0.8-1.1,1.5c0,0,0,0,0,0.1l-50.9,19.3c-0.1-0.5-0.3-0.9-0.6-1.2l17.1-29.2h-0.6l-16.9,28.9
			c-0.2-0.1-0.5-0.3-0.8-0.3s-0.5,0-0.8,0l-9.3-28.4h-0.5l9.3,28.6c-0.2,0.1-0.3,0.2-0.4,0.3l-28.8-28.9h-0.7l29,29.3
			c-0.2,0.2-0.3,0.5-0.4,0.8l-112-30.1h-3l115,30.6c0,1,0.7,1.9,1.8,2.1c1.2,0.2,2.2-0.6,2.4-1.7c0,0,0,0,0-0.1l50.9-19.3
			c0.1,0.9,0.8,1.7,1.7,1.9c1.2,0.2,2.2-0.6,2.4-1.7c0.1-0.5,0-0.9-0.2-1.3L1646,8.1z"/>
	</g>
</g>
<path class="st1" d="M1709.1,0.6c-0.2,1.1-1.2,1.9-2.4,1.7c-0.5-0.1-0.9-0.4-1.2-0.7L1645.8,8l-0.3-0.6l59.7-6.3
	c-0.2-0.4-0.3-0.8-0.2-1.2h4.1C1709.2,0.2,1709.2,0.4,1709.1,0.6z"/>
</svg>
