<?xml version="1.0" encoding="utf-8"?>
<!-- Generator: Adobe Illustrator 17.0.0, SVG Export Plug-In . SVG Version: 6.00 Build 0)  -->
<!DOCTYPE svg PUBLIC "-//W3C//DTD SVG 1.1//EN" "http://www.w3.org/Graphics/SVG/1.1/DTD/svg11.dtd">
<svg version="1.1" id="Layer_1" xmlns="http://www.w3.org/2000/svg" xmlns:xlink="http://www.w3.org/1999/xlink" x="0px" y="0px"
	 width="1437.818px" height="337.932px" viewBox="5.415 -0.001 1437.818 337.932"
	 enable-background="new 5.415 -0.001 1437.818 337.932" xml:space="preserve">
<path fill="#262626" d="M7.769,85.935c0.653,0.232,1.328,0.252,1.958,0.11l20.908,55.066c-0.705,0.393-1.283,1.022-1.574,1.842
	c-0.577,1.623,0.144,3.382,1.614,4.175l-17.489,48.004c-0.089-0.017-0.173-0.045-0.265-0.054c-1.721-0.176-3.26,1.076-3.436,2.798
	c-0.176,1.721,1.076,3.26,2.798,3.436c0.293,0.03,0.576,0.005,0.853-0.043l47.26,136.662h1.058L14.086,200.955
	c0.251-0.135,0.473-0.314,0.678-0.511l118.887,89.276c-0.188,0.354-0.316,0.748-0.359,1.172c-0.108,1.059,0.318,2.043,1.054,2.704
	l-28.657,44.336h1.19l28.31-43.797c0.3,0.133,0.619,0.235,0.963,0.27c0.131,0.013,0.258,0.003,0.387,0.001l7.771,43.526h1.017
	l-7.801-43.695c0.625-0.218,1.161-0.626,1.545-1.16l56.843,28.472c-0.091,0.266-0.161,0.543-0.191,0.835
	c-0.057,0.555,0.018,1.091,0.187,1.587l-28.144,13.962h2.25l26.346-13.07c0.425,0.628,1.03,1.12,1.758,1.4l-2.766,11.669h1.028
	l2.708-11.426c1.979,0.197,3.739-1.184,4.064-3.119l52.021,1.697l-8.429,12.848h1.196l8.404-12.81l27.974,0.913
	c0.078,0.867,0.435,1.661,0.983,2.294l-8.644,9.602h1.345l8.048-8.94c0.55,0.385,1.191,0.654,1.906,0.727
	c1.998,0.205,3.797-1.076,4.324-2.944l72.456,11.157h6.575l-78.887-12.146c0.005-0.176,0.018-0.354,0.001-0.525l131.86-29.924
	l-18.506,42.596h1.089l18.626-42.872l47.02-10.67c0.503,1.372,1.739,2.416,3.291,2.575c1.92,0.197,3.654-1.021,4.181-2.808
	l30.685,4.969l-97.902,48.806h4.479l96.804-48.258l38.944,6.306c-0.016,0.342,0.011,0.675,0.071,1L420.16,337.931h3.397
	l129.803-39.996c0.615,1.397,1.925,2.442,3.553,2.609c1.752,0.179,3.358-0.706,4.205-2.124l87.783,39.511h2.441l-89.802-40.419
	c0.019-0.06,0.025-0.126,0.042-0.187l83.76,12.696l12.953,27.911h1.103l-12.869-27.731l76.958,11.665
	c-0.008,0.288,0.014,0.568,0.064,0.841l-48.316,15.224h3.33l45.286-14.27c0.582,1.269,1.786,2.213,3.275,2.365
	c2.238,0.229,4.237-1.399,4.466-3.637c0.027-0.266,0.024-0.527,0.001-0.784l46.69-10.146c0.447,1.183,1.518,2.082,2.862,2.219
	c1.475,0.151,2.817-0.657,3.434-1.914l81.481,26.167h3.271l-84.45-27.12c0.012-0.071,0.036-0.138,0.043-0.211
	c0.007-0.069-0.003-0.135,0-0.204l132.631-13.728l7.135,41.263h1.018l-7.153-41.367l27.386-2.835
	c0.385,1.683,1.786,3.016,3.599,3.202c1.376,0.141,2.657-0.417,3.512-1.377l61.292,42.377h1.756l-62.477-43.195
	c0.033-0.063,0.055-0.134,0.085-0.199l47.525,15.219l24.472,28.176h1.325l-23.962-27.588l61.234,19.609l-6.383,7.979h1.281
	l6.122-7.651l22.715,7.274c-0.022,0.117-0.059,0.229-0.072,0.349c-0.001,0.01,0.001,0.019,0,0.029h11.784l22.725-2.661l2.494,2.661
	h1.37l-2.629-2.805l113.167-13.247c0.237,0.778,0.81,1.413,1.56,1.746l-3.473,14.305h1.031l3.415-14.068
	c0.248,0.015,0.489-0.007,0.722-0.054l5.62,14.121h1.076l-5.766-14.49c0.338-0.212,0.627-0.493,0.85-0.827l35.429,15.317h2.519
	l-37.554-16.235c0.028-0.115,0.061-0.228,0.073-0.35c0.012-0.114,0.002-0.224,0-0.335l67.64-13.46l-24.065,30.38h1.277
	l24.304-30.682l14.485-2.882l1.669,33.563h1l-1.679-33.76l10.644-2.118l11.422,12.258l-20.155,23.62h1.313l19.528-22.886
	l7.959,8.542l-3.69,14.344h1.033l3.467-13.474l10.515,11.285l0.233,2.19h1.004l-0.103-0.972l0.905,0.972h1.368l-2.449-2.628
	l-3.888-36.563c1.068-0.313,1.894-1.242,2.015-2.417c0.123-1.204-0.535-2.3-1.559-2.807l10.263-35.677l21.49,80.092h1.036
	l-21.99-81.956l10.96-38.103c0.078,0.012,0.15,0.039,0.23,0.047c2.276,0.233,4.31-1.423,4.543-3.699
	c0.187-1.831-0.859-3.489-2.456-4.194l48.516-160.262l-26.168,288.167h1.005l26.324-289.888c1.492-0.104,2.74-1.26,2.897-2.799
	c0.176-1.719-1.076-3.257-2.798-3.433c-1.385-0.142-2.638,0.648-3.172,1.856l-154.33-40.239c0.163-1.712-1.084-3.237-2.798-3.413
	c-1.721-0.176-3.26,1.076-3.436,2.798c-0.074,0.725,0.116,1.41,0.477,1.981L1170.557,98.86c-0.473-0.392-1.063-0.654-1.72-0.721
	c-1.602-0.164-3.037,0.884-3.425,2.398l-91.713-8.716c-0.062-1.85-1.466-3.419-3.358-3.613c-2.066-0.212-3.911,1.292-4.123,3.357
	c-0.129,1.261,0.386,2.436,1.273,3.211l-39.311,65.91l-125.411,30.135c-0.507-0.818-1.363-1.407-2.394-1.513
	c-1.764-0.181-3.341,1.103-3.522,2.868c-0.021,0.201-0.017,0.399-0.001,0.593l-49.127,20.786l-75.348-57.487
	c0.032-0.124,0.065-0.249,0.078-0.38c0.145-1.419-0.888-2.688-2.307-2.833c-1.341-0.137-2.534,0.782-2.786,2.079L644.61,180.791
	c-0.415-0.597-1.069-1.023-1.85-1.103c-1.211-0.124-2.305,0.613-2.693,1.712l-50.117-7.282c-0.003-1.743-1.306-3.24-3.078-3.422
	c-0.695-0.071-1.36,0.073-1.936,0.372l-39.699-55.093c0.77-0.701,1.305-1.666,1.42-2.783c0.247-2.41-1.507-4.563-3.917-4.81
	s-4.563,1.507-4.81,3.917c-0.143,1.398,0.4,2.697,1.341,3.6l-31.262,41.18c-0.212-0.095-0.438-0.168-0.682-0.193
	c-0.906-0.093-1.737,0.372-2.162,1.115l-39.024-11.727c0.077-1.191-0.794-2.241-1.992-2.363c-1.225-0.125-2.32,0.766-2.446,1.991
	c-0.067,0.655,0.163,1.268,0.573,1.72l-29.651,42.705c-0.188-0.075-0.385-0.135-0.596-0.156c-1.225-0.125-2.32,0.766-2.446,1.992
	c-0.044,0.433,0.044,0.847,0.223,1.21l-6.901,5.631l-50.366-22.933c0.035-0.136,0.07-0.271,0.085-0.415
	c0.161-1.57-0.982-2.973-2.552-3.134c-1.455-0.149-2.753,0.826-3.066,2.218l-82.261-3.676L232.633,65.878
	c1.076-0.698,1.848-1.843,1.989-3.218c0.247-2.41-1.507-4.563-3.917-4.81c-1.887-0.193-3.603,0.849-4.383,2.464l-112.02-38.985
	c0.051-0.214,0.11-0.425,0.133-0.65c0.282-2.754-1.722-5.215-4.476-5.497c-2.754-0.282-5.215,1.722-5.497,4.476
	c-0.099,0.969,0.097,1.896,0.498,2.711L11.653,80.337c-0.391-0.467-0.898-0.849-1.514-1.068c-1.841-0.655-3.864,0.307-4.518,2.148
	C4.966,83.258,5.928,85.28,7.769,85.935z M14.131,195.462l17.485-47.993c1.658,0.343,3.356-0.566,3.94-2.206
	c0.064-0.179,0.1-0.36,0.133-0.542l82.612,2.758c0.028,0.354,0.099,0.695,0.208,1.023L15.185,196.446
	C14.913,196.045,14.56,195.702,14.131,195.462z M134.26,288.928L15.373,199.65c0.181-0.344,0.305-0.725,0.347-1.135
	c0.041-0.405-0.003-0.797-0.107-1.165l103.325-47.944c0.69,1.126,1.865,1.938,3.281,2.083c0.123,0.013,0.241-0.002,0.363,0.001
	l13.098,136.637C135.139,288.267,134.655,288.546,134.26,288.928z M136.804,288.031c-0.044-0.005-0.086,0.003-0.129,0
	l-13.098-136.636c0.668-0.143,1.288-0.423,1.81-0.837l63.983,64.069l-51.496,73.72C137.545,288.187,137.189,288.071,136.804,288.031
	z M423.87,234.928l17.014,18.504c-0.107,0.164-0.193,0.342-0.248,0.537l-80.952-2.081l25.273-20.625L423.87,234.928z
	 M386.06,230.363l19.203-15.671l17.596,19.137L386.06,230.363z M532.196,167.037l-0.267,1.513l-14.906-5.994L532.196,167.037z
	 M516.8,161.448l15.853,2.998l-0.283,1.6L516.8,161.448z M532.698,169.938l41.126,16.538l-52.251,53.784
	c-0.355-0.267-0.749-0.486-1.186-0.622L532.698,169.938z M694.044,214.829c-0.004,0.046,0.002,0.09,0,0.135l-33.598,5.267
	l-51.57-20.738l12.401-6.151L694.044,214.829z M622.594,192.688l5.317-2.637l54.932,20.428L622.594,192.688z M704.035,236.21
	c-0.459,0.264-0.844,0.641-1.12,1.098l-31.953-12.849l23.427-8.094c0.402,0.688,1.109,1.185,1.962,1.272
	c0.235,0.024,0.462,0.005,0.684-0.032L704.035,236.21z M697.972,217.253c0.422-0.262,0.762-0.641,0.976-1.101l88.724,21.718
	l-79.006,0.532c-0.229-1.354-1.324-2.449-2.757-2.596c-0.322-0.033-0.633-0.001-0.935,0.06L697.972,217.253z M548.488,249.14
	l27.942,4.988l-38.341-0.031L548.488,249.14z M548.347,248.099l-25.207-4.5c0.005-0.106,0.004-0.21,0-0.313l53.102-8.483
	L548.347,248.099z M578.066,255.129c0.003,0.022,0.01,0.042,0.013,0.064L481.35,281.14l54.644-26.045L578.066,255.129z
	 M550.038,248.401l28.577-13.621c0.404,0.543,1.015,0.925,1.734,1.018l0.987,14.853c-1.463,0.282-2.68,1.337-3.125,2.779
	L550.038,248.401z M580.433,230.671c-1.202,0.114-2.195,1.061-2.322,2.308c-0.006,0.061,0.002,0.12,0,0.181l-55.117,9.115
	c-0.016-0.053-0.041-0.103-0.059-0.155l59.271-29.399L580.433,230.671z M522.482,241.227c-0.061-0.093-0.115-0.19-0.184-0.277
	l52.529-54.071l9.552,3.841l-2.058,20.827L522.482,241.227z M602.375,248.157l21.726-7.507l28.425,4.519l-46.128,5.868
	L602.375,248.157z M604.941,251.223l-18.106,2.303l14.382-4.969L604.941,251.223z M626.11,239.957l43.411-14.999l33.028,13.281
	c-0.028,0.121-0.063,0.239-0.076,0.365c-0.007,0.072,0.002,0.14,0,0.211l-46.406,5.904L626.11,239.957z M662.44,221.033
	l28.601-4.569l-21.495,7.427L662.44,221.033z M668.105,224.388l-44.093,15.235l-39.067-6.211l75.577-12.073L668.105,224.388z
	 M622.003,240.317l-20.626,7.126l-18.355-13.14c0.026-0.057,0.052-0.113,0.073-0.172L622.003,240.317z M600.221,247.844l-14.472,5
	c-0.599-1.218-1.783-2.115-3.232-2.263c-0.062-0.006-0.121,0.003-0.182,0l-0.986-14.85c0.415-0.111,0.787-0.325,1.094-0.614
	L600.221,247.844z M586.153,255.047c0.015-0.144,0.001-0.284,0.001-0.426l19.982-2.542l15.007,10.743
	c-0.11,0.198-0.193,0.411-0.272,0.627l-34.727-8.358C586.146,255.076,586.152,255.063,586.153,255.047z M607.594,251.894
	l48.455-6.164l28.27,4.494c-0.006,0.187-0.018,0.375,0.001,0.557l-55.222,12.71c-0.55-1.546-1.935-2.724-3.675-2.902
	c-1.442-0.148-2.783,0.431-3.688,1.428L607.594,251.894z M659.589,245.279l42.997-5.47c0.041,0.14,0.101,0.271,0.161,0.402
	l-11.293,7.502c-0.656-0.763-1.588-1.292-2.668-1.403c-1.991-0.204-3.785,1.066-4.32,2.924L659.589,245.279z M658.517,220.533
	l-75.419,11.823c-0.276-0.75-0.884-1.348-1.671-1.585l1.835-18.574l24.413-12.109L658.517,220.533z M583.378,211.023l1.967-19.914
	l21.087,8.479L583.378,211.023z M584.482,189.684l-8.901-3.579l4.723-4.861l4.87,1.438L584.482,189.684z M580.006,180.113
	l-46.671-13.782l0.3-1.699l49.457,9.353c-0.033,0.831,0.225,1.611,0.7,2.231L580.006,180.113z M579.22,180.923l-4.642,4.778
	l-41.701-16.769l0.284-1.61L579.22,180.923z M522.981,244.587l23.817,4.252l-11.028,5.257l-27.39-0.022l8.298-7.646
	c0.583,0.491,1.316,0.82,2.135,0.904C520.712,247.526,522.433,246.34,522.981,244.587z M454.467,237.811L515,243.512l-70.593,10.234
	c-0.085-0.203-0.199-0.39-0.344-0.553L454.467,237.811z M443.235,252.632c-0.149-0.053-0.304-0.095-0.468-0.111
	c-0.015-0.002-0.029,0.001-0.043,0l-2.785-16.079l13.393,1.262L443.235,252.632z M515.42,244.462
	c0.123,0.442,0.327,0.85,0.589,1.218l-9.106,8.392l-57.443-0.047L515.42,244.462z M515.872,241.335l-48.768-22.206l20.505-30.316
	l29.243,51.447C516.462,240.553,516.131,240.916,515.872,241.335z M515.446,242.24c-0.03,0.097-0.04,0.203-0.062,0.303
	l-60.277-5.677l11.429-16.897L515.446,242.24z M453.971,236.759l-14.209-1.338l-5.198-30.009l31.048,14.137L453.971,236.759z
	 M441.739,252.695c-0.041,0.019-0.085,0.031-0.125,0.052l-16.256-17.68l13.549,1.276L441.739,252.695z M323.579,278.612
	l-26.606,9.351l7.275-33.907c0.626,0.031,1.219-0.124,1.726-0.424l18.408,22.037c-0.468,0.523-0.787,1.187-0.864,1.938
	C323.483,277.953,323.516,278.287,323.579,278.612z M295.867,288.352l-20.012,7.034l27.29-41.595
	c0.042,0.019,0.083,0.037,0.126,0.054L295.867,288.352z M306.745,252.994c0.348-0.401,0.585-0.898,0.69-1.449l49.526,1.273
	l-27.698,22.603c-0.527-0.482-1.2-0.813-1.966-0.892c-0.782-0.08-1.523,0.119-2.145,0.501L306.745,252.994z M358.494,252.858
	l81.91,2.106l-53.195,24.545l-56.841-1.935c-0.055-0.498-0.225-0.962-0.473-1.377L358.494,252.858z M441.006,255.788
	c0.095,0.116,0.206,0.218,0.325,0.311l-10.812,24.885l-41.087-1.399L441.006,255.788z M358.15,251.848l-50.682-1.303
	c-0.08-0.586-0.32-1.127-0.687-1.567l20.055-23.19l56.703,5.341L358.15,251.848z M326.416,224.745l-12.084-1.138
	c-0.021-0.74-0.239-1.432-0.613-2.03l51.961-42.233L326.416,224.745z M314.237,224.602l11.376,1.072l-19.594,22.656
	c-0.153-0.094-0.316-0.173-0.487-0.24l4.384-20.311C311.974,227.963,313.801,226.577,314.237,224.602z M304.555,247.878
	c-0.727-0.036-1.409,0.18-1.963,0.58l-18.144-18.105l22.028-5.212c0.418,1.12,1.309,2.019,2.464,2.422L304.555,247.878z
	 M220.088,248.08c1.566,0.159,2.966-0.881,3.32-2.373l77.724,5.529l-87.543,20.984L220.088,248.08z M212.482,272.486l-72.517,17.382
	l77.998-42.962c0.304,0.388,0.704,0.693,1.163,0.902L212.482,272.486z M223.7,244.725l59.605-14.102l18.582,18.542
	c-0.23,0.321-0.399,0.685-0.494,1.086L223.7,244.725z M306.228,223.312c-0.03,0.292-0.025,0.579,0.006,0.859l-22.617,5.351
	L225.471,171.5l81.128,50.523C306.414,222.422,306.276,222.849,306.228,223.312z M282.473,229.793l-59.218,14.011
	c-0.393-0.942-1.234-1.653-2.289-1.85l1.48-69.779c0.601-0.075,1.156-0.309,1.625-0.659L282.473,229.793z M219.966,241.927
	c-0.503,0.071-0.968,0.265-1.368,0.552l-27.93-27.967l29.811-42.677c0.298,0.149,0.623,0.251,0.966,0.309L219.966,241.927z
	 M189.951,213.794l-63.859-63.945c0.308-0.387,0.552-0.827,0.716-1.31l91.781,19.987c-0.072,1.065,0.349,2.049,1.074,2.734
	L189.951,213.794z M139.003,289.257c-0.094-0.121-0.201-0.229-0.311-0.335l51.396-73.576l27.804,27.841
	c-0.307,0.426-0.521,0.928-0.579,1.489c-0.049,0.475,0.022,0.931,0.172,1.353L139.003,289.257z M199.844,319.026
	c-1.42-0.145-2.722,0.531-3.475,1.632l-56.839-28.471c0.065-0.206,0.111-0.42,0.134-0.643c0.02-0.195,0.015-0.387,0.001-0.575
	l72.52-17.383l-12.24,45.461C199.91,319.042,199.879,319.03,199.844,319.026z M200.909,319.314l12.384-45.995l88.258-21.156
	c0.174,0.412,0.429,0.78,0.756,1.081l-28.006,42.686l-71.495,25.129C202.406,320.279,201.735,319.661,200.909,319.314z
	 M255.817,324.103l-52.614-1.716c-0.013-0.13-0.05-0.253-0.076-0.38l70.27-24.698L255.817,324.103z M284.364,325.035l-27.376-0.893
	l17.963-27.379l20.67-7.265l-6.892,32.117C286.59,321.426,284.696,322.932,284.364,325.035z M290.514,322.219
	c-0.252-0.156-0.52-0.291-0.808-0.391l7.021-32.719l27.17-9.55c0.14,0.266,0.322,0.504,0.525,0.724L290.514,322.219z
	 M291.817,323.526c-0.152-0.244-0.328-0.468-0.527-0.674l33.906-41.935c0.416,0.247,0.886,0.416,1.399,0.469
	c1.802,0.184,3.405-1.061,3.725-2.812l54.869,1.868L291.817,323.526z M424.778,294.198l-131.873,29.927l94.507-43.608l42.679,1.453
	L424.778,294.198z M472.279,283.418l-46.292,10.505l5.178-11.917l41.114,1.4C472.279,283.41,472.279,283.414,472.279,283.418z
	 M478.746,280.019c-0.585-0.493-1.318-0.822-2.137-0.906c-2.088-0.214-3.947,1.248-4.28,3.293l-40.735-1.386l10.656-24.526
	c0.037,0.006,0.071,0.018,0.109,0.022c1,0.102,1.897-0.551,2.141-1.496l61.319,0.05L478.746,280.019z M479.509,280.912
	c-0.032-0.05-0.063-0.099-0.097-0.146l27.882-25.694l26.38,0.022L479.509,280.912z M512.202,288.362l-32.07-5.193
	c0.008-0.223,0.004-0.443-0.025-0.658L575,257.056L512.202,288.362z M557.807,291.817c-2.153-0.22-4.091,1.161-4.658,3.175
	l-37.564-6.082l63.438-31.624c0.176,0.205,0.373,0.389,0.587,0.556l-20.459,34.356C558.732,292.009,558.288,291.866,557.807,291.817
	z M561.093,293.906c-0.284-0.464-0.647-0.871-1.08-1.202l20.46-34.358c0.379,0.166,0.78,0.294,1.214,0.339
	c1.88,0.192,3.577-0.934,4.213-2.623l34.731,8.359c-0.004,0.029-0.014,0.056-0.017,0.085c-0.065,0.634,0.016,1.248,0.204,1.817
	L561.093,293.906z M561.724,296.336c0.019-0.531-0.045-1.046-0.204-1.526l59.725-27.583c0.69,1.13,1.867,1.944,3.285,2.09
	c0.637,0.065,1.253-0.017,1.824-0.207l18.482,39.824L561.724,296.336z M723.624,320.875l-77.603-11.763l-18.764-40.433
	c0.498-0.305,0.926-0.706,1.268-1.182l95.251,52.958C723.72,320.593,723.665,320.73,723.624,320.875z M724.262,319.581
	l-95.252-52.958c0.16-0.385,0.285-0.789,0.33-1.224c0.033-0.318,0.026-0.631-0.008-0.936l55.226-12.711
	c0.519,1.418,1.796,2.497,3.399,2.661c0.674,0.069,1.318-0.047,1.907-0.281l35.303,64.549
	C724.82,318.931,724.516,319.233,724.262,319.581z M778.064,309.898c-0.02,0.198-0.014,0.392-0.001,0.584L731.37,320.63
	c-0.507-1.441-1.797-2.542-3.418-2.707c-0.674-0.069-1.318,0.047-1.907,0.281l-35.303-64.549c0.911-0.657,1.558-1.672,1.681-2.878
	c0.082-0.799-0.081-1.562-0.416-2.231l11.293-7.502c0.5,0.54,1.181,0.916,1.97,0.996c0.83,0.085,1.613-0.168,2.226-0.64
	l71.181,66.889C778.353,308.754,778.126,309.295,778.064,309.898z M781.475,306.82c-0.792,0.004-1.533,0.266-2.121,0.732
	l-71.179-66.885c0.251-0.371,0.425-0.797,0.498-1.265l80.273-0.54c0.188,1,0.899,1.834,1.874,2.156L781.475,306.82z M783.551,307.5
	c-0.322-0.241-0.684-0.433-1.084-0.551l9.345-65.799c0.996-0.037,1.882-0.589,2.353-1.431l42.801,14.731L783.551,307.5z
	 M784.822,309.402c-0.111-0.436-0.303-0.838-0.565-1.193l53.764-53.396l76.871,26.458l2.492,14.41L784.822,309.402z
	 M914.697,280.146l-75.886-26.118l25.487-25.313l47.813,36.478L914.697,280.146z M913.28,266.086l32.412,24.729l-29.916-10.297
	L913.28,266.086z M945.837,292.39c-0.012,0.117,0.002,0.23-0.001,0.346l-27.456,2.842l-2.409-13.935l29.956,10.31
	C945.896,292.098,945.853,292.239,945.837,292.39z M953.192,290.228l14.548-19.029l19.863,22.869l-33.523-1.564
	C954.017,291.655,953.702,290.866,953.192,290.228z M1074.784,150.152l0.861,9.067l-16.771-3.674
	c0.024-0.289,0.009-0.57-0.031-0.846L1074.784,150.152z M1060.78,153.107l13.668-6.499l0.24,2.531L1060.78,153.107z
	 M1075.745,160.266l0.573,6.036l-17.69-9.715c0.009-0.022,0.02-0.043,0.028-0.065L1075.745,160.266z M1384.965,212.854l-19.751-2.17
	l-4.817-17.952l25.01,18.983C1385.204,212.063,1385.061,212.447,1384.965,212.854z M1385.951,216.6l-14.54,17.178l-5.919-22.057
	l19.365,2.127C1384.869,214.9,1385.273,215.867,1385.951,216.6z M1364.146,210.567l-39.534-4.343l-0.81-41.269l35.294,26.789
	L1364.146,210.567z M1129.836,196.835l-39.828,99.735c-0.091-0.018-0.178-0.046-0.272-0.056c-0.017-0.002-0.034,0.001-0.051,0
	l-12.193-128.426L1129.836,196.835z M1077.378,166.884l-0.607-6.394l62.142,13.614l-8.704,21.795L1077.378,166.884z
	 M1130.718,197.319l40.719,22.363c-0.065,0.194-0.114,0.396-0.136,0.608c-0.09,0.875,0.241,1.689,0.816,2.267l-31.607,45.373
	l-48.95,29.531c-0.179-0.203-0.389-0.379-0.622-0.525L1130.718,197.319z M1256.403,195.82c-0.176-0.048-0.353-0.093-0.54-0.112
	c-0.113-0.012-0.222,0-0.333,0l-12.625-88.842c0.954-0.235,1.803-0.741,2.461-1.446l37.762,28.663L1256.403,195.82z
	 M1283.949,134.704l38.839,29.48l0.823,41.93l-64.67-7.104c-0.042-1.166-0.666-2.2-1.62-2.793L1283.949,134.704z M1254.537,195.833
	c-0.327,0.097-0.627,0.25-0.907,0.435l-26.648-29.957l14.068-59.339c0.051,0.007,0.098,0.026,0.15,0.031
	c0.242,0.025,0.478,0.011,0.714,0.001L1254.537,195.833z M1254.575,202.444l-3.59,27.457l-19.905-15.443l21.771-13.134
	C1253.288,201.856,1253.885,202.25,1254.575,202.444z M1252.872,196.922c-0.245,0.292-0.433,0.633-0.571,0.999l-31.193-6.834
	l5.592-23.588L1252.872,196.922z M1252.083,198.897c-0.039,0.554,0.062,1.083,0.264,1.565l-22.113,13.341l-10.322-8.008
	c0.161-0.308,0.272-0.649,0.31-1.016c0.128-1.25-0.588-2.382-1.681-2.859l2.337-9.858L1252.083,198.897z M1176.87,220.084
	l38.127-14.162c0.44,0.742,1.207,1.279,2.132,1.373c0.106,0.011,0.208,0.001,0.312,0l2.425,12.761l-32.664,19.705l-11.168-17.141
	c0.476-0.448,0.807-1.054,0.878-1.755C1176.939,220.597,1176.916,220.337,1176.87,220.084z M1218.423,207.112
	c0.322-0.124,0.616-0.303,0.871-0.531l10.022,7.775l-8.537,5.15L1218.423,207.112z M1217.568,201.685
	c-0.306-0.016-0.603,0.014-0.885,0.09l-5.626-11.866l8.843,1.937L1217.568,201.685z M1215.78,202.208
	c-0.634,0.454-1.083,1.159-1.169,1.996c-0.027,0.268-0.004,0.528,0.041,0.781l-38.127,14.162c-0.427-0.719-1.163-1.239-2.05-1.356
	l-1.702-36.268l37.047,8.116L1215.78,202.208z M1175.196,223.165l11.15,17.114l-43.733,26.383l30.325-43.532
	c0.274,0.126,0.566,0.22,0.882,0.253C1174.308,223.433,1174.774,223.343,1175.196,223.165z M1092.228,298.226l46.881-28.282
	l-18.848,27.057L1092.228,298.226z M1119.541,298.034l-13.049,18.732l-14.787-15.773c0.293-0.394,0.496-0.863,0.549-1.387
	c0.013-0.129,0.005-0.254,0.001-0.38L1119.541,298.034z M1141.21,268.675l45.681-27.558l33.556,51.505l-98.93,4.323L1141.21,268.675
	z M1187.748,240.6l32.317-19.496l13.484,70.945l-11.941,0.522L1187.748,240.6z M1220.978,220.554l9.185-5.541l20.672,16.038
	l-7.922,60.589l-8.355,0.366L1220.978,220.554z M1251.751,231.762l70.979,55.068c-0.227,0.402-0.38,0.853-0.43,1.342l-78.372,3.424
	L1251.751,231.762z M1251.902,230.612l3.666-28.047c0.596-0.01,1.16-0.162,1.652-0.445l65.606,83.517L1251.902,230.612z
	 M1258.003,201.498c0.391-0.412,0.681-0.918,0.831-1.493l64.796,7.118l1.531,78.015c-0.407,0.068-0.793,0.201-1.141,0.401
	L1258.003,201.498z M1323.777,163.68l-2.194-111.741l37.089,138.227L1323.777,163.68z M1322.762,162.909l-38.404-29.15
	l35.881-82.889c0.106,0.026,0.214,0.05,0.325,0.066L1322.762,162.909z M1283.537,133.136l-37.564-28.513
	c0.381-0.621,0.645-1.324,0.724-2.097c0.107-1.047-0.119-2.05-0.589-2.909l72.635-49.623c0.173,0.182,0.365,0.342,0.578,0.478
	L1283.537,133.136z M1245.541,98.793c-0.809-0.961-1.972-1.626-3.32-1.764c-2.742-0.281-5.19,1.706-5.49,4.44l-65.054-0.606
	c-0.005-0.035-0.014-0.068-0.021-0.103l145.932-51.188L1245.541,98.793z M1240.076,106.744l-13.906,58.655l-41.457-46.604
	l52.359-14.935C1237.604,105.194,1238.683,106.263,1240.076,106.744z M1225.888,166.588l-5.757,24.286l-9.615-2.107l-32.295-68.12
	l5.424-1.547L1225.888,166.588z M1209.279,188.496l-36.554-8.008l-2.698-57.504l7.218-2.059L1209.279,188.496z M1173.478,217.842
	c-0.618,0.142-1.167,0.48-1.56,0.964l-40.826-22.422l8.81-22.063l31.861,6.98L1173.478,217.842z M1139.289,173.163l-62.617-13.718
	l-0.909-9.571l82.189-23.445L1139.289,173.163z M1076.432,167.505l11.841,124.716l-31.793-133.49
	c0.667-0.257,1.243-0.695,1.667-1.268L1076.432,167.505z M1088.323,296.746c-0.107,0.047-0.211,0.097-0.311,0.156l-98.057-54.763
	l63.782-83.429c0.32,0.129,0.654,0.231,1.014,0.267c0.258,0.026,0.512,0.026,0.76,0.001L1088.323,296.746z M1087.219,297.606
	c-0.241,0.314-0.413,0.681-0.505,1.084l-97.729-4.559l-20.625-23.745l20.981-27.443L1087.219,297.606z M967.022,268.846
	l-1.297-1.493l16.822-28.204l5.03,2.809L967.022,268.846z M966.402,269.658l-9.329,12.202l8.113-13.602L966.402,269.658z
	 M954.008,293.583c0.004-0.027,0.011-0.054,0.016-0.082l34.485,1.609l11.457,13.19L954.008,293.583z M1064.968,329.116
	l-63.167-20.228l-11.911-13.714l96.77,4.514c0.074,0.558,0.311,1.068,0.669,1.479L1064.968,329.116z M1092.506,334.204
	c-1.809-0.185-3.448,0.832-4.169,2.396l-22.348-7.156l22.118-27.645c0.318,0.172,0.673,0.287,1.055,0.326
	c0.665,0.068,1.292-0.111,1.812-0.448l14.934,15.929l-11.887,17.062C1093.563,334.425,1093.053,334.26,1092.506,334.204z
	 M1096.093,337.351c-0.2-0.821-0.638-1.552-1.256-2.106l11.769-16.895l15.012,16.013L1096.093,337.351z M1236.767,320.773
	c-0.004,0.038,0.002,0.074,0,0.112l-113.911,13.334l-15.665-16.708l13.607-19.533l100.284-4.382l16.563,25.422
	C1237.17,319.466,1236.839,320.072,1236.767,320.773z M1238.482,318.472l-16.24-24.927l11.495-0.502l4.827,25.395
	C1238.536,318.449,1238.509,318.461,1238.482,318.472z M1239.48,317.9l-4.733-24.902l8.035-0.351L1239.48,317.9z M1310.976,306.341
	l-68.792,13.689c-0.307-0.776-0.939-1.398-1.756-1.657l3.369-25.77l78.562-3.433c0.125,0.649,0.428,1.234,0.869,1.704
	L1310.976,306.341z M1312.489,306.04l11.517-14.539c0.409,0.237,0.87,0.399,1.371,0.45c0.007,0.001,0.014-0.001,0.021,0
	l0.567,11.407L1312.489,306.04z M1324.632,207.232l39.793,4.371l6.199,23.104l-43.083,50.899c-0.409-0.255-0.872-0.431-1.38-0.495
	L1324.632,207.232z M1326.957,303.161l-0.561-11.273c0.466-0.093,0.898-0.277,1.28-0.541l9.174,9.845L1326.957,303.161z
	 M1328.414,290.672c0.242-0.302,0.432-0.647,0.563-1.024l33.539,6.365c0,0.024,0,0.048,0,0.072l-24.513,4.878L1328.414,290.672z
	 M1349.727,313.545l-10.922-11.722l23.905-4.757c0.108,0.273,0.247,0.532,0.432,0.757L1349.727,313.545z M1358.013,322.438
	l-7.602-8.158l13.493-15.813c0.078,0.046,0.162,0.082,0.245,0.12L1358.013,322.438z M1368.866,334.085l-10.043-10.778l6.295-24.466
	c0,0,0,0,0.001,0L1368.866,334.085z M1365.609,293.231c-1.295-0.133-2.464,0.639-2.909,1.799l-33.544-6.365
	c0.038-0.916-0.282-1.767-0.851-2.413l42.634-50.367l5.389,20.083L1365.609,293.231z M1376.864,254.103l-5.138-19.149l14.989-17.708
	c0.205,0.135,0.422,0.25,0.651,0.347L1376.864,254.103z M1438.729,47.734l-49.043,162.002c-0.097-0.017-0.187-0.049-0.286-0.059
	c-1.31-0.134-2.528,0.371-3.38,1.247l-26.046-19.77l-37.689-140.465c0.953-0.43,1.662-1.318,1.813-2.42l112.937-2.765
	C1437.218,46.477,1437.846,47.302,1438.729,47.734z M1282.653,4.394l153.882,40.121l-112.467,2.754
	c-0.25-1.329-1.333-2.397-2.746-2.542c-0.749-0.077-1.455,0.129-2.037,0.514l-37.026-40.178
	C1282.418,4.86,1282.547,4.634,1282.653,4.394z M1277.813,5.553c0.46,0.379,1.031,0.632,1.668,0.697
	c0.749,0.077,1.455-0.129,2.037-0.514l37.026,40.178c-0.354,0.45-0.595,0.999-0.658,1.611c-0.031,0.298-0.004,0.586,0.046,0.867
	l-146.594,51.42c-0.037-0.068-0.087-0.128-0.129-0.193L1277.813,5.553z M1171.664,101.864l65.058,0.606
	c0.013,0.146,0.05,0.285,0.076,0.428l-52.822,15.068l-12.984-14.596C1171.338,102.949,1171.569,102.433,1171.664,101.864z
	 M1182.906,118.27l-5.12,1.461l-7.326-15.452L1182.906,118.27z M1169.417,104.412l7.394,15.597l-6.832,1.949l-0.821-17.494
	C1169.244,104.446,1169.333,104.437,1169.417,104.412z M1171.715,180.266l-31.436-6.887l18.887-47.297l9.874-2.817L1171.715,180.266
	z M1168.16,104.524l0.831,17.716l-9.357,2.669l8.17-20.458C1167.922,104.477,1168.037,104.51,1168.16,104.524z M1166.873,104.087
	l-8.453,21.168l-82.753,23.606l-0.257-2.709l90.464-43.01C1166.135,103.523,1166.471,103.848,1166.873,104.087z M1073.598,92.816
	l91.716,8.717c0.016,0.243,0.051,0.482,0.119,0.71l-90.124,42.849l-4.696-49.458C1072.066,95.376,1073.25,94.283,1073.598,92.816z
	 M1069.575,95.688c0.013,0.001,0.025-0.001,0.038,0l4.734,49.861l-16.078,7.644c-0.43-0.658-1.055-1.174-1.812-1.46l12.96-56.078
	C1069.471,95.664,1069.521,95.683,1069.575,95.688z M1068.331,95.323c0.04,0.02,0.083,0.035,0.125,0.053l-12.97,56.122
	c-2.052-0.192-3.881,1.303-4.091,3.357c-0.009,0.086,0.003,0.168,0,0.253l-21.854,5.251L1068.331,95.323z M1051.848,157.056
	c0.087,0.157,0.189,0.303,0.297,0.446l-63.954,83.654l-5.132-2.866l45.049-75.53L1051.848,157.056z M903.244,192.831
	c0.002-0.023-0.002-0.044,0-0.067l123.505-29.677l-44.563,74.715l-79.133-44.194C903.144,193.361,903.216,193.104,903.244,192.831z
	 M902.568,194.483l79.105,44.179l-16.639,27.897l-62.528-71.989C902.529,194.542,902.546,194.511,902.568,194.483z M964.495,267.462
	l-12.72,21.327l-0.181,0.237c-0.38-0.164-0.78-0.291-1.214-0.336c-0.632-0.065-1.24,0.028-1.801,0.228l-46.335-93.126
	L964.495,267.462z M947.688,289.37c-0.106,0.07-0.217,0.132-0.316,0.211l-34.592-26.392l-11.655-67.402L947.688,289.37z
	 M898.16,195.085c0.445,0.327,0.973,0.553,1.562,0.613c0.126,0.013,0.248,0.002,0.372,0.001l11.516,66.597l-45.879-35.004
	L898.16,195.085z M896.907,194.918l-31.98,31.762l-15.371-11.727L896.907,194.918z M863.495,228.102l-25.739,25.563l-43.275-14.895
	c0.007-0.047,0.024-0.091,0.029-0.139c0.013-0.132,0.005-0.26,0.001-0.389l52.925-22.393L863.495,228.102z M771.169,157.66
	l74.437,56.792l-51.875,21.949c-0.447-0.466-1.046-0.791-1.739-0.862c-0.172-0.018-0.341-0.014-0.508-0.001l-20.471-77.797
	C771.066,157.715,771.118,157.689,771.169,157.66z M768.236,157.413c0.381,0.317,0.857,0.528,1.387,0.583
	c0.143,0.015,0.283,0.009,0.423,0.001l20.473,77.802c-0.609,0.285-1.099,0.779-1.377,1.404l-89.957-22.02
	c0.021-0.475-0.079-0.931-0.289-1.326L768.236,157.413z M645.02,182.749l122.103-25.72l-68.859,56.051
	c-0.381-0.317-0.857-0.528-1.387-0.583c-0.845-0.086-1.631,0.251-2.164,0.833l-49.797-30.189
	C644.962,183.015,644.994,182.884,645.02,182.749z M640.454,183.829c0.418,0.544,1.045,0.924,1.78,0.999
	c0.845,0.086,1.631-0.251,2.164-0.833l47.444,28.763l-62.701-23.318L640.454,183.829z M639.927,182.39
	c0.009,0.187,0.036,0.369,0.084,0.544l-12.155,6.029l-36.75-13.667L639.927,182.39z M586.685,177.553
	c1.214-0.056,2.292-0.738,2.859-1.771l37.082,13.79l-5.442,2.699l-34.934-10.316L586.685,177.553z M619.866,192.925l-12.233,6.068
	l-22.185-8.921l0.702-7.103L619.866,192.925z M585.69,177.455l-0.416,4.213l-4.183-1.235l3.424-3.524
	C584.862,177.16,585.256,177.346,585.69,177.455z M542.03,117.109c0.866,0.052,1.691-0.143,2.401-0.541l39.7,55.095
	c-0.381,0.369-0.681,0.82-0.86,1.338l-49.461-9.354L542.03,117.109z M540.062,116.509c0.306,0.183,0.631,0.332,0.981,0.435
	l-8.216,46.517l-23.509-4.446c-0.02-0.503-0.201-0.969-0.508-1.338L540.062,116.509z M508.92,160.376l22.831,9.181L519.4,239.48
	c-0.082-0.004-0.163-0.002-0.245,0l-11.253-78.304C508.314,161.015,508.667,160.738,508.92,160.376z M506.3,161.178
	c0.182,0.07,0.37,0.125,0.572,0.146c0.014,0.001,0.027-0.001,0.04,0l11.251,78.287c-0.152,0.042-0.296,0.101-0.44,0.161
	l-29.49-51.882L506.3,161.178z M505.32,160.437c0.047,0.064,0.099,0.123,0.153,0.18l-17.791,26.302l-8.488-14.933L505.32,160.437z
	 M465.857,147.233l39.024,11.727c-0.013,0.193,0.003,0.38,0.038,0.561l-26.221,11.591l-13.272-23.349
	C465.594,147.61,465.742,147.434,465.857,147.233z M463.099,148.191c0.187,0.076,0.384,0.135,0.596,0.157
	c0.301,0.031,0.593-0.001,0.866-0.083l13.218,23.254l-44.197,19.537c-0.042-0.056-0.087-0.108-0.134-0.16L463.099,148.191z
	 M434.02,192.617c0.023-0.222,0.002-0.436-0.038-0.644l44.293-19.579l8.782,15.45l-20.877,30.865l-31.822-14.49l-1.694-9.783
	C433.389,194.129,433.935,193.456,434.02,192.617z M430.439,194.147c0.319,0.248,0.705,0.417,1.136,0.461
	c0.035,0.004,0.069-0.002,0.104,0l1.578,9.109l-9.336-4.251L430.439,194.147z M423.056,200.172l10.407,4.738l5.268,30.413
	l-14.384-1.355l-18.307-19.91L423.056,200.172z M372.124,176.982l49.918,22.728l-16.68,13.612l-33.313-36.23
	C372.076,177.057,372.099,177.018,372.124,176.982z M368.325,177.815c0.347,0.207,0.738,0.349,1.166,0.393
	c0.666,0.068,1.295-0.109,1.819-0.443l33.275,36.189l-19.943,16.274l-57.004-5.369L368.325,177.815z M366.956,175.739
	c0.047,0.36,0.159,0.702,0.33,1.01L313.088,220.8c-0.633-0.608-1.453-1.029-2.393-1.125c-0.616-0.063-1.208,0.026-1.756,0.218
	l-23.685-47.805L366.956,175.739z M308.045,220.344c-0.347,0.23-0.665,0.5-0.928,0.825l-81.954-51.037
	c0.099-0.228,0.173-0.467,0.222-0.719l58.727,2.625L308.045,220.344z M230.424,66.577c0.459-0.017,0.9-0.1,1.316-0.251
	l51.865,104.687l-58.157-2.599c-0.146-1.458-1.221-2.668-2.669-2.997L230.424,66.577z M227.163,65.293
	c0.603,0.605,1.377,1.032,2.263,1.204l-7.645,98.835c-1.349,0.092-2.505,0.969-2.976,2.217l-91.777-19.986
	c0.1-0.998-0.156-1.942-0.647-2.734L227.163,65.293z M113.976,22.274L226,61.26c-0.037,0.168-0.086,0.331-0.104,0.507
	c-0.102,1.001,0.155,1.948,0.647,2.743L125.76,144.046c-0.689-0.694-1.6-1.176-2.649-1.284c-0.135-0.014-0.265,0.001-0.398-0.001
	L110.46,25.055C112.009,24.734,113.31,23.704,113.976,22.274z M108.939,25.155c0.179,0.018,0.351,0.001,0.527,0.001l12.253,117.706
	c-1.731,0.385-3.104,1.788-3.377,3.619l-82.621-2.759c-0.099-0.867-0.521-1.668-1.191-2.237l72.717-116.832
	C107.766,24.908,108.33,25.092,108.939,25.155z M12.288,83.787c0.314-0.884,0.248-1.807-0.102-2.604l93.3-57.964
	c0.263,0.341,0.569,0.643,0.911,0.907l-72.72,116.836c-0.073-0.032-0.138-0.074-0.214-0.101c-0.632-0.225-1.285-0.245-1.895-0.109
	L10.66,85.685C11.389,85.282,11.987,84.634,12.288,83.787z"/>
</svg>
