<?xml version="1.0" encoding="utf-8"?>
<!-- Generator: Adobe Illustrator 17.0.0, SVG Export Plug-In . SVG Version: 6.00 Build 0)  -->
<!DOCTYPE svg PUBLIC "-//W3C//DTD SVG 1.1//EN" "http://www.w3.org/Graphics/SVG/1.1/DTD/svg11.dtd">
<svg version="1.1" id="Í_xBC__xB2_ã_x5F_1_x5F_x5F_x5F__xB8__xB4_ÖÆ_copy"
	 xmlns="http://www.w3.org/2000/svg" xmlns:xlink="http://www.w3.org/1999/xlink" x="0px" y="0px" width="1413.996px"
	 height="337.933px" viewBox="0 0 1413.996 337.933" enable-background="new 0 0 1413.996 337.933" xml:space="preserve">
<g>
	<path fill="#262626" d="M1410.494,38.567L1413.996,0h-1.004l-3.448,37.967L1399.357,0h-1.036l10.39,38.724
		c-0.04,0.021-0.077,0.047-0.116,0.07L1372.448,0h-1.368l36.784,39.478c-0.177,0.255-0.302,0.545-0.367,0.864l-30.573,0.438
		c-0.233-1.186-1.203-2.136-2.467-2.265c-0.028-0.003-0.055,0.002-0.083,0L1370.279,0h-1.005l4.106,38.615
		c-0.638,0.187-1.181,0.6-1.547,1.149l-24.3-10.506L1355.06,0h-1.033l-7.424,28.857l-16.844-7.282l-0.988-19.864l1.46-1.711h-1.313
		l-0.219,0.257L1328.686,0h-1.001l0.068,1.365l-12.057,14.13l-30.349-13.12L1287.229,0h-1.275l-1.556,1.964L1279.854,0h-2.52
		l6.421,2.776l-23.847,30.105L1246.823,0h-1.076l13.445,33.785l-44.795,56.551c-0.096-0.054-0.203-0.091-0.305-0.135L1235.991,0
		h-1.03l-21.84,89.958c-0.72-0.055-1.398,0.146-1.958,0.522L1126.334,0h-1.371l85.466,91.161c-0.052,0.068-0.098,0.14-0.145,0.213
		L1046.95,20.411c0.067-0.229,0.121-0.465,0.146-0.711c0.048-0.471-0.003-0.927-0.11-1.362l41.442-15.997
		c0.627,1.175,1.809,2.028,3.234,2.174c2.276,0.233,4.309-1.423,4.542-3.699c0.014-0.136,0-0.267,0.001-0.4L1099.757,0h-11.795
		c-0.046,0.485,0.005,0.955,0.118,1.403L1046.639,17.4c-0.175-0.324-0.406-0.611-0.661-0.874L1059.199,0h-1.281l-12.718,15.897
		c-0.495-0.303-1.055-0.514-1.67-0.577c-0.963-0.099-1.87,0.169-2.616,0.668L1027.027,0h-1.326l14.441,16.625L1016.095,0h-1.758
		l25.247,17.455c-0.213,0.41-0.358,0.863-0.418,1.348l-107.827,0.245c-0.22-1.202-1.198-2.169-2.474-2.299
		c-0.09-0.009-0.176,0-0.264,0L925.704,0h-1.016l2.925,16.914c-0.65,0.238-1.196,0.702-1.523,1.316L869.323,0h-3.269l59.734,19.183
		c-0.004,0.028-0.014,0.054-0.017,0.083c-0.159,1.549,0.969,2.934,2.518,3.092c1.478,0.151,2.792-0.872,3.05-2.311l107.829-0.245
		c0.231,1.799,1.664,3.272,3.547,3.465c1.598,0.164,3.063-0.645,3.833-1.94l163.336,70.964c-0.036,0.145-0.075,0.288-0.091,0.441
		c-0.175,1.707,1.067,3.232,2.774,3.407c0.5,0.051,0.979-0.031,1.419-0.2l48.781,83.868c-0.533,0.454-0.903,1.103-0.98,1.855
		c-0.159,1.549,0.969,2.934,2.518,3.092c1.549,0.159,2.934-0.969,3.092-2.518c0.055-0.538-0.053-1.052-0.272-1.506l131.065-94.979
		c0.438,0.421,1.006,0.712,1.657,0.779c1.549,0.159,2.934-0.969,3.092-2.518c0.129-1.262-0.601-2.402-1.711-2.872l8.546-37.996
		c1.196,0.007,2.226-0.884,2.351-2.099C1412.241,39.918,1411.537,38.894,1410.494,38.567z M1372.646,43.678
		c0.363,0.235,0.777,0.4,1.237,0.447c1.489,0.152,2.815-0.888,3.057-2.345l30.57-0.438c0.015,0.064,0.025,0.128,0.045,0.19
		l-71.731,41.777c-0.045-0.06-0.087-0.122-0.135-0.179L1372.646,43.678z M1371.914,42.996l-36.963,39.457
		c-0.295-0.217-0.619-0.395-0.968-0.531l8.269-32.14l29.357-7.31C1371.693,42.658,1371.793,42.833,1371.914,42.996z
		 M1273.077,69.367c0.934-0.1,1.748-0.663,2.182-1.474l53.068,17.145c-0.025,0.127-0.064,0.248-0.078,0.379
		c-0.006,0.062,0.003,0.121,0,0.183l-56.564,3.407L1273.077,69.367z M1270.677,89.068l-54.775,3.299
		c-0.007-0.032-0.011-0.065-0.019-0.097l54.568-24.131c0.378,0.557,0.946,0.973,1.63,1.147L1270.677,89.068z M1275.561,66.94
		c0.004-0.03,0.015-0.058,0.018-0.088c0.016-0.159,0.011-0.315,0.001-0.47l54.73-13.627l1.44,28.94
		c-1.376,0.234-2.539,1.132-3.119,2.391L1275.561,66.94z M1331.298,52.509l9.85-2.453l-8.133,31.61
		c-0.044-0.006-0.084-0.022-0.128-0.026c-0.048-0.005-0.093,0.003-0.14,0L1331.298,52.509z M1347.28,30.239l24.156,10.443
		c-0.027,0.116-0.059,0.229-0.072,0.35c-0.016,0.159-0.011,0.315-0.001,0.47l-28.828,7.178L1347.28,30.239z M1346.35,29.837
		l-4.919,19.118l-10.184,2.536l-1.433-28.803L1346.35,29.837z M1327.826,2.819l0.911,18.314l-12.081-5.223L1327.826,2.819z
		 M1315.976,16.706l12.816,5.541l1.467,29.491l-54.924,13.675c-0.102-0.226-0.223-0.442-0.38-0.633L1315.976,16.706z
		 M1284.705,3.186l30.312,13.105l-40.825,47.843c-0.337-0.197-0.717-0.332-1.131-0.374c-0.291-0.03-0.572-0.001-0.844,0.054
		l-11.883-29.862L1284.705,3.186z M1259.618,34.857l11.67,29.325c-0.713,0.446-1.227,1.194-1.319,2.096
		c-0.034,0.328,0.002,0.645,0.075,0.948l-54.57,24.132c-0.091-0.139-0.189-0.27-0.301-0.393L1259.618,34.857z M1264.29,179.149
		c-0.228,0.024-0.445,0.084-0.655,0.16l-48.777-83.862c0.61-0.502,1.031-1.234,1.118-2.082c0,0,0-0.001,0-0.001l54.631-3.291
		L1264.29,179.149z M1266.537,179.925c-0.343-0.33-0.767-0.572-1.25-0.695l6.326-89.217l56.7-3.415
		c0.327,1.807,1.795,3.261,3.713,3.458c2.324,0.238,4.4-1.453,4.638-3.777c0.002-0.021-0.002-0.041,0-0.062l60.726-1.902
		c0.047,0.22,0.115,0.432,0.212,0.632L1266.537,179.925z M1400.253,80.922c-1.435-0.06-2.685,0.967-2.897,2.392l-60.732,1.903
		c-0.055-0.364-0.16-0.711-0.303-1.042l71.743-41.784c0.206,0.224,0.453,0.407,0.735,0.538L1400.253,80.922z"/>
	<path fill="#262626" d="M678.564,0h-3.326l-10.102,3.183c-0.62-1.384-1.924-2.417-3.542-2.583
		c-0.637-0.065-1.253,0.017-1.824,0.207L659.396,0h-1.103l0.574,1.237c-0.602,0.369-1.111,0.874-1.477,1.487L651.338,0h-2.437
		l8.068,3.631c-0.09,0.283-0.154,0.579-0.185,0.886c-0.247,2.41,1.507,4.563,3.917,4.81c2.41,0.247,4.563-1.507,4.81-3.917
		c0.045-0.439,0.003-0.862-0.076-1.274L678.564,0z"/>
	<path fill="#262626" d="M278.004,0h-1.346L170.763,117.632L247.941,0h-1.196L168.05,119.944c-0.03-0.014-0.061-0.027-0.092-0.039
		L196.381,0h-1.027l-28.366,119.667c-0.1-0.008-0.198-0.002-0.297,0L147.335,11.253L170.019,0h-2.251l-20.616,10.227L145.326,0
		h-1.016l1.909,10.69L79.834,43.621c-0.189-0.279-0.403-0.539-0.66-0.758L106.88,0h-1.191L78.329,42.33
		c-0.374-0.176-0.777-0.307-1.212-0.352c-0.387-0.04-0.76-0.002-1.122,0.072L61.453,0h-1.058l14.651,42.367
		c-1.106,0.558-1.917,1.644-2.052,2.968c-0.077,0.752,0.078,1.473,0.401,2.099L18.172,85.893c-0.91-1.087-2.226-1.836-3.747-1.992
		c-3.099-0.317-5.867,1.938-6.184,5.036c-0.317,3.098,1.938,5.867,5.036,6.184c2.714,0.278,5.175-1.418,5.957-3.925l54.395,11.856
		l-6.545,144.002c-1.895,0.15-3.472,1.627-3.673,3.585c-0.123,1.198,0.308,2.316,1.069,3.133L4.778,322.441
		c-0.392-0.243-0.836-0.413-1.326-0.463c-1.721-0.176-3.26,1.076-3.436,2.798c-0.176,1.721,1.076,3.26,2.798,3.436
		c1.566,0.16,2.969-0.868,3.344-2.35l100.053,8.756c0.094,1.695,1.395,3.12,3.137,3.298c1.93,0.198,3.654-1.207,3.852-3.136
		c0.16-1.564-0.74-2.977-2.111-3.568l55.323-205.203c0.004,0,0.008,0.002,0.012,0.002c1.751,0.179,3.317-1.095,3.496-2.847
		c0.089-0.872-0.183-1.697-0.694-2.329L278.004,0z M79.229,48.514l84.812,72.663c-0.098,0.159-0.179,0.328-0.248,0.506
		l-78.64-17.141l-7.427-55.206C78.29,49.181,78.8,48.897,79.229,48.514z M85.294,105.596l78.283,17.063
		c-0.051,0.9,0.279,1.735,0.856,2.351l-65.206,84.15L85.294,105.596z M104.246,253.962c-0.967,0.293-1.748,1.045-2.068,2.026
		l-30.784-4.821c0.034-1.139-0.411-2.186-1.17-2.946l28.33-36.56L104.246,253.962z M76.981,51.302l7.132,53.013l-9.448-2.059
		L76.981,51.302z M19.44,90.218c0.006-0.045,0.016-0.088,0.02-0.133c0.125-1.219-0.153-2.383-0.719-3.371l55.232-38.465
		c0.538,0.588,1.261,1,2.092,1.151l-2.393,52.64L19.44,90.218z M74.619,103.269l9.636,2.1l14.113,104.9l-28.928,37.332
		c-0.409-0.242-0.867-0.406-1.358-0.49L74.619,103.269z M106.302,333.621L6.251,324.865c-0.048-0.666-0.303-1.282-0.713-1.774
		l59.709-68.678c0.513,0.329,1.099,0.56,1.746,0.626c0.618,0.063,1.211-0.03,1.758-0.227l38.942,76.747
		C107.007,332.043,106.504,332.763,106.302,333.621z M110.126,330.94c-0.022-0.003-0.041-0.011-0.063-0.013
		c-0.518-0.053-1.018,0.017-1.481,0.174l-38.941-76.745c0.762-0.516,1.345-1.278,1.609-2.199l30.786,4.821
		c0.009,1.58,1.191,2.934,2.798,3.099c1.721,0.176,3.26-1.076,3.436-2.798c0.176-1.721-1.076-3.259-2.798-3.436
		c-0.079-0.008-0.155,0.002-0.234,0l-5.824-43.292l65.801-84.917c0.074,0.041,0.157,0.065,0.235,0.1L110.126,330.94z
		 M164.688,120.414l-84.81-72.662c0.314-0.484,0.534-1.038,0.597-1.651c0.057-0.555-0.019-1.091-0.187-1.587l66.115-32.798
		l19.303,108.12C165.33,119.966,164.986,120.161,164.688,120.414z"/>
	<path fill="#262626" d="M423.56,0h-3.394l-7.63,2.351L417.251,0h-4.481l-5.598,2.791c-0.312-0.37-0.688-0.685-1.111-0.932
		L406.868,0h-1.09l-0.633,1.457c-0.254-0.076-0.517-0.134-0.791-0.162c-2.095-0.214-3.979,1.134-4.523,3.098L371.304,0h-6.571
		l34.954,5.382c-0.076,2.218,1.56,4.15,3.801,4.379c2.338,0.239,4.427-1.462,4.667-3.8c0.042-0.411,0.005-0.808-0.066-1.194
		L423.56,0z"/>
</g>
</svg>
