<svg xmlns="http://www.w3.org/2000/svg" viewBox="0 0 86.41 92.19"><defs><style>.cls-1{fill:#ccc;fill-rule:evenodd;}.cls-2{fill:#0066a6;}.cls-3{fill:none;stroke:#0066a6;stroke-linejoin:bevel;stroke-width:0.5px;}.cls-4{fill:#0075ad;}.cls-5{fill:#b1b1b1;}</style></defs><title>mprj_digital_vertical</title><g id="Camada_2" data-name="Camada 2"><g id="Camada_1-2" data-name="Camada 1"><path id="path17" class="cls-1" d="M9.32,45.74l.12-.12,0-.1,0-.15.22-.06.12-.08v-.08H10l0-.08.07,0,.26-.07V44.6l.14-.05-.05-.14.16-.14-.05-.08,0-.13L10.47,44l.13-.2-.07,0v-.12l-.1,0v0l.06-.14,0-.11,0-.14.12-.1-.07-.15.14-.09,0-.34.08-.13v0l0-.06.09-.19-.17-.2.17-.1v-.23l.09,0,.09-.07h0l.28.08.1-.08.08,0,0-.08.12-.1h0l-.05-.14.14-.28,0,0,.36-.2,0,0,.13-.09.12.09h.06l.09,0,.13.08h0l.24-.34.25.18.35-.24v0l.05-.11v0l.11-.05.38-.35.11,0,.43-.18.36.19.18-.07h0l0-.07.22-.22.23-.07.24-.25L16,39h.17l.08.1.06.09-.08.19.08,0v.12l.09,0,.08.17.28-.12.12-.07L17,39.5l.18-.29.08-.08.15-.06h.18l0,.11.16,0,.09.11h.23l.82-.37.1,0,0,.16h0L19,39l.06-.1.36-.23.17,0,.06.14.2-.09,0,0,.15-.47.27,0,0,0,0-.1v-.13l-.09,0-.15,0,.05-.11-.07,0v-.2l.12-.2.21,0-.06-.12.25-.29.45,0,0-.14h0l0-.15.12,0,.2,0,.12-.1.07-.1,0-.17.13-.08.06-.13.08-.07-.09-.15-.13-.23-.29-.2h0l.11-.18L21.28,35h-.13l-.09-.08V34.7h-.11l-.14.07-.14-.26-.1.09-.26,0-.1.1-.31-.21-.2.06-.05.11-.16-.14v-.08h-.18l-.11-.06-.09,0-.15-.16-.24,0-.06,0-.07,0,0,.13-.07,0,0,.07,0,.19-.12.09-.08,0v-.35l-.08,0-.07-.07.18-.16L18.29,34l-.13,0-.22-.12h-.13l-.06.15-.24.13.07.06,0,.16.09,0-.11.08h0l-.16-.11-.23-.07-.22.11-.07.12-.13,0-.18.12-.23-.06-.09-.16-.07,0v0l0,.07-.33.47-.07.09-.11-.2H15.4l-.06,0,.06.13-.07,0,0-.1.2-.24-.12-.07-.07,0-.21-.21-.24.09-.18-.17-.18.44-.13,0-.1-.23-.08,0,0,.12-.09,0-.22-.21-.18.07h-.05l-.16-.12,0-.34.08-.13v-.34l-.1-.12-.05.08-.19-.12-.26.2h0l0-.31.08-.09,0,0L12.82,33l0,0L12.68,33l-.12-.07-.1-.13-.25,0,.1-.26,0-.13-.14,0-.06-.15,0-.18.07-.09v-.1L12,31.42l-.17-.27-.26-.21h-.26l-.16-.13-.52-.05.1-.22.17-.13.11,0,.12-.1.08,0,.24-.15h.3l.23-.27.13,0,.32.25.24-.06.22.08.21,0,.11.12,0-.09.23-.18.05-.21.25-.15,0-.19.16-.07.28-.13.22-.07.12.12.16-.07.13.16.32-.17,0,.15.18,0,0-.12.23-.15L15.7,29l.27-.11L16,28.8l.46-.4.11,0,0-.1.08-.08-.06-.08.1-.18.17,0,0,0,.07-.06L17,28l.07-.1h0l.15.08.16,0,.34.09.06.18.07.07.05-.09h.12l0-.11.26-.17.15.08.19-.07.07.09.21-.07,0,.12.13-.12.23,0,.17-.2,0,.09.08-.08h.15l.13,0,0,.07.05-.07.08.45.16-.15.07.12.13-.07.06,0,.2-.13v-.11l.18-.13.09.09.08,0,0,.05.21-.2.15-.14v-.1l.12,0,.11-.05v.09h0l.1-.13.09,0,.07-.25.14.13.13-.2.11,0,0-.06h.09l-.07-.16.07-.09,0-.14.06,0,0,.06.22-.1V26.5l.09-.09.16.05.06.15,0-.15h.13l.08-.2.11,0,.43,0,.05-.11.25-.06.32.21.13-.12.08,0,.09-.15H25l0-.06.28-.11h0l.13,0,.21-.18.75-.25.09-.08h.21v-.24l.15.05V25H27l.09-.08.24.07.28-.14.18-.09h.1l0-.05,0,0H28l.4-.3.14,0,.05-.08,0,.18.13.08-.08.07.25.14v.09l.1,0h0l.11,0,.24-.29h.17l0-.08.15,0,.14-.13h.17l.12.3,0,0,.07-.05v0l.06-.21.16,0,.06-.12.14,0,.11.05.17.15.13,0,0,.15h0l.07,0v-.19h.13l.08-.25.06,0,.07-.06.1-.09,0,.35.16.14H32v0l0,.16h.08l.11-.11.53-.18.1-.2.1-.05.14.14,0,.15.26,0h0l.24-.07.23.05.43-.24.16-.09.16,0,.53-.38.34-.24,0-.17.24-.05.09-.1h0l.12.12h.14l.16-.08h0l0,.17.28.07.35-.16.2,0,.12-.07.13.06.14-.09.17.11v.18l0,0,.1.08.09.06.16,0,.19-.09,0,.19,0,0,.57-.27H39l0,.11.14.07.13,0,.06.05.23-.07v.1l0,.18v0l-.1.23-.28.24-.06.12.15.42.15.17.16-.09.08-.26.27-.13.31.07.19-.07.07.18.37-.21.34-.31v-.11l-.11-.13V24l.22-.11.36-.14h0l.17.05.48-.39h.12l.21-.17.66-.29.45-.44v-.14l.63-.21.94-.33.42-.19.2-.1.63-.35.7-.33.17-.08.38-.15.45-.14.22-.13,0,.05.14,0,.29-.14,0-.15.82-.37,1.23-.58,0,0,1.2-.47.15-.13.1-.09.36-.12.36.08.4-.2.09-.11.69-.29h-.08l.09-.11-.09-.09v0l.08-.14-.06-.25-.08-.09-.14.08L54.2,17l.06,0-.13-.12-.19-.17-.13.08-.12-.08-.07.11-.08-.08-.12.09h-.16l0-.1-.08-.23-.14.07h-.17l-.07-.12.24-.26L53,16.07l-.1.05,0,0,0,0v0l.26-.49.12-.17.35-.25,0-.14-.07,0,.34-.15h0v-.09l.13-.14-.05-.19.15-.1.19.06,0,0v0l.17-.36.23-.14.12-.06V13.6l-.32-.26,0-.13L54.1,13l.15-.25,0-.08.11-.13,0-.05.09-.08,0-.33.19-.2.12.19L54.9,12,55,12l0-.17-.2,0-.05-.07.2-.16v-.09l.21-.12-.06-.23.06-.06-.11-.14.2-.11-.08-.17-.13-.06,0-.12.15-.2V9.75l0-.07.06-.06,0,0,.16-.07.14-.19.18-.16.07-.06-.09-.2.1-.18,0-.11-.11,0-.09-.09,0-.22.11-.15-.22-.44.15-.09,0-.11.07-.06,0-.08.09-.23.2-.13.06-.15.09-.08V6.57l.11-.25.41,0,0-.06.05-.11,0-.24.23-.1V5.72l.32-.37,0-.07.07-.12,0-.09.13,0,.23,0v0l0-.08-.05-.13-.31-.16h-.11l-.11-.1,0-.14-.15,0-.26-.19V4.18l-.16-.13,0-.11.22-.26L57,3.59l.06.07h.11V3.49l.1-.05.27-.21.11,0H58l.34-.09.13-.11h.19l.07,0,.33.12.1-.1.39.17L59.51,3l.12-.12h.09l.06-.19-.06-.13,0-.13.08-.19L60,2.06,60,1.9,60,1.76l.24-.07.06-.12,0-.05.07-.13-.16-.18L60.45.7,60.4.58l.21,0,.17.07h.09L61,.47l.19-.08.11-.12V.19l.09-.07,0-.07h0l0,0L61.69,0l.1.2L62,.33l.21.13L62.12.6l.2.09.17-.07-.11.15h.21l.12-.12.33,0,.14,0,.06.09h.14l.09.19L63.52,1h0l.11.07,0,.14.07,0,0,.05.06.12-.15.3.1.25,0,.13L63.84,2l0-.09.25.12L64,2.08l-.14.33,0,.08H64L63.94,3l-.22.07,0,.06.06.26.28.2,0,.4.08.09,0,.16v0h-.1l-.1.2v.16l.12.1v.12l-.13,0,0,.09.06.27.08,0L64,5.45l-.06,0-.09-.11,0,.06,0,.22v0h.07l.07,0,0,.1-.23.47h0v.06l.11.08.09,0,.12,0,.16,0,.05.07L64,6.6v.14l.23.06,0-.11.19-.1h0l.08.12.11,0,.07.09v.14l.1-.12.16,0,0,.15.2.08V7.1l.13,0,.13,0,.17,0,.27.22.1,0,.34-.11.1.31h0l.19.09v.15l.07.06.13-.18h0l.15.18.31-.06.23.13h0l.07-.18.07,0h0l.15.18L68,7.8l.09.07.06,0v.21l.17.15,0,0,.25.09.1.12.21,0,.32-.3.07,0,0,0,.06.06.07-.07.18.06.1,0h.08l0-.07h.06l.06.13h.18l.47.12,0,0,.15.15v-.1H71v.14l.1,0,.25.29h.14l0,.07,0-.05.11.09,0-.07h.06V8.8h.12l0,.06.08-.2.28-.08.11.09h.11l0,.08.06-.06v.06h.07l0,.06.17.05L72.9,9l0-.07L73,9h.11V9l0,.13L73.2,9l.07,0,0-.05,0-.11,0,.08.05,0L73.32,9l.11,0,0,.07.22,0,0,.06,0-.09,0,.07V8.92l.25,0,.08-.19.06,0,.25.07.26-.2,0,0,.17-.06,0,.05H75l.14.16,0,0,.26.17.25.32L76,9l.22.08.1,0,.14.27,0,.32,0,0,.17,0,.13-.11,0,.11,0,0h0l.08.09.1,0,0,.08.12.07h0l-.07.27-.07.48.07.33-.08,0-.31.57-.08,0-.17.14-.16.4-.29.47-.24.3-.18.11-.28.38-.17.52,0,.55.24.77.15.2.29.15h.19l.12.08v-.07l.07.13L76,17.18l0,.76.3,1.43.5,2.22.1.59v.44l-.18.55-.13.18-.29.24-.67.36-.56.32-.87.6-.46.36-.79.41-.68.28-.9.28-2.26.63-1,.31-1,.39-.66.28L66,28l-.33.14-1.12.61-.11.07-.79.69-.18.09-.28.19-.11.16v.19l.12.06-.06.13.06.09-.36.18,0,0-.47.32-.42.35-.18.21-.11.23-.06.34-.11,0-.18.19-.21,0-.15.14-.31.42,0,.18-.22.21h-.09l-.1-.17-.24.08-.2.2-.18.36-.17.68-.06,0-.09.21,0,.86v.25l.2.93.19.24.33,0,0,.1.24.4.21.17.22.06.11,0,0-.11,0-.13h.13l.07-.08.21.06.11-.08V37l.12,0,0-.08.1.08-.12.18.19.05,0,.14-.08,0-.07.1,0-.1,0,.27-.1-.13-.07,0,.13.26h-.06l0-.13-.15.16-.06-.1-.08,0,0-.08h-.08l-.21.14-.15.2v.13l.09.08,0,.1-.19-.08-.07.07-.42.16-.29.5v.26l.06.08.06,0-.08.07,0,.08-.17.17-.14,0-.05.09,0-.08-.12,0-.21.18-.12.2-.09.37v.19l.06.23h.19l-.08.18.08.1.12-.12L59.1,41l0,0-.11.06,0,.09,0,.05.05-.06.11,0-.11.18-.17-.1,0,0,.07.07h-.12v.15H59l.05.08-.08.09v.18l-.09-.21-.28-.14v-.15l-.15-.11-.58-.18-3.71-.3-1.32-.07h-1l-1,0h-.23l-.3-.07H49l-.88.07-.64.13-.17.08-.05.19-.11.07-.09-.08-.29,0-1.74.12-1,.07-.74.16-.68-.07-.64,0-.29,0-.05,0v0l-.15,0-.07.1-.1-.09h-.14l-.19.12,0-.1.08-.09-.13-.17-.5-.15-.49,0-.08-.14h-.08l.05-.15h-.32l.16-.06,0-.22h0l.1.15.06,0,0,.06.1.09.11,0,.13-.18v-.19H40l-.1-.2-.13,0-.12.1-.11-.16.23-.2,0-.13-.15-.05.08-.11.14,0,0,.09.1,0,0-.24.16-.2.16-.32-.06-.11,0-.13.26-.16.25-.31-.23-.06,0-.23.19-.14,0-.2.1-.09.57-.32,0-.09-.07-.17,0-.16-.12-.15,0-.12.07-.09h.09l-.16-.13.07-.11-.11-.07,0,.05L41.1,36l-.11.08L40.92,36l0,.06-.16,0-.35-.17-.11.14-.2.05H40l0,.13,0,0-.08-.08,0,.1-.07,0v.19l-.18.15h-.12l-.14-.12h-.17l-.21.06,0,.07-.26.11-.59.13.06.07-.07.09-.19.08L37.79,37l.05.08-.11,0-.09.1,0,.07-.17.13-.11,0,.09.08-.31.23,0,0-.13.13,0,.09-.2.28v.14l.09.16.15-.11,0,.14.14.08.2.27.2.13.09.33-.07.13.08.16.13-.11.09.08,0,0,.1.05.14-.14.14.15-.17.2,0,.11.34-.09.16.06,0,.06.05,0V40l.08,0L39,40l-.09,0-.08,0,.14.15h.12l0,.15h.06l0,.08-.15,0-.07,0,0,.06,0,0,0,.11-.07.17,0,.11-.1.12h-.11v.07l.18.07.14-.15.18-.1-.07.1.09.13-.24.07.08.06v.07l0,.05H39l-.27.17-.06.16.1.08-.11,0-.06.06-.53,0-.39.24-.54,0-.21.13,0,.12h-.17l0-.09-.13-.06-.07-.14-.26-.12,0-.08-.18,0-.15-.14-.37-.16-.2,0-.12,0-.2.19-.16-.16,0,.07,0,.12,0-.09-.16.13h.05v0l.08.05.3-.08,0,.09-.06,0h0l.06-.08,0-.14.12-.08.48.05.15.07h-.22l.13,0,.06.09-.09,0-.11-.07,0,.07.41,0h.22l0,.1h.16l0,.09.25.11-.17.06-.91-.09-1.47.21-.39.13-.07.08,0,.08-.1-.1-.34,0-.22.15,0,.09-.48.07,0,.09-.21.11-.06.17.06,0-.08.07v-.07l-.17,0-.13,0,.06,0V43.1L31.89,43l-.31-.1-1.27,0-1.89.15-1.4.2-1.68.29-.52.27-.17,0,0-.08-.18-.06v-.21l-.08-.07.11-.13.12,0,.11-.09,0-.19.12,0,.18-.26.33-.1.11.17.29.16H26l.35.19h.24l.12-.12v-.25l-.06-.11-.22-.18-.24-.11-.09-.11.1.1.27.12.47.22.63.26.59.06,1.41-.12.78-.22.91-.21.15.06,0,.1.6.25,0,.2.18-.26-.05-.09h-.07v.14L32,42.85l-.14-.19v.07l-.15-.14h.05l-.16-.06-.09-.18-.29-.16-.16-.13-.24,0L30.74,42l-.17,0-.19-.3-.22-.12-.17.12,0,.1-.1-.13-.09,0-.21-.3-.13.07,0-.14-.17-.19-.6-.39v-.1l-.08,0-.15-.14,0-.06-.15,0-.18-.11L28,40.31l-.19.09,0-.13-.13,0,.05.2-.23.14-.15,0,0-.08-.14,0,0-.07-.07,0,.32-.1,0-.08-.06-.1-.34,0-.25.06-.16.12-.08.19h-.16l-.29.15-.35,0-.18,0-.17-.07-.24.15L25,40.63l-.2.08-.1.1-.09,0-.06-.08-.15.22-.18.12v.12l-.14,0-.08.31-.21.06-.16-.08.24-.32-.05-.12.1-.11-.12-.23-.29.2-.2,0-.12.13h0l.07,0,0,.09.1.14-.11.35-.26.09V42l-.29.32-.46.22-.16,0-.06.09-.07-.14h-.16l-.18.08v.09l.08,0,0,.09-.1,0-.06-.1,0,.1v0l-.16,0,0-.07,0-.16-.13-.07-.52.27h0l-.08.06-.11,0,0-.08-.08,0v0l.12-.09.13-.34.25-.17v-.11l-.14,0-.22-.25-.1,0v-.1l-.22.22L20,42l-.13.09-.08.13v.07l-.11-.05-.07,0,0,.14-.14,0-.13,0,.14-.3L19.32,42l-.06.09-.15,0v.12l-.07-.09,0,.1h-.1l0,.11h-.09l-.07.09-.08-.06-.17.15v-.15l-.13,0v-.06l-.08,0,.05-.14h-.05l.1,0,0-.18.17-.14.28,0v-.2l.1,0,0,.07.2-.11-.05-.14.11-.17h.08l0-.08,0,0-.19,0-.1,0-.18.08-.05.11-.07,0v-.14l.14-.06h-.08v-.15l.19-.07,0-.08H19l.05-.14-.09-.06,0-.05-.09.08-.13-.1h-.14l-.09.16-.1-.14h-.1l.07,0-.1.09.11,0-.2.11,0,.14,0,.06.05-.15.24.11-.15.2-.07,0-.06.1-.11,0,0,.15-.07.05,0-.06L18,41.4l-.05-.06.14-.19L17.8,41l-.26,0-.08-.2,0,.08-.15.09v.16l-.07,0v.1h-.13L17,41.4l.1.11-.08,0v.15l-.1.08.05.07.14,0,.09.08L17,42l-.14.18.1.16h.17l-.25.13-.13-.21-.13,0,0-.14L16.58,42h-.09l0,.09L16.34,42l-.12,0-.1.23-.28.19-.09-.07h-.33l-.36.18-.16,0-.14.16-.13,0,0,.11-.14.06,0,0-.27.1.15-.21v-.06l-.09-.07-.21.09-.05,0,0,.06v-.11l-.07,0-.35.17v-.07l-.11,0-.1.19-.1-.09-.08.09L13,42.92l-.18.19,0,.14h-.12l-.09.12,0,.05-.08,0,0,.15-.09,0,0,.18-.05.35.18.11-.06.08H12.5v.21l.09.06-.1.17-.11,0,0,.19.14,0v.1l-.2,0,0,.12-.08,0,0,0,.14,0-.14.08,0,.07h-.07l-.06.15.13.19h.06l0,.16-.08,0,.06.08-.05.15h.12l.08,0h.09l.09-.19.1,0L12.9,46l0-.08-.07,0,.1,0,0-.09,0,.06,0-.05h.08l.13-.36.14,0,0,.2h.31v.11l.18,0-.19.16,0,.15-.07.06-.08,0,0-.09-.12,0,.07-.15-.25.2,0-.08-.18-.06.06.14-.08.12.11-.07,0,.06-.2.14L13,46.24l-.1.15.1,0-.08,0-.08,0,0,0,.09.08-.23.12h.23L13,46.5v.09l.1,0,.08-.16.13-.08h.23l.08.1.35-.11-.19.19-.3.61-.27.29,0,.06.28.1-.08-.09,0-.1.07-.06.06,0,.12-.13.18-.47.42-.27,0-.12,0,0h.38l.25-.13v.09l-.27.24,0,.16-.16.24.08.09.07,0,.29.08.13,0,0,.07.2-.14.33.25,0,.07.08,0,.05.11h.13l0,.1-.12.09-.07-.17-.27-.08-.11.09-.09.24,0,0-.15.09-.09,0L14.8,48l.07.13-.36.5-.15.09-.14-.05-.1.15,0,0v-.33H14l-.08.06,0-.17-.08,0-.09.17-.09.05.08-.26-.19-.11-.13,0-.07.13-.17,0,0,.16L13,48.4l-.06-.19-.1.09v.14l-.1.08v-.07l-.26-.14-.27.12-.08.12h.06l0,.06-.1,0-.07.09.13.16-.17-.08-.16-.11h-.12l-.17-.3-.32-.06,0-.1L11.07,48l0-.2L11,47.65v-.12h0l-.31-.17,0-.12-.33.14,0-.19-.05,0L10.22,47l-.16-.12,0-.13-.29-.14H9.46l-.06-.31H9.28l-.07-.15L9.34,46Zm2.8,2.91h0v0h0Zm52.37-18h0v0h0v0H64.5v0h0Zm-.24.21v-.06l.14-.08.06.08-.08.05,0,.13H64.3Zm-50,12.31h0v0h0ZM12.81,44h0Zm.13,4.64h0v0h0Zm2.2-5.74h0v0h0v0l0,0Zm-.67,3h0Zm-.33-2.69h0v0h0v0h0ZM12.83,44.3h0l0,0h0v0h0ZM12.68,44v0h0ZM13,46.4h0Zm-.22-1.15h0v0h0l0,0h0Zm1.94,1.69h0v0h0l0,0h0l0,0h0Zm-.42-3.36v0l0,0h0v0h0Zm.57-.67v0h0v0h-.05Zm-1.91.87v0H13l0,0h0Zm-.25.57h.06v0h-.06Zm1-1.3h0Zm8.47-.33h0v0l0,0h0v0h-.05Zm-7.24,3.37v0h0l0,0v0h0Zm-1.3-2.87h0v0h0v0h0Zm.15-.18h0ZM12.59,46h.07V46h-.06Zm9.2-3.29h0l0,0v0h0l0,.06h0v0h-.05Zm-7.08,5.86h0l0,0v0h0v0h0l0,0h0ZM13.07,45v0h0v0h0l0,0v0h0Zm-.21-.92v0h.06v0h-.07Zm.32,1.34v0h0v0h0v.07h0v0h0Zm1.3.29,0,0h.07v0h0v0h0v0h0Zm-.43-2.57h0v0l0,0,.07,0h0l0,0h0v0l0,0v0h0Zm.56,2.37h0v0h0v0h.06v0h0v0h0v0h0v0h-.05Zm7.72-2.82h0v0h0l0,0h.07v0h0v0h-.12Zm-9,3.59v0h0v0h.17l0,0h0v0h0l0,0h-.19Zm.08-3h0l0,0v0h.08l0,0h0v0h0v0h0l0,0h-.05v0Zm1.39-.15h0v0l0,0v0h0l0,0H15v0H15l0,0h0v0h-.09v0h0v0Zm-2.26,1.79v-.07l.19-.09,0,.1-.18.24Zm1.3,1.15.27-.12.18-.24.11.08.06,0,0,.09-.23.14,0,.1-.28,0Zm6.38-.31-.13,0,.11-.1-.08-.14-.26.14.09-.18-.12-.15-.2-.06v0h-.28l-.28.15.05.08-.28.38,0,.24-.27.06L18.7,46l-.19,0v0l0-.15.17-.28,0-.17-.06,0-.22.2-.07-.24-.19.08L18,45.23v-.1l.16-.14.12,0,.12-.11.09,0,.16-.14.23,0,.11-.2L19,44.54l.13-.08.08,0,0-.09.07-.15.26-.2,0,.33h.11v.1h.1l.09-.2.11-.05,0-.11.27,0,0-.07.13-.05,0-.18H20.1l.38-.13v-.14h.07v.07l.35,0,.07,0v.11h.25l0,.09h.07l-.17.11L21,43.87l-.21,0,0,.08L21,44l0-.07.1.22.07,0,.37-.08.11,0,0,.19,0,.17.1.08.15-.06,0-.06.11,0,.07-.18.35-.1.05.08-.14.13-.14.16,0,.12h.09l-.13.2.05.06.13-.07.28-.14,0,.11.16.19L23,45l0,.16-.24.06-.15.14-.19,0H22.3l.06-.08.08-.1-.1-.13-.13-.06-.38.07-.21.26-.12-.1h-.13l-.08.15.13,0v.07l-.25.17v-.12l-.17-.1-.35.07-.08.07h-.22Zm18.31-3.27h0v0h0v0ZM33.06,43h0Zm-9.21-1.26h0l0,0h0Zm-1.18.65h0Zm15.77,1h0v0h0ZM26.9,40.89h0v0h0Zm-1.76,0h0l0,0h0Zm.07,0h0v0h0Zm11.87,1.61h0v0h0ZM25.37,42h0v0h0v0Zm11.29.57,0,0h0v0h-.05ZM25.42,41.16h.07v0h0l0,0h0Zm6.72,2.27h0l0,0h0l0,0h0v0h0Zm6.35-1h0Zm-1.94.22h0l0,0h.07v0h-.08Zm-11.17-.26h0v0h0v0h-.05Zm12.92,0h0Zm-12.81,0h0v0h0v0h0l0,0h-.05Zm.41-.68h0l0,0H26v0h0l0,0H25.9Zm.19.12h0v0h0l0,0h0v0l0,.06h-.05Zm12.18.89h0v0h.16l0,0h0l0,0h-.06ZM26,40.88h0v0h0v0H26l0,0h0v0h0l0,0,0,0h0ZM25.36,42h.1l0,0h-.05v0h0v0h0ZM33,43.14h.09l0,0H33Zm6.31-.09h0l0,0h0l0,0h-.07v-.06h0ZM26.06,41.54h.12v0l0,0h-.08v-.06Zm12.38,1.68,0,0,0,0h0v0l0,0v0h0l0,0h-.06Zm-11.5-2.13h0v0h0v0l0,0h0l0,0h0l0,0h0v0h.07v0h0v0h0v0h-.09Zm13-3.53.07-.17,0-.1.06-.1h.07l0,.08L40,37.4l.09.11-.1.09ZM23.68,42l.05-.07.25-.1.09.21-.14.07L23.84,42l-.08.09Zm2,0v-.12l.09-.05.06-.12.17,0,0,.11-.15.12-.15.28Zm12.58-2.73-.18,0,.09.11,0,.07h-.08l0-.07h-.18l0-.08h-.07l0-.07-.13-.38.14,0,.11,0,.09,0,0,.17L38,38.94l-.11.07,0,.11.13.14ZM26.58,40.55l0-.06.24,0-.16.28,0,0,0,.09.07,0-.12.06-.08-.05-.21.2h-.15l-.08,0,.07-.16-.12-.1v-.14l.18-.08.14.06,0-.1.1,0ZM39,38l-.25.21.07.06,0,.25.18.06-.13.15-.06-.14-.16.18-.1-.23-.22,0-.11-.09-.29.1-.27.24-.11-.07,0-.08-.21-.11-.08-.17.07-.12.14.08h.13v-.13l.23-.24v-.1l.2.06.17.16.28,0,.06,0,0-.14.12-.1h.07l.07-.1,0,0,0,.13.09-.11.15,0v.16Z"/><circle class="cls-2" cx="61.93" cy="19.14" r="2.32"/><circle class="cls-2" cx="25.48" cy="32.02" r="2.17"/><circle class="cls-2" cx="44.83" cy="32.72" r="2.25"/><circle class="cls-2" cx="52.42" cy="10.3" r="1.71"/><circle class="cls-2" cx="48.29" cy="21.79" r="1.56"/><circle class="cls-2" cx="73.5" cy="20.23" r="1.28"/><polyline class="cls-3" points="48.29 21.79 52.49 10.3 61.93 19.14 44.83 32.72 73.5 20.23 61.93 19.14 48.29 21.79 44.83 32.72 25.48 32.02"/><path class="cls-4" d="M6.11,77.46a13.93,13.93,0,0,1,4.12.58,5,5,0,0,1,2.49,1.65A8.23,8.23,0,0,1,14,82.06a9.2,9.2,0,0,1,.45,2.7V85a.12.12,0,0,0,0,.08v.2a8.24,8.24,0,0,1-.61,3,5.06,5.06,0,0,1-1.58,2,7.34,7.34,0,0,1-2.18,1.17,7.43,7.43,0,0,1-2.36.38H0V77.46ZM6.11,89a4.05,4.05,0,0,0,1.73-.25,3,3,0,0,0,1.22-.88,5.25,5.25,0,0,0,.78-1.26,4.51,4.51,0,0,0,.33-1.37v0l0-.06v-.5a.19.19,0,0,1,0-.08v-.08a1,1,0,0,0,0-.18.47.47,0,0,0,0-.17,4.84,4.84,0,0,0-1.25-2.55,3.35,3.35,0,0,0-1.17-.87,3.6,3.6,0,0,0-1.44-.29l-2.19,0V89Z"/><path class="cls-4" d="M20.55,77.46V91.87H16.47V77.46Z"/><path class="cls-4" d="M32.62,81.07a1.75,1.75,0,0,0-.52-.53,3.45,3.45,0,0,0-.66-.34,3.38,3.38,0,0,0-.7-.16h0a.11.11,0,0,1-.07,0h-.17a.11.11,0,0,1-.07,0h-.12a3.33,3.33,0,0,0-1.61.37,2.53,2.53,0,0,0-1,1.13,6.07,6.07,0,0,0-.57,1.56,9.63,9.63,0,0,0-.23,1.72v.38a5.13,5.13,0,0,0,.27,1.72,3.9,3.9,0,0,0,.8,1.35,3.59,3.59,0,0,0,1.29.87,4.52,4.52,0,0,0,1.7.3,3.86,3.86,0,0,0,.47,0l.51-.06a5.27,5.27,0,0,0,.52-.1,5.54,5.54,0,0,0,.55-.14V86.69H30.1v-3H37v7.66a5,5,0,0,1-.87.24c-.32.07-.67.13-1,.18L34,91.94l-1.14.13c-.24,0-.48,0-.72.05l-.69,0-.69,0H30.1A9.17,9.17,0,0,1,27,91.7a7.09,7.09,0,0,1-2.47-1.46A6.32,6.32,0,0,1,23,87.9a8.11,8.11,0,0,1-.53-3v-.4c0-.13,0-.26,0-.39a1.23,1.23,0,0,1,0-.2,1.5,1.5,0,0,0,0-.22,1.42,1.42,0,0,1,0-.2,1.42,1.42,0,0,1,0-.2,7,7,0,0,1,.71-2.17,8.8,8.8,0,0,1,1.4-2A5.24,5.24,0,0,1,27,77.66a10.92,10.92,0,0,1,3.43-.48,11.85,11.85,0,0,1,2.39.22,8.31,8.31,0,0,1,2,.65,3.41,3.41,0,0,1,1.47,1.4A6.46,6.46,0,0,1,37,81.88l-4.08,0A2.44,2.44,0,0,0,32.62,81.07Z"/><path class="cls-4" d="M43.76,77.46V91.87H39.68V77.46Z"/><path class="cls-4" d="M58.18,77.46v3H53.64V91.87H49.72V80.42H45.18v-3Z"/><path class="cls-4" d="M67.89,77.46l5.66,14.41H69l-1-2.67H62.42l-.94,2.67H57.24L63,77.46Zm-2.64,3-1.9,5.82H67Z"/><path class="cls-4" d="M79.2,77.46V88.88h6.43v3H75.12V77.46Z"/><path class="cls-4" d="M28.77,72.81V55.91a1.46,1.46,0,0,0-.29-.93,1.66,1.66,0,0,0-.78-.55,3.5,3.5,0,0,0-1.11-.17,2.93,2.93,0,0,0-.78.09,1.64,1.64,0,0,0-.56.28,3.07,3.07,0,0,0-.47.48l-10.3,13.6L4.25,55.11a2.49,2.49,0,0,0-.48-.49,1.83,1.83,0,0,0-.62-.27,3.26,3.26,0,0,0-.82-.09,3.51,3.51,0,0,0-1.12.17A1.68,1.68,0,0,0,.44,55a1.51,1.51,0,0,0-.28.93v16.9H3.82v-12l8.82,11.57a2,2,0,0,0,.76.59,2.62,2.62,0,0,0,1,.18,2.67,2.67,0,0,0,1-.18,1.93,1.93,0,0,0,.75-.59l8.85-11.57v12ZM45,67.62a17,17,0,0,0,3.3-.26,4.84,4.84,0,0,0,2.09-.88,3.48,3.48,0,0,0,1.1-1.7,9.45,9.45,0,0,0,.31-2.7V60.51a9.08,9.08,0,0,0-.33-2.72A3.9,3.9,0,0,0,50.39,56a4.85,4.85,0,0,0-2.1-1A14.14,14.14,0,0,0,45,54.66H30.54V72.81h4V67.62Zm2.77-5.7a3.3,3.3,0,0,1-.26,1.48,1.44,1.44,0,0,1-.89.74,5.35,5.35,0,0,1-1.67.21H34.58v-6.2H44.94a5,5,0,0,1,1.71.21,1.52,1.52,0,0,1,.9.78,3.57,3.57,0,0,1,.26,1.53Z"/><path class="cls-5" d="M74.6,72.81,64,66.66h3.19a18.61,18.61,0,0,0,3.21-.24,6,6,0,0,0,2.25-.83A3.48,3.48,0,0,0,73.93,64a6.67,6.67,0,0,0,.43-2.59V60.11a7.44,7.44,0,0,0-.4-2.69,3.57,3.57,0,0,0-1.27-1.67,5.49,5.49,0,0,0-2.22-.85,19,19,0,0,0-3.26-.24H53V72.81h4v-6.6l10.6,6.6Zm-4.28-11.5a3.36,3.36,0,0,1-.16,1.19,1.27,1.27,0,0,1-.55.69,2.6,2.6,0,0,1-1,.33A12.28,12.28,0,0,1,67,63.6H57V58.07H67a11.2,11.2,0,0,1,1.65.08,2.45,2.45,0,0,1,1,.32,1.27,1.27,0,0,1,.54.68,3.53,3.53,0,0,1,.15,1.18v1Zm9.13,11.5a14.43,14.43,0,0,0,3.36-.33A4.79,4.79,0,0,0,85,71.41a4,4,0,0,0,1.13-1.93,10.57,10.57,0,0,0,.33-2.9V54.66h-4V66.39a4.9,4.9,0,0,1-.14,1.36,1.87,1.87,0,0,1-.5.92,2.12,2.12,0,0,1-1,.51,6.56,6.56,0,0,1-1.61.17H74.75v3.46Z"/></g></g></svg>