<?xml version="1.0" encoding="utf-8"?>
<!-- Generator: Adobe Illustrator 22.1.0, SVG Export Plug-In . SVG Version: 6.00 Build 0)  -->
<svg version="1.1" id="Camada_1" xmlns="http://www.w3.org/2000/svg" xmlns:xlink="http://www.w3.org/1999/xlink" x="0px" y="0px"
	 viewBox="0 0 1100 360" style="enable-background:new 0 0 1100 360;" xml:space="preserve">
<style type="text/css">
	.st0{opacity:0.5;}
	.st1{fill:#51AACC;}
	.st2{fill:#FFFFFF;}
</style>
<title>roda_mobile_e_destaque</title>
<g class="st0">
	<path class="st1" d="M839,0c85.5,0,171,0,256.5,0.1c1.5,0,3.4-1.1,4.5,0.9c-1,1.7-2.1,3.4-3.1,5.1c-35.6,65-82.6,123.2-138.7,171.8
		c-49.5,43.1-105.5,78-166,103.5c-57.7,24.4-118.7,39.8-181,45.8c-10.1,1-20.2,1.8-30.3,2.8h-62c-1.4-0.4-2.9-0.6-4.4-0.8
		c-12-0.4-23.9-1.6-35.8-3c-69.7-7.8-137.5-27.5-200.6-58.2C192.5,226.3,120,168,60.8,93.2C37.6,64.1,17.2,32.9,0,0h262
		c7.8,9.4,17.3,17.1,26.7,24.8C378.5,97,481,127.7,595.6,115.9c78.4-8,148.5-37.6,210.4-86.2C817.7,20.6,829.2,11.3,839,0z"/>
</g>
<path class="st2" d="M548.6,360l-34.2-21.3c-6.7-4.1-14.2-6.7-22.1-7.5c-38.4-3.8-76-8.2-112.2-18.6V80.1
	c53.2,23.9,111.7,32.9,173.3,32.9c56.1,0,111.7-11.2,163.5-32.9v232.5c-36.7,10-74.3,16.5-112.2,19.6c-8,0.6-15.7,3.1-22.6,7.4
	L548.6,360z"/>
</svg>
