<?xml version="1.0" encoding="utf-8"?>
<!-- Generator: Adobe Illustrator 22.1.0, SVG Export Plug-In . SVG Version: 6.00 Build 0)  -->
<svg version="1.1" id="Camada_1" xmlns="http://www.w3.org/2000/svg" xmlns:xlink="http://www.w3.org/1999/xlink" x="0px" y="0px"
	 viewBox="0 0 382.8 720" style="enable-background:new 0 0 382.8 720;" xml:space="preserve">
<style type="text/css">
	.st0{opacity:0.5;fill:#51AACC;enable-background:new    ;}
	.st1{fill:#FFFFFF;}
</style>
<g>
	<path class="st0" d="M0,0v117.6c133.9,0,242.4,108.5,242.4,242.4S133.9,602.4,0,602.4V720c198.8,0,360-161.2,360-360S198.8,0,0,0z"
		/>
	<path class="st1" d="M382.8,359.9l-13,20.9c-2.5,4.1-4.1,8.7-4.6,13.5c-2.3,23.5-6.7,46.5-13.1,68.6H209
		c14.6-32.5,22.7-68.3,22.7-106c0-35.4-7.2-69.2-20.1-100h142.2c6,22.1,10.1,45.1,12,68.6c0.4,4.9,1.9,9.6,4.5,13.8L382.8,359.9z"/>
</g>
</svg>
