<?xml version="1.0" encoding="utf-8"?>
<!-- Generator: Adobe Illustrator 17.0.0, SVG Export Plug-In . SVG Version: 6.00 Build 0)  -->
<!DOCTYPE svg PUBLIC "-//W3C//DTD SVG 1.1//EN" "http://www.w3.org/Graphics/SVG/1.1/DTD/svg11.dtd">
<svg version="1.1" id="Camada_1" xmlns="http://www.w3.org/2000/svg" xmlns:xlink="http://www.w3.org/1999/xlink" x="0px" y="0px"
	 width="960px" height="720px" viewBox="0 0 960 720" enable-background="new 0 0 960 720" xml:space="preserve">
<path opacity="0.5" fill="#51AACC" d="M1027,0v117.645c133.857,0,242.355,108.498,242.355,242.355S1160.857,602.355,1027,602.355
	V720c198.792,0,360-161.208,360-360S1225.792,0,1027,0z"/>
<path fill="#FFFFFF" d="M1391.905,357.043c0,36.666-4.928,72.248-14.292,105.957h-137.596
	c13.996-32.526,21.783-68.305,21.783-105.957c0-35.385-6.9-69.192-19.319-100.043h136.709
	C1387.568,288.935,1391.905,322.545,1391.905,357.043z"/>
<path fill="#FFFFFF" d="M1401.071,372.961c0.197-4.337,0.296-8.674,0.296-13.011c0-4.337-0.099-8.674-0.296-12.912l12.912,12.912
	L1401.071,372.961z"/>
</svg>
